{
.appVersion = "3151";
.formatVersion = 3;
axes = (
{
name = Weight;
tag = wght;
}
);
classes = (
{
automatic = 1;

glyphs = (
{
glyphname = A;
layers = (
{
anchors = (
{
name = bottom;
pos = (235,0);
},
{
name = ogonek;
pos = (313,52);
},
{
name = top;
pos = (235,680);
}
);
layerId = "C1068CC4-E81B-47E6-9D26-F0E70787A68A";
shapes = (
{
closed = 1;
nodes = (
(191,1,l),
(230,147,l),
(197,156,l),
(197,267,l),
(251,252,l),
(279,356,l),
(197,379,l),
(197,500,l),
(46,500,l),
(46,165,l),
(15,49,l)
);
},
{
closed = 1;
nodes = (
(223,326,l),
(218,306,l),
(132,330,l),
(132,105,l),
(201,86,l),
(178,142,l),
(151,34,l),
(197,66,l),
(42,108,l),
(67,52,l),
(94,160,l),
(47,128,l),
(112,110,l),
(112,453,l),
(132,453,l),
(132,351,l)
);
},
{
closed = 1;
nodes = (
(25,528,l),
(271,461,l),
(271,165,l),
(240,49,l),
(416,1,l),
(455,147,l),
(422,156,l),
(422,447,l),
(455,567,l),
(65,674,l)
);
},
{
closed = 1;
nodes = (
(94,597,l),
(420,507,l),
(402,563,l),
(375,456,l),
(415,488,l),
(357,504,l),
(357,105,l),
(426,86,l),
(402,142,l),
(375,34,l),
(422,66,l),
(267,108,l),
(292,52,l),
(319,160,l),
(272,128,l),
(337,110,l),
(337,510,l),
(89,578,l)
);
}
);
width = 470;
}
);
unicode = 65;
},
{
glyphname = AE;
layers = (
{
anchors = (
{
name = bottom;
pos = (235,0);
},
{
name = ogonek;
pos = (423,10);
},
{
name = top;
pos = (235,680);
}
);
layerId = "C1068CC4-E81B-47E6-9D26-F0E70787A68A";
shapes = (
{
closed = 1;
nodes = (
(191,1,l),
(230,147,l),
(197,156,l),
(197,267,l),
(251,252,l),
(279,356,l),
(197,379,l),
(197,500,l),
(46,500,l),
(46,165,l),
(15,49,l)
);
},
{
closed = 1;
nodes = (
(223,326,l),
(218,306,l),
(132,330,l),
(132,105,l),
(201,86,l),
(178,142,l),
(151,34,l),
(197,66,l),
(42,108,l),
(67,52,l),
(94,160,l),
(47,128,l),
(112,110,l),
(112,453,l),
(132,453,l),
(132,351,l)
);
},
{
closed = 1;
nodes = (
(230,503,l),
(296,521,l),
(89,578,l),
(94,597,l),
(308,538,l),
(257,610,l)
);
},
{
closed = 1;
nodes = (
(614,543,l),
(612,523,l),
(307,552,l),
(311,592,l),
(285,574,l)
);
},
{
closed = 1;
nodes = (
(322,119,l),
(337,115,l),
(337,453,l),
(357,453,l),
(357,314,l),
(498,314,l),
(495,294,l),
(357,294,l),
(357,109,l),
(547,58,l),
(542,38,l),
(317,99,l)
);
},
{
closed = 1;
nodes = (
(271,461,l),
(271,115,l),
(254,51,l),
(572,-36,l),
(612,110,l),
(422,162,l),
(422,228,l),
(537,228,l),
(556,379,l),
(422,379,l),
(422,497,l),
(407,477,l),
(655,453,l),
(669,604,l),
(266,642,l),
(264,619,l),
(65,674,l),
(25,528,l)
);
}
);
width = 684;
}
);
unicode = 198;
},
{
glyphname = B;
layers = (
{
layerId = "C1068CC4-E81B-47E6-9D26-F0E70787A68A";
shapes = (
{
closed = 1;
nodes = (
(165,105,l),
(370,49,l),
(352,80,l),
(263,28,l),
(357,32,l),
(75,108,l),
(71,75,l),
(98,183,l),
(80,128,l),
(145,110,l),
(145,453,l),
(165,453,l)
);
},
{
closed = 1;
nodes = (
(127,597,l),
(410,519,l),
(405,500,l),
(390,504,l),
(390,417,l),
(370,411,l),
(370,510,l),
(122,578,l)
);
},
{
closed = 1;
nodes = (
(304,461,l),
(304,333,l),
(455,375,l),
(455,576,l),
(98,674,l),
(46,484,l),
(27,537,l)
);
},
{
closed = 1;
nodes = (
(270,284,l),
(282,333,l),
(263,315,l),
(410,274,l),
(405,255,l),
(390,259,l),
(390,102,l),
(370,90,l),
(370,265,l),
(256,296,l)
);
},
{
closed = 1;
nodes = (
(295,-17,l),
(455,76,l),
(455,331,l),
(250,388,l),
(230,314,l),
(230,490,l),
(79,490,l),
(79,199,l),
(55,205,l),
(3,15,l),
(-16,68,l)
);
},
{
closed = 1;
nodes = (
(230,171,l),
(230,236,l),
(304,216,l),
(304,137,l),
(179,171,l)
);
}
);
width = 470;
}
);
unicode = 66;
},
{
glyphname = C;
layers = (
{
anchors = (
{
name = bottom;
pos = (206,0);
},
{
name = top;
pos = (246,700);
}
);
layerId = "C1068CC4-E81B-47E6-9D26-F0E70787A68A";
shapes = (
{
closed = 1;
nodes = (
(476,570,l),
(53,686,l),
(107,716,l),
(44,484,l),
(25,537,l),
(437,424,l)
);
},
{
closed = 1;
nodes = (
(125,597,l),
(408,519,l),
(403,500,l),
(120,578,l)
);
},
{
closed = 1;
nodes = (
(306,-19,l),
(464,24,l),
(424,170,l),
(294,134,l),
(167,171,l),
(228,171,l),
(228,490,l),
(77,490,l),
(77,197,l),
(52,204,l),
(15,60,l)
);
},
{
closed = 1;
nodes = (
(82,127,l),
(143,110,l),
(143,453,l),
(163,453,l),
(163,105,l),
(339,57,l),
(253,58,l),
(437,108,l),
(382,138,l),
(399,77,l),
(295,48,l),
(77,107,l)
);
}
);
width = 491;
}
);
unicode = 67;
},
{
glyphname = D;
layers = (
{
anchors = (
{
name = bottom;
pos = (246,-50);
},
{
name = center;
pos = (246,350);
},
{
name = top;
pos = (246,700);
}
);
layerId = "C1068CC4-E81B-47E6-9D26-F0E70787A68A";
shapes = (
{
closed = 1;
nodes = (
(325,455,l),
(325,86,l),
(476,86,l),
(476,570,l),
(96,674,l),
(44,484,l),
(25,537,l)
);
},
{
closed = 1;
nodes = (
(343,-29,l),
(380,114,l),
(172,171,l),
(228,171,l),
(228,490,l),
(77,490,l),
(77,197,l),
(52,204,l),
(15,60,l)
);
},
{
closed = 1;
nodes = (
(125,597,l),
(411,518,l),
(411,137,l),
(391,137,l),
(391,503,l),
(120,578,l)
);
},
{
closed = 1;
nodes = (
(83,130,l),
(143,114,l),
(143,453,l),
(163,453,l),
(163,108,l),
(317,66,l),
(312,45,l),
(77,109,l)
);
}
);
width = 491;
}
);
unicode = 68;
},
{
glyphname = Eth;
layers = (
{
anchors = (
{
name = bottom;
pos = (246,-50);
},
{
name = center;
pos = (246,350);
},
{
name = top;
pos = (246,700);
}
);
layerId = "C1068CC4-E81B-47E6-9D26-F0E70787A68A";
shapes = (
{
closed = 1;
nodes = (
(325,455,l),
(325,86,l),
(476,86,l),
(476,570,l),
(96,674,l),
(44,484,l),
(25,537,l)
);
},
{
closed = 1;
nodes = (
(125,597,l),
(411,518,l),
(411,137,l),
(391,137,l),
(391,503,l),
(120,578,l)
);
},
{
closed = 1;
nodes = (
(77,302,l),
(77,197,l),
(52,204,l),
(15,60,l),
(343,-29,l),
(380,114,l),
(172,171,l),
(228,171,l),
(228,261,l),
(259,252,l),
(287,356,l),
(228,373,l),
(228,490,l),
(77,490,l),
(77,414,l),
(55,420,l),
(12,260,l),
(-13,327,l)
);
},
{
closed = 1;
nodes = (
(78,367,l),
(143,349,l),
(143,453,l),
(163,453,l),
(163,344,l),
(239,323,l),
(234,304,l),
(163,324,l),
(163,108,l),
(317,66,l),
(312,45,l),
(77,109,l),
(83,130,l),
(143,114,l),
(143,329,l),
(74,348,l)
);
}
);
width = 491;
}
);
unicode = 208;
},
{
glyphname = E;
layers = (
{
anchors = (
{
name = bottom;
pos = (224,0);
},
{
name = ogonek;
pos = (172,52);
},
{
name = top;
pos = (224,700);
},
{
name = topleft;
pos = (20,700);
}
);
layerId = "C1068CC4-E81B-47E6-9D26-F0E70787A68A";
shapes = (
{
closed = 1;
nodes = (
(436,652,l),
(466,601,l),
(-15,646,l),
(33,685,l),
(11,446,l),
(-17,495,l),
(453,450,l),
(414,412,l)
);
},
{
closed = 1;
nodes = (
(377,543,l),
(375,523,l),
(70,552,l),
(74,592,l),
(48,574,l)
);
},
{
closed = 1;
nodes = (
(335,-36,l),
(375,110,l),
(185,162,l),
(185,228,l),
(300,228,l),
(319,379,l),
(185,379,l),
(185,482,l),
(34,482,l),
(34,115,l),
(17,51,l)
);
},
{
closed = 1;
nodes = (
(85,119,l),
(100,115,l),
(100,445,l),
(120,445,l),
(120,314,l),
(261,314,l),
(258,294,l),
(120,294,l),
(120,109,l),
(310,58,l),
(305,38,l),
(80,99,l)
);
}
);
width = 447;
}
);
unicode = 69;
},
{
glyphname = F;
layers = (
{
layerId = "C1068CC4-E81B-47E6-9D26-F0E70787A68A";
shapes = (
{
closed = 1;
nodes = (
(403,522,l),
(51,555,l),
(77,508,l),
(86,592,l),
(60,574,l),
(403,542,l),
(394,587,l),
(384,477,l)
);
},
{
closed = 1;
nodes = (
(112,445,l),
(132,445,l),
(132,306,l),
(273,306,l),
(270,286,l),
(132,286,l),
(132,109,l),
(201,90,l),
(178,146,l),
(151,38,l),
(196,70,l),
(41,112,l),
(69,56,l),
(96,164,l),
(47,132,l),
(112,114,l)
);
},
{
closed = 1;
nodes = (
(131,482,l),
(46,482,l),
(46,164,l),
(15,48,l),
(191,0,l),
(230,146,l),
(197,155,l),
(197,241,l),
(312,241,l),
(331,350,l),
(197,350,l),
(197,476,l),
(430,453,l),
(444,604,l),
(41,642,l),
(23,446,l),
(-5,495,l)
);
}
);
width = 459;
}
);
unicode = 70;
},
{
glyphname = G;
layers = (
{
anchors = (
{
name = bottom;
pos = (297,0);
},
{
name = top;
pos = (297,700);
}
);
layerId = "C1068CC4-E81B-47E6-9D26-F0E70787A68A";
shapes = (
{
closed = 1;
nodes = (
(565,188,l),
(579,339,l),
(256,369,l),
(318,408,l),
(296,169,l),
(254,218,l)
);
},
{
closed = 1;
nodes = (
(476,570,l),
(53,686,l),
(107,716,l),
(44,484,l),
(25,537,l),
(437,424,l)
);
},
{
closed = 1;
nodes = (
(406,499,l),
(120,578,l),
(125,597,l),
(411,518,l)
);
},
{
closed = 1;
nodes = (
(306,-19,l),
(374,0,l),
(374,-50,l),
(525,-50,l),
(525,199,l),
(374,199,l),
(374,156,l),
(294,134,l),
(168,171,l),
(167,168,l),
(228,168,l),
(228,490,l),
(77,490,l),
(77,197,l),
(52,204,l),
(15,60,l)
);
},
{
closed = 1;
nodes = (
(82,127,l),
(143,110,l),
(143,442,l),
(163,442,l),
(163,105,l),
(294,69,l),
(440,109,l),
(440,150,l),
(460,150,l),
(460,-2,l),
(440,-2,l),
(440,89,l),
(295,48,l),
(77,107,l)
);
},
{
closed = 1;
nodes = (
(358,273,l),
(364,336,l),
(316,296,l),
(565,273,l),
(529,322,l),
(519,212,l),
(563,253,l)
);
}
);
width = 594;
}
);
unicode = 71;
},
{
glyphname = H;
layers = (
{
layerId = "C1068CC4-E81B-47E6-9D26-F0E70787A68A";
shapes = (
{
closed = 1;
nodes = (
(329,97,l),
(334,117,l),
(360,110,l),
(360,477,l),
(380,477,l),
(380,105,l),
(449,86,l),
(426,142,l),
(399,34,l),
(445,67,l)
);
},
{
closed = 1;
nodes = (
(439,1,l),
(478,147,l),
(445,156,l),
(445,526,l),
(294,526,l),
(294,165,l),
(263,49,l)
);
},
{
closed = 1;
nodes = (
(87,119,l),
(133,106,l),
(133,517,l),
(53,539,l),
(79,488,l),
(106,596,l),
(57,558,l),
(214,518,l),
(188,573,l),
(161,465,l),
(209,498,l),
(153,512,l),
(153,351,l),
(244,326,l),
(239,306,l),
(153,330,l),
(153,101,l),
(179,94,l),
(174,74,l),
(82,99,l)
);
},
{
closed = 1;
nodes = (
(206,-3,l),
(245,143,l),
(157,167,l),
(157,165,l),
(220,165,l),
(220,267,l),
(274,252,l),
(302,356,l),
(220,379,l),
(220,499,l),
(241,576,l),
(65,624,l),
(25,478,l),
(69,466,l),
(69,191,l),
(54,195,l),
(15,49,l)
);
}
);
width = 493;
}
);
unicode = 72;
},
{
glyphname = Hbar;
layers = (
{
layerId = "C1068CC4-E81B-47E6-9D26-F0E70787A68A";
shapes = (
{
closed = 1;
nodes = (
(329,97,l),
(334,117,l),
(360,110,l),
(360,477,l),
(380,477,l),
(380,105,l),
(449,86,l),
(426,142,l),
(399,34,l),
(445,67,l)
);
},
{
closed = 1;
nodes = (
(87,119,l),
(133,106,l),
(133,517,l),
(53,539,l),
(79,488,l),
(106,596,l),
(57,558,l),
(214,518,l),
(188,573,l),
(161,465,l),
(209,498,l),
(153,512,l),
(153,351,l),
(244,326,l),
(239,306,l),
(153,330,l),
(153,101,l),
(179,94,l),
(174,74,l),
(82,99,l)
);
},
{
closed = 1;
nodes = (
(206,-3,l),
(245,143,l),
(164,165,l),
(220,165,l),
(220,267,l),
(274,252,l),
(294,326,l),
(294,165,l),
(263,49,l),
(439,1,l),
(478,147,l),
(445,156,l),
(445,351,l),
(472,344,l),
(485,390,l),
(445,401,l),
(445,526,l),
(294,526,l),
(294,443,l),
(220,464,l),
(220,499,l),
(241,576,l),
(65,624,l),
(25,478,l),
(69,466,l),
(69,191,l),
(54,195,l),
(15,49,l)
);
},
{
closed = 1;
nodes = (
(220,413,l),
(294,393,l),
(294,358,l),
(220,379,l)
);
}
);
width = 500;
}
);
unicode = 294;
},
{
glyphname = I;
layers = (
{
anchors = (
{
name = bottom;
pos = (123,0);
},
{
name = ogonek;
pos = (101,52);
},
{
name = top;
pos = (123,700);
},
{
name = topleft;
pos = (20,700);
}
);
layerId = "C1068CC4-E81B-47E6-9D26-F0E70787A68A";
shapes = (
{
closed = 1;
nodes = (
(191,0,l),
(230,146,l),
(197,155,l),
(197,502,l),
(230,626,l),
(54,674,l),
(15,528,l),
(46,520,l),
(46,164,l),
(15,48,l)
);
},
{
closed = 1;
nodes = (
(112,570,l),
(43,589,l),
(68,533,l),
(95,641,l),
(48,609,l),
(203,567,l),
(177,623,l),
(150,515,l),
(197,547,l),
(132,565,l),
(132,104,l),
(201,85,l),
(177,141,l),
(150,33,l),
(196,65,l),
(41,107,l),
(68,51,l),
(95,159,l),
(47,127,l),
(112,109,l)
);
}
);
width = 245;
}
);
unicode = 73;
},
{
glyphname = J;
layers = (
{
layerId = "C1068CC4-E81B-47E6-9D26-F0E70787A68A";
shapes = (
{
closed = 1;
nodes = (
(392,652,l),
(444,601,l),
(-37,646,l),
(33,685,l),
(11,446,l),
(-39,495,l),
(431,450,l),
(370,412,l)
);
},
{
closed = 1;
nodes = (
(369,522,l),
(48,552,l),
(65,506,l),
(73,594,l),
(48,572,l),
(368,542,l),
(338,590,l),
(328,480,l)
);
},
{
closed = 1;
nodes = (
(31,-118,l),
(189,-161,l),
(340,-124,l),
(340,465,l),
(189,465,l),
(189,-4,l),
(71,28,l)
);
},
{
closed = 1;
nodes = (
(95,-67,l),
(100,-47,l),
(255,-90,l),
(255,418,l),
(275,418,l),
(275,-130,l),
(319,-95,l),
(226,-114,l),
(313,-127,l)
);
}
);
width = 403;
}
);
unicode = 74;
},
{
glyphname = K;
layers = (
{
anchors = (
{
name = bottom;
pos = (235,0);
},
{
name = top;
pos = (235,700);
}
);
layerId = "C1068CC4-E81B-47E6-9D26-F0E70787A68A";
shapes = (
{
closed = 1;
nodes = (
(191,0,l),
(230,146,l),
(197,155,l),
(197,502,l),
(230,626,l),
(54,674,l),
(15,528,l),
(46,520,l),
(46,164,l),
(15,48,l)
);
},
{
closed = 1;
nodes = (
(112,570,l),
(43,589,l),
(67,533,l),
(94,641,l),
(47,609,l),
(202,567,l),
(179,623,l),
(152,515,l),
(197,547,l),
(132,565,l),
(132,104,l),
(201,85,l),
(177,141,l),
(150,33,l),
(196,65,l),
(41,107,l),
(67,51,l),
(94,159,l),
(47,127,l),
(112,109,l)
);
},
{
closed = 1;
nodes = (
(271,226,l),
(271,165,l),
(240,49,l),
(416,1,l),
(455,147,l),
(422,156,l),
(422,312,l),
(217,432,l),
(143,301,l)
);
},
{
closed = 1;
nodes = (
(248,389,l),
(189,373,l),
(357,274,l),
(357,105,l),
(426,86,l),
(403,142,l),
(376,34,l),
(421,66,l),
(266,108,l),
(291,52,l),
(318,160,l),
(272,128,l),
(337,110,l),
(337,263,l),
(179,356,l),
(192,294,l)
);
},
{
closed = 1;
nodes = (
(357,534,l),
(357,426,l),
(337,418,l),
(337,526,l)
);
},
{
closed = 1;
nodes = (
(422,402,l),
(422,611,l),
(271,550,l),
(271,341,l)
);
}
);
width = 470;
}
);
unicode = 75;
},
{
glyphname = L;
layers = (
{
anchors = (
{
name = bottom;
pos = (214,0);
},
{
name = center;
pos = (214,350);
},
{
name = top;
pos = (154,700);
},
{
name = topright;
pos = (408,700);
}
);
layerId = "C1068CC4-E81B-47E6-9D26-F0E70787A68A";
shapes = (
{
closed = 1;
nodes = (
(417,186,l),
(466,135,l),
(-15,180,l),
(39,219,l),
(17,-20,l),
(-17,29,l),
(453,-16,l),
(395,-54,l)
);
},
{
closed = 1;
nodes = (
(185,178,l),
(185,479,l),
(224,469,l),
(263,615,l),
(73,666,l),
(34,520,l),
(34,161,l)
);
},
{
closed = 1;
nodes = (
(100,570,l),
(105,589,l),
(197,563,l),
(192,544,l),
(120,564,l),
(120,218,l),
(100,216,l)
);
},
{
closed = 1;
nodes = (
(74,51,l),
(84,161,l),
(54,108,l),
(379,78,l),
(362,128,l),
(352,18,l),
(378,58,l),
(52,88,l)
);
}
);
width = 428;
}
);
unicode = 76;
},
{
glyphname = Lslash;
layers = (
{
anchors = (
{
name = bottom;
pos = (252,0);
},
{
name = center;
pos = (252,350);
},
{
name = top;
pos = (192,700);
},
{
name = topright;
pos = (446,700);
}
);
layerId = "C1068CC4-E81B-47E6-9D26-F0E70787A68A";
shapes = (
{
closed = 1;
nodes = (
(455,186,l),
(504,135,l),
(23,180,l),
(77,219,l),
(55,-20,l),
(21,29,l),
(491,-16,l),
(433,-54,l)
);
},
{
closed = 1;
nodes = (
(112,51,l),
(122,161,l),
(92,108,l),
(417,78,l),
(400,128,l),
(390,18,l),
(416,58,l),
(90,88,l)
);
},
{
closed = 1;
nodes = (
(-5,455,l),
(27,259,l),
(72,266,l),
(72,161,l),
(223,178,l),
(223,291,l),
(293,303,l),
(276,410,l),
(223,401,l),
(223,479,l),
(262,469,l),
(301,615,l),
(111,666,l),
(72,520,l),
(72,376,l),
(-36,358,l)
);
},
{
closed = 1;
nodes = (
(138,343,l),
(138,570,l),
(143,589,l),
(235,563,l),
(230,544,l),
(158,564,l),
(158,346,l),
(242,360,l),
(245,340,l),
(158,326,l),
(158,218,l),
(138,216,l),
(138,322,l),
(61,310,l),
(54,359,l),
(36,326,l)
);
}
);
width = 466;
}
);
unicode = 321;
},
{
glyphname = M;
layers = (
{
layerId = "C1068CC4-E81B-47E6-9D26-F0E70787A68A";
shapes = (
{
closed = 1;
nodes = (
(66,470,l),
(66,165,l),
(35,49,l),
(211,1,l),
(250,147,l),
(217,156,l),
(217,585,l),
(54,630,l),
(15,484,l)
);
},
{
closed = 1;
nodes = (
(95,597,l),
(47,564,l),
(152,537,l),
(152,105,l),
(221,86,l),
(197,142,l),
(170,34,l),
(217,66,l),
(62,108,l),
(87,52,l),
(114,160,l),
(67,128,l),
(132,110,l),
(132,520,l),
(43,545,l),
(68,489,l)
);
},
{
closed = 1;
nodes = (
(344,113,l),
(357,62,l),
(357,511,l),
(235,545,l),
(259,489,l),
(286,597,l),
(240,565,l),
(447,508,l),
(423,564,l),
(396,456,l),
(442,488,l),
(377,506,l),
(377,105,l),
(446,86,l),
(423,142,l),
(396,34,l),
(441,66,l),
(339,94,l)
);
},
{
closed = 1;
nodes = (
(291,461,l),
(291,87,l),
(279,44,l),
(436,1,l),
(475,147,l),
(442,156,l),
(442,447,l),
(475,567,l),
(246,630,l),
(206,484,l)
);
},
{
closed = 1;
nodes = (
(516,461,l),
(516,87,l),
(504,44,l),
(661,1,l),
(700,147,l),
(667,156,l),
(667,447,l),
(700,567,l),
(471,630,l),
(431,484,l)
);
},
{
closed = 1;
nodes = (
(569,113,l),
(582,62,l),
(582,511,l),
(460,545,l),
(484,489,l),
(511,597,l),
(465,565,l),
(672,508,l),
(648,564,l),
(621,456,l),
(667,488,l),
(602,506,l),
(602,105,l),
(671,86,l),
(648,142,l),
(621,34,l),
(666,66,l),
(564,94,l)
);
}
);
width = 715;
}
);
unicode = 77;
},
{
glyphname = N;
layers = (
{
anchors = (
{
name = bottom;
pos = (245,0);
},
{
name = top;
pos = (245,700);
}
);
layerId = "C1068CC4-E81B-47E6-9D26-F0E70787A68A";
shapes = (
{
closed = 1;
nodes = (
(66,470,l),
(66,165,l),
(35,49,l),
(211,1,l),
(250,147,l),
(217,156,l),
(217,585,l),
(54,630,l),
(15,484,l)
);
},
{
closed = 1;
nodes = (
(95,597,l),
(47,564,l),
(152,537,l),
(152,105,l),
(221,86,l),
(197,142,l),
(170,34,l),
(217,66,l),
(62,108,l),
(87,52,l),
(114,160,l),
(67,128,l),
(132,110,l),
(132,520,l),
(43,545,l),
(68,489,l)
);
},
{
closed = 1;
nodes = (
(344,113,l),
(357,62,l),
(357,511,l),
(235,545,l),
(259,489,l),
(286,597,l),
(240,565,l),
(447,508,l),
(423,564,l),
(396,456,l),
(442,488,l),
(377,506,l),
(377,105,l),
(446,86,l),
(423,142,l),
(396,34,l),
(441,66,l),
(339,94,l)
);
},
{
closed = 1;
nodes = (
(291,461,l),
(291,87,l),
(279,44,l),
(436,1,l),
(475,147,l),
(442,156,l),
(442,447,l),
(475,567,l),
(246,630,l),
(206,484,l)
);
}
);
width = 490;
}
);
unicode = 78;
},
{
glyphname = Eng;
layers = (
{
anchors = (
{
name = bottom;
pos = (245,0);
},
{
name = top;
pos = (245,700);
}
);
layerId = "C1068CC4-E81B-47E6-9D26-F0E70787A68A";
shapes = (
{
closed = 1;
nodes = (
(66,470,l),
(66,165,l),
(35,49,l),
(211,1,l),
(250,147,l),
(217,156,l),
(217,585,l),
(54,630,l),
(15,484,l)
);
},
{
closed = 1;
nodes = (
(95,597,l),
(47,564,l),
(152,537,l),
(152,105,l),
(221,86,l),
(197,142,l),
(170,34,l),
(217,66,l),
(62,108,l),
(87,52,l),
(114,160,l),
(67,128,l),
(132,110,l),
(132,520,l),
(43,545,l),
(68,489,l)
);
},
{
closed = 1;
nodes = (
(315,25,l),
(264,39,l),
(224,-107,l),
(419,-160,l),
(442,-76,l),
(442,447,l),
(475,567,l),
(246,630,l),
(206,484,l),
(291,461,l),
(291,2,l)
);
},
{
closed = 1;
nodes = (
(259,489,l),
(276,555,l),
(411,518,l),
(406,498,l),
(377,506,l),
(377,-60,l),
(394,-65,l),
(389,-84,l),
(289,-56,l),
(294,-37,l),
(357,-55,l),
(357,511,l),
(235,545,l)
);
}
);
width = 490;
}
);
unicode = 330;
},
{
glyphname = O;
layers = (
{
anchors = (
{
name = bottom;
pos = (221,0);
},
{
name = center;
pos = (221,350);
},
{
name = ogonek;
pos = (397,10);
},
{
name = top;
pos = (221,700);
},
{
name = topleft;
pos = (20,700);
},
{
name = topright;
pos = (421,700);
}
);
layerId = "C1068CC4-E81B-47E6-9D26-F0E70787A68A";
shapes = (
{
closed = 1;
nodes = (
(15,52,l),
(368,-44,l),
(406,102,l),
(199,159,l),
(199,492,l),
(48,492,l),
(48,180,l)
);
},
{
closed = 1;
nodes = (
(84,122,l),
(113,114,l),
(113,481,l),
(133,481,l),
(133,108,l),
(341,51,l),
(336,32,l),
(79,103,l)
);
},
{
closed = 1;
nodes = (
(457,526,l),
(37,641,l),
(73,672,l),
(13,438,l),
(15,490,l),
(273,419,l),
(273,86,l),
(424,86,l),
(424,398,l)
);
},
{
closed = 1;
nodes = (
(388,456,l),
(359,464,l),
(359,97,l),
(339,97,l),
(339,470,l),
(75,543,l),
(78,489,l),
(105,596,l),
(85,560,l),
(393,475,l)
);
}
);
width = 441;
}
);
unicode = 79;
},
{
glyphname = Oslash;
layers = (
{
anchors = (
{
name = bottom;
pos = (231,0);
},
{
name = center;
pos = (231,350);
},
{
name = ogonek;
pos = (407,10);
},
{
name = top;
pos = (231,700);
},
{
name = topleft;
pos = (30,700);
},
{
name = topright;
pos = (431,700);
}
);
layerId = "C1068CC4-E81B-47E6-9D26-F0E70787A68A";
shapes = (
{
closed = 1;
nodes = (
(25,490,l),
(283,419,l),
(283,86,l),
(434,86,l),
(434,398,l),
(467,526,l),
(409,542,l),
(455,588,l),
(378,664,l),
(290,575,l),
(73,634,l),
(23,438,l)
);
},
{
closed = 1;
nodes = (
(91,-101,l),
(197,5,l),
(378,-44,l),
(416,102,l),
(209,159,l),
(209,492,l),
(58,492,l),
(58,180,l),
(25,52,l),
(77,38,l),
(-17,-58,l),
(-49,39,l)
);
},
{
closed = 1;
nodes = (
(180,78,l),
(89,103,l),
(94,122,l),
(123,114,l),
(123,481,l),
(143,481,l),
(143,108,l),
(351,51,l),
(346,32,l),
(202,72,l),
(98,-33,l),
(84,-19,l)
);
},
{
closed = 1;
nodes = (
(88,489,l),
(105,557,l),
(286,507,l),
(380,602,l),
(394,588,l),
(308,501,l),
(403,475,l),
(398,456,l),
(369,464,l),
(369,97,l),
(349,97,l),
(349,470,l),
(85,543,l)
);
},
{
closed = 1;
nodes = (
(105,557,l),
(115,596,l),
(95,560,l)
);
}
);
width = 482;
}
);
unicode = 216;
},
{
glyphname = OE;
layers = (
{
anchors = (
{
name = bottom;
pos = (221,0);
},
{
name = center;
pos = (221,350);
},
{
name = ogonek;
pos = (397,10);
},
{
name = top;
pos = (221,700);
},
{
name = topleft;
pos = (20,700);
},
{
name = topright;
pos = (421,700);
}
);
layerId = "C1068CC4-E81B-47E6-9D26-F0E70787A68A";
shapes = (
{
closed = 1;
nodes = (
(84,122,l),
(113,114,l),
(113,481,l),
(133,481,l),
(133,108,l),
(341,51,l),
(336,32,l),
(79,103,l)
);
},
{
closed = 1;
nodes = (
(616,543,l),
(614,523,l),
(309,552,l),
(313,592,l),
(287,574,l)
);
},
{
closed = 1;
nodes = (
(199,439,l),
(273,419,l),
(273,139,l),
(199,159,l)
);
},
{
closed = 1;
nodes = (
(15,490,l),
(48,481,l),
(48,180,l),
(15,52,l),
(368,-44,l),
(384,16,l),
(574,-36,l),
(614,110,l),
(424,162,l),
(424,228,l),
(539,228,l),
(558,379,l),
(424,379,l),
(424,500,l),
(409,477,l),
(657,453,l),
(671,604,l),
(268,642,l),
(262,579,l),
(63,634,l),
(13,438,l)
);
},
{
closed = 1;
nodes = (
(78,489,l),
(95,557,l),
(393,475,l),
(388,456,l),
(359,464,l),
(359,314,l),
(500,314,l),
(497,294,l),
(359,294,l),
(359,109,l),
(549,58,l),
(544,38,l),
(319,99,l),
(324,119,l),
(339,115,l),
(339,470,l),
(75,543,l)
);
},
{
closed = 1;
nodes = (
(95,557,l),
(105,596,l),
(85,560,l)
);
}
);
width = 686;
}
);
unicode = 338;
},
{
glyphname = P;
layers = (
{
layerId = "C1068CC4-E81B-47E6-9D26-F0E70787A68A";
shapes = (
{
closed = 1;
nodes = (
(191,0,l),
(230,146,l),
(197,155,l),
(197,502,l),
(230,626,l),
(54,674,l),
(15,528,l),
(46,520,l),
(46,164,l),
(15,48,l)
);
},
{
closed = 1;
nodes = (
(112,570,l),
(43,589,l),
(68,533,l),
(95,641,l),
(47,609,l),
(202,567,l),
(179,623,l),
(152,515,l),
(197,547,l),
(132,565,l),
(132,104,l),
(201,85,l),
(177,141,l),
(150,33,l),
(196,65,l),
(41,107,l),
(67,51,l),
(94,159,l),
(47,127,l),
(112,109,l)
);
},
{
closed = 1;
nodes = (
(260,587,l),
(264,605,l),
(418,563,l),
(413,544,l),
(341,564,l),
(380,597,l),
(380,302,l),
(360,307,l),
(360,603,l),
(407,546,l)
);
},
{
closed = 1;
nodes = (
(339,225,l),
(238,253,l),
(243,272,l),
(363,239,l),
(399,285,l),
(257,203,l)
);
},
{
closed = 1;
nodes = (
(294,168,l),
(445,256,l),
(445,475,l),
(482,614,l),
(234,682,l),
(195,536,l),
(294,509,l),
(294,325,l),
(213,348,l),
(161,155,l),
(144,210,l)
);
}
);
width = 497;
}
);
unicode = 80;
},
{
glyphname = Thorn;
layers = (
{
layerId = "C1068CC4-E81B-47E6-9D26-F0E70787A68A";
shapes = (
{
closed = 1;
nodes = (
(191,0,l),
(230,146,l),
(197,155,l),
(197,612,l),
(230,736,l),
(54,784,l),
(15,638,l),
(46,630,l),
(46,164,l),
(15,48,l)
);
},
{
closed = 1;
nodes = (
(112,680,l),
(43,699,l),
(68,643,l),
(95,751,l),
(47,719,l),
(202,677,l),
(179,733,l),
(152,625,l),
(197,657,l),
(132,675,l),
(132,104,l),
(201,85,l),
(177,141,l),
(150,33,l),
(196,65,l),
(41,107,l),
(67,51,l),
(94,159,l),
(47,127,l),
(112,109,l)
);
},
{
closed = 1;
nodes = (
(260,527,l),
(264,545,l),
(418,503,l),
(413,484,l),
(341,504,l),
(380,537,l),
(380,302,l),
(360,307,l),
(360,543,l),
(407,486,l)
);
},
{
closed = 1;
nodes = (
(339,225,l),
(238,253,l),
(243,272,l),
(363,239,l),
(399,285,l),
(257,203,l)
);
},
{
closed = 1;
nodes = (
(294,168,l),
(445,256,l),
(445,415,l),
(482,554,l),
(234,622,l),
(195,476,l),
(294,449,l),
(294,325,l),
(213,348,l),
(161,155,l),
(144,210,l)
);
}
);
width = 497;
}
);
unicode = 222;
},
{
glyphname = Q;
layers = (
{
layerId = "C1068CC4-E81B-47E6-9D26-F0E70787A68A";
shapes = (
{
closed = 1;
nodes = (
(302,-33,l),
(381,-55,l),
(376,-74,l),
(297,-52,l)
);
},
{
closed = 1;
nodes = (
(447,-3,l),
(271,45,l),
(232,-101,l),
(408,-149,l)
);
},
{
ref = O;
}
);
width = 462;
}
);
unicode = 81;
},
{
glyphname = R;
layers = (
{
anchors = (
{
name = bottom;
pos = (242,0);
},
{
name = top;
pos = (242,700);
}
);
layerId = "C1068CC4-E81B-47E6-9D26-F0E70787A68A";
shapes = (
{
closed = 1;
nodes = (
(132,459,l),
(132,104,l),
(201,85,l),
(177,141,l),
(150,33,l),
(196,65,l),
(41,107,l),
(68,51,l),
(95,159,l),
(47,127,l),
(112,109,l),
(112,459,l)
);
},
{
closed = 1;
nodes = (
(191,0,l),
(230,146,l),
(197,155,l),
(197,506,l),
(46,506,l),
(46,164,l),
(15,48,l)
);
},
{
closed = 1;
nodes = (
(77,534,l),
(87,644,l),
(63,598,l),
(418,565,l),
(396,620,l),
(386,510,l),
(414,545,l),
(61,578,l)
);
},
{
closed = 1;
nodes = (
(448,676,l),
(478,625,l),
(-3,670,l),
(45,709,l),
(23,470,l),
(-5,519,l),
(465,474,l),
(426,436,l)
);
},
{
closed = 1;
nodes = (
(217,492,l),
(166,278,l),
(322,235,l),
(279,235,l),
(279,142,l),
(254,48,l),
(430,0,l),
(469,146,l),
(430,157,l),
(430,317,l),
(368,334,l),
(430,374,l),
(430,486,l),
(279,486,l),
(279,359,l),
(162,391,l)
);
},
{
closed = 1;
nodes = (
(365,437,l),
(365,369,l),
(345,374,l),
(345,437,l)
);
},
{
closed = 1;
nodes = (
(365,59,l),
(328,116,l),
(440,85,l),
(416,141,l),
(389,33,l),
(435,65,l),
(280,107,l),
(307,51,l),
(334,159,l),
(286,127,l),
(394,97,l),
(345,64,l),
(345,274,l),
(213,310,l),
(221,299,l),
(232,342,l),
(211,332,l),
(397,281,l),
(380,310,l),
(380,254,l),
(403,258,l),
(322,280,l),
(365,314,l)
);
}
);
width = 484;
}
);
unicode = 82;
},
{
glyphname = S;
layers = (
{
anchors = (
{
name = bottom;
pos = (250,0);
},
{
name = top;
pos = (250,700);
}
);
layerId = "C1068CC4-E81B-47E6-9D26-F0E70787A68A";
shapes = (
{
closed = 1;
nodes = (
(450,116,l),
(143,200,l),
(70,63,l),
(310,-2,l)
);
},
{
closed = 1;
nodes = (
(478,602,l),
(238,667,l),
(98,549,l),
(405,465,l)
);
},
{
closed = 1;
nodes = (
(145,526,l),
(95,515,l),
(262,315,l),
(277,366,l),
(194,295,l),
(244,305,l),
(78,505,l),
(63,456,l)
);
},
{
closed = 1;
nodes = (
(353,386,l),
(302,373,l),
(470,174,l),
(471,199,l),
(403,140,l),
(452,164,l),
(285,363,l),
(270,314,l)
);
},
{
closed = 1;
nodes = (
(207,247,l),
(260,291,l),
(425,95,l),
(484,144,l),
(484,260,l),
(336,435,l),
(285,390,l),
(130,576,l),
(15,478,l)
);
},
{
closed = 1;
nodes = (
(185,593,l),
(175,551,l),
(257,622,l),
(205,608,l),
(399,555,l),
(390,537,l)
);
},
{
closed = 1;
nodes = (
(363,72,l),
(373,114,l),
(291,43,l),
(343,57,l),
(149,110,l),
(158,128,l)
);
}
);
width = 499;
}
);
unicode = 83;
},
{
glyphname = T;
layers = (
{
anchors = (
{
name = bottom;
pos = (159,28);
},
{
name = center;
pos = (224,350);
},
{
name = top;
pos = (224,700);
}
);
layerId = "C1068CC4-E81B-47E6-9D26-F0E70787A68A";
shapes = (
{
closed = 1;
nodes = (
(436,652,l),
(466,601,l),
(-15,646,l),
(33,685,l),
(11,446,l),
(-17,495,l),
(453,450,l),
(414,412,l)
);
},
{
closed = 1;
nodes = (
(300,146,l),
(124,194,l),
(85,48,l),
(261,0,l)
);
},
{
closed = 1;
nodes = (
(150,164,l),
(189,174,l),
(267,174,l),
(267,472,l),
(116,472,l),
(116,164,l)
);
},
{
closed = 1;
nodes = (
(377,543,l),
(375,523,l),
(70,552,l),
(74,592,l),
(48,574,l)
);
},
{
closed = 1;
nodes = (
(247,141,l),
(220,33,l),
(266,65,l),
(111,107,l),
(138,51,l),
(165,159,l),
(117,127,l),
(271,85,l)
);
},
{
closed = 1;
nodes = (
(202,424,l),
(202,223,l),
(182,223,l),
(182,424,l)
);
}
);
width = 447;
}
);
unicode = 84;
},
{
glyphname = Tbar;
layers = (
{
anchors = (
{
name = bottom;
pos = (159,28);
},
{
name = center;
pos = (224,350);
},
{
name = top;
pos = (224,700);
}
);
layerId = "C1068CC4-E81B-47E6-9D26-F0E70787A68A";
shapes = (
{
closed = 1;
nodes = (
(436,652,l),
(466,601,l),
(-15,646,l),
(33,685,l),
(11,446,l),
(-17,495,l),
(453,450,l),
(414,412,l)
);
},
{
closed = 1;
nodes = (
(300,146,l),
(124,194,l),
(85,48,l),
(261,0,l)
);
},
{
closed = 1;
nodes = (
(377,543,l),
(375,523,l),
(70,552,l),
(74,592,l),
(48,574,l)
);
},
{
closed = 1;
nodes = (
(247,141,l),
(220,33,l),
(266,65,l),
(111,107,l),
(138,51,l),
(165,159,l),
(117,127,l),
(271,85,l)
);
},
{
closed = 1;
nodes = (
(202,424,l),
(202,223,l),
(182,223,l),
(182,424,l)
);
},
{
closed = 1;
nodes = (
(69,302,l),
(116,294,l),
(116,164,l),
(150,164,l),
(189,174,l),
(267,174,l),
(267,269,l),
(326,259,l),
(334,307,l),
(267,318,l),
(267,472,l),
(116,472,l),
(116,343,l),
(77,350,l)
);
}
);
width = 447;
}
);
unicode = 358;
},
{
glyphname = U;
layers = (
{
anchors = (
{
name = bottom;
pos = (245,0);
},
{
name = ogonek;
pos = (351,52);
},
{
name = top;
pos = (245,700);
},
{
name = topright;
pos = (470,700);
}
);
layerId = "C1068CC4-E81B-47E6-9D26-F0E70787A68A";
shapes = (
{
closed = 1;
nodes = (
(424,160,l),
(424,465,l),
(455,581,l),
(279,629,l),
(240,483,l),
(273,474,l),
(273,45,l),
(436,0,l),
(475,146,l)
);
},
{
closed = 1;
nodes = (
(395,33,l),
(443,66,l),
(338,93,l),
(338,525,l),
(269,544,l),
(293,488,l),
(320,596,l),
(273,564,l),
(428,522,l),
(403,578,l),
(376,470,l),
(423,502,l),
(358,520,l),
(358,110,l),
(447,85,l),
(422,141,l)
);
},
{
closed = 1;
nodes = (
(146,517,l),
(133,568,l),
(133,119,l),
(255,85,l),
(231,141,l),
(204,33,l),
(250,65,l),
(43,122,l),
(67,66,l),
(94,174,l),
(48,142,l),
(113,124,l),
(113,525,l),
(44,544,l),
(67,488,l),
(94,596,l),
(49,564,l),
(151,536,l)
);
},
{
closed = 1;
nodes = (
(199,169,l),
(199,543,l),
(211,586,l),
(54,629,l),
(15,483,l),
(48,474,l),
(48,183,l),
(15,63,l),
(244,0,l),
(284,146,l)
);
}
);
width = 490;
}
);
unicode = 85;
},
{
glyphname = V;
layers = (
{
layerId = "C1068CC4-E81B-47E6-9D26-F0E70787A68A";
shapes = (
{
closed = 1;
nodes = (
(308,517,l),
(389,495,l),
(385,475,l),
(333,489,l),
(413,112,l),
(442,179,l),
(345,122,l),
(395,101,l),
(311,495,l),
(303,497,l)
);
},
{
closed = 1;
nodes = (
(46,520,l),
(46,121,l),
(34,96,l),
(240,0,l),
(429,110,l),
(458,216,l),
(417,407,l),
(453,544,l),
(277,592,l),
(238,446,l),
(291,432,l),
(259,425,l),
(319,145,l),
(300,186,l),
(256,160,l),
(197,187,l),
(197,502,l),
(230,626,l),
(54,674,l),
(15,528,l)
);
},
{
closed = 1;
nodes = (
(85,599,l),
(166,577,l),
(162,557,l),
(132,565,l),
(132,144,l),
(250,89,l),
(280,107,l),
(288,89,l),
(251,67,l),
(112,132,l),
(112,570,l),
(80,579,l)
);
}
);
width = 473;
}
);
unicode = 86;
},
{
glyphname = W;
layers = (
{
anchors = (
{
name = bottom;
pos = (332,0);
},
{
name = top;
pos = (332,700);
}
);
layerId = "C1068CC4-E81B-47E6-9D26-F0E70787A68A";
shapes = (
{
closed = 1;
nodes = (
(385,-39,l),
(401,19,l),
(609,-38,l),
(649,107,l),
(649,445,l),
(602,626,l),
(455,586,l),
(498,426,l),
(498,149,l),
(424,169,l),
(424,543,l),
(436,586,l),
(279,629,l),
(240,483,l),
(273,474,l),
(273,183,l),
(264,151,l),
(199,169,l),
(199,543,l),
(211,586,l),
(54,629,l),
(15,483,l),
(48,474,l),
(48,183,l),
(3,17,l),
(-18,72,l)
);
},
{
closed = 1;
nodes = (
(87,552,l),
(134,539,l),
(134,119,l),
(339,63,l),
(339,523,l),
(307,533,l),
(312,552,l),
(359,539,l),
(359,119,l),
(564,63,l),
(564,427,l),
(531,554,l),
(550,559,l),
(584,429,l),
(584,57,l),
(580,38,l),
(359,99,l),
(359,57,l),
(355,38,l),
(83,113,l),
(88,132,l),
(114,125,l),
(114,523,l),
(82,533,l)
);
}
);
width = 664;
}
);
unicode = 87;
},
{
glyphname = X;
layers = (
{
layerId = "C1068CC4-E81B-47E6-9D26-F0E70787A68A";
shapes = (
{
closed = 1;
nodes = (
(208,0,l),
(328,203,l),
(447,0,l),
(640,51,l),
(599,197,l),
(519,176,l),
(415,353,l),
(516,524,l),
(596,503,l),
(637,649,l),
(444,700,l),
(327,502,l),
(211,700,l),
(18,649,l),
(59,503,l),
(139,524,l),
(240,353,l),
(136,176,l),
(56,197,l),
(15,51,l)
);
},
{
closed = 1;
nodes = (
(85,121,l),
(168,100,l),
(317,353,l),
(171,601,l),
(92,580,l),
(87,600,l),
(160,619,l),
(151,634,l),
(170,639,l),
(328,371,l),
(485,639,l),
(504,634,l),
(495,619,l),
(568,600,l),
(563,580,l),
(484,601,l),
(338,353,l),
(487,100,l),
(570,121,l),
(574,102,l),
(498,82,l),
(504,71,l),
(485,66,l),
(328,334,l),
(170,66,l),
(151,71,l),
(157,82,l),
(81,102,l)
);
}
);
width = 655;
}
);
unicode = 88;
},
{
glyphname = Y;
layers = (
{
anchors = (
{
name = bottom;
pos = (235,-298);
},
{
name = top;
pos = (235,700);
},
{
name = topleft;
pos = (20,700);
}
);
layerId = "C1068CC4-E81B-47E6-9D26-F0E70787A68A";
shapes = (
{
closed = 1;
nodes = (
(146,517,l),
(133,568,l),
(133,119,l),
(255,85,l),
(231,141,l),
(204,33,l),
(250,65,l),
(43,122,l),
(67,66,l),
(94,174,l),
(48,142,l),
(113,124,l),
(113,525,l),
(44,544,l),
(67,488,l),
(94,596,l),
(49,564,l),
(151,536,l)
);
},
{
closed = 1;
nodes = (
(199,169,l),
(199,543,l),
(211,586,l),
(54,629,l),
(15,483,l),
(48,474,l),
(48,183,l),
(15,63,l),
(244,0,l),
(284,146,l)
);
},
{
closed = 1;
nodes = (
(386,-245,l),
(424,-97,l),
(424,466,l),
(455,582,l),
(279,630,l),
(240,484,l),
(273,475,l),
(273,-57,l),
(111,-15,l),
(64,-199,l),
(11,-143,l)
);
},
{
closed = 1;
nodes = (
(142,-90,l),
(341,-145,l),
(338,525,l),
(269,544,l),
(293,488,l),
(320,596,l),
(273,564,l),
(428,522,l),
(403,578,l),
(376,470,l),
(423,502,l),
(358,520,l),
(361,-150,l),
(356,-169,l),
(137,-109,l)
);
}
);
width = 470;
}
);
unicode = 89;
},
{
glyphname = Z;
layers = (
{
anchors = (
{
name = bottom;
pos = (252,0);
},
{
name = center;
pos = (252,350);
},
{
name = top;
pos = (252,700);
}
);
layerId = "C1068CC4-E81B-47E6-9D26-F0E70787A68A";
shapes = (
{
closed = 1;
nodes = (
(56,678,l),
(54,633,l),
(15,489,l),
(162,449,l),
(170,477,l),
(449,460,l),
(457,611,l),
(10,638,l)
);
},
{
closed = 1;
nodes = (
(108,579,l),
(127,574,l),
(125,565,l),
(450,545,l),
(409,593,l),
(403,483,l),
(448,525,l),
(119,546,l),
(110,513,l),
(91,518,l)
);
},
{
closed = 1;
nodes = (
(395,48,l),
(376,53,l),
(378,62,l),
(53,82,l),
(82,34,l),
(88,144,l),
(55,102,l),
(384,81,l),
(393,114,l),
(412,109,l)
);
},
{
closed = 1;
nodes = (
(449,-8,l),
(488,138,l),
(341,178,l),
(334,151,l),
(220,158,l),
(420,438,l),
(296,525,l),
(42,168,l),
(34,18,l)
);
},
{
closed = 1;
nodes = (
(80,198,l),
(106,145,l),
(330,460,l),
(273,480,l),
(364,416,l),
(350,455,l),
(122,133,l),
(168,132,l)
);
}
);
width = 503;
}
);
unicode = 90;
},
{
glyphname = a;
layers = (
{
anchors = (
{
name = bottom;
pos = (224,0);
},
{
name = ogonek;
pos = (295,52);
},
{
name = top;
pos = (222,590);
}
);
layerId = "C1068CC4-E81B-47E6-9D26-F0E70787A68A";
shapes = (
{
closed = 1;
nodes = (
(426,143,l),
(374,157,l),
(374,290,l),
(394,285,l),
(432,432,l),
(135,510,l),
(98,364,l),
(223,331,l),
(223,150,l),
(196,49,l),
(387,-3,l)
);
},
{
closed = 1;
nodes = (
(245,143,l),
(177,162,l),
(177,392,l),
(26,392,l),
(26,90,l),
(15,49,l),
(206,-3,l)
);
},
{
closed = 1;
nodes = (
(188,84,l),
(190,127,l),
(163,20,l),
(191,63,l),
(55,98,l),
(67,52,l),
(86,126,l),
(60,119,l),
(92,110,l),
(92,356,l),
(112,356,l),
(112,105,l)
);
},
{
closed = 1;
nodes = (
(130,419,l),
(150,370,l),
(177,477,l),
(134,438,l),
(389,367,l),
(377,416,l),
(350,309,l),
(385,348,l),
(309,369,l),
(309,105,l),
(383,84,l),
(372,131,l),
(345,24,l),
(377,66,l),
(218,107,l),
(249,52,l),
(276,160,l),
(253,120,l),
(289,110,l),
(289,375,l)
);
}
);
width = 447;
}
);
unicode = 97;
},
{
glyphname = ae;
layers = (
{
anchors = (
{
name = bottom;
pos = (224,0);
},
{
name = ogonek;
pos = (295,52);
},
{
name = top;
pos = (222,590);
}
);
layerId = "C1068CC4-E81B-47E6-9D26-F0E70787A68A";
shapes = (
{
closed = 1;
nodes = (
(206,-3,l),
(245,143,l),
(177,162,l),
(177,392,l),
(26,392,l),
(26,90,l),
(15,49,l)
);
},
{
closed = 1;
nodes = (
(180,86,l),
(175,67,l),
(55,98,l),
(67,52,l),
(86,126,l),
(60,119,l),
(92,110,l),
(92,356,l),
(112,356,l),
(112,105,l)
);
},
{
closed = 1;
nodes = (
(260,383,l),
(130,419,l),
(150,370,l),
(177,477,l),
(134,438,l),
(389,367,l),
(276,446,l)
);
},
{
closed = 1;
nodes = (
(284,162,l),
(255,120,l),
(290,110,l),
(290,356,l),
(310,356,l),
(310,208,l),
(450,246,l),
(428,260,l),
(448,181,l),
(455,227,l),
(310,187,l),
(310,105,l),
(487,56,l),
(483,101,l),
(451,-5,l),
(480,37,l),
(249,100,l),
(257,54,l)
);
},
{
closed = 1;
nodes = (
(501,315,l),
(355,440,l),
(347,399,l),
(418,482,l),
(368,455,l),
(513,331,l),
(524,376,l),
(453,293,l)
);
},
{
closed = 1;
nodes = (
(223,331,l),
(223,150,l),
(196,56,l),
(496,-28,l),
(535,118,l),
(379,160,l),
(494,192,l),
(478,250,l),
(575,365,l),
(389,523,l),
(334,458,l),
(135,510,l),
(98,364,l)
);
},
{
closed = 1;
nodes = (
(374,344,l),
(368,342,l),
(433,287,l),
(374,271,l)
);
}
);
width = 590;
}
);
unicode = 230;
},
{
glyphname = b;
layers = (
{
layerId = "C1068CC4-E81B-47E6-9D26-F0E70787A68A";
shapes = (
{
closed = 1;
nodes = (
(91,131,l),
(108,168,l),
(90,166,l),
(112,155,l),
(112,572,l),
(51,589,l),
(66,534,l),
(95,638,l),
(56,607,l),
(194,569,l),
(179,625,l),
(152,518,l),
(189,550,l),
(132,566,l),
(132,145,l),
(304,63,l),
(278,84,l),
(226,54,l),
(279,55,l),
(85,145,l)
);
},
{
closed = 1;
nodes = (
(46,520,l),
(46,142,l),
(25,96,l),
(230,0,l),
(388,92,l),
(197,183,l),
(197,502,l),
(230,626,l),
(54,674,l),
(15,528,l)
);
},
{
closed = 1;
nodes = (
(285,257,l),
(328,57,l),
(419,110,l),
(448,216,l),
(416,362,l),
(251,440,l),
(188,303,l)
);
},
{
closed = 1;
nodes = (
(235,345,l),
(239,299,l),
(283,399,l),
(245,362,l),
(354,312,l),
(396,123,l),
(428,171,l),
(332,115,l),
(379,111,l),
(337,298,l)
);
}
);
width = 463;
}
);
unicode = 98;
},
{
glyphname = c;
layers = (
{
anchors = (
{
name = bottom;
pos = (167,0);
},
{
name = top;
pos = (197,550);
}
);
layerId = "C1068CC4-E81B-47E6-9D26-F0E70787A68A";
shapes = (
{
closed = 1;
nodes = (
(374,441,l),
(77,519,l),
(40,373,l),
(336,294,l)
);
},
{
closed = 1;
nodes = (
(60,438,l),
(93,382,l),
(120,489,l),
(65,457,l),
(349,378,l),
(322,434,l),
(295,327,l),
(344,359,l)
);
},
{
closed = 1;
nodes = (
(234,-11,l),
(379,72,l),
(303,202,l),
(214,151,l),
(177,161,l),
(177,352,l),
(26,352,l),
(26,90,l),
(15,49,l)
);
},
{
closed = 1;
nodes = (
(82,116,l),
(92,113,l),
(92,315,l),
(112,315,l),
(112,108,l),
(215,81,l),
(291,125,l),
(302,107,l),
(216,58,l),
(77,96,l)
);
}
);
width = 394;
}
);
unicode = 99;
},
{
glyphname = d;
layers = (
{
anchors = (
{
name = bottom;
pos = (205,-70);
},
{
name = center;
pos = (205,250);
},
{
name = top;
pos = (167,700);
},
{
name = topright;
pos = (390,500);
}
);
layerId = "C1068CC4-E81B-47E6-9D26-F0E70787A68A";
shapes = (
{
closed = 1;
nodes = (
(208,7,l),
(236,49,l),
(51,100,l),
(66,52,l),
(84,125,l),
(58,119,l),
(92,110,l),
(92,343,l),
(112,343,l),
(112,105,l),
(246,68,l),
(235,115,l)
);
},
{
closed = 1;
nodes = (
(252,-14,l),
(290,133,l),
(176,163,l),
(176,392,l),
(25,392,l),
(25,88,l),
(15,50,l)
);
},
{
closed = 1;
nodes = (
(220,619,l),
(161,621,l),
(331,201,l),
(331,134,l),
(311,134,l),
(311,195,l),
(142,613,l),
(118,577,l)
);
},
{
closed = 1;
nodes = (
(244,188,l),
(244,86,l),
(395,86,l),
(395,218,l),
(213,667,l),
(73,610,l)
);
}
);
width = 410;
}
);
unicode = 100;
},
{
glyphname = dcroat;
layers = (
{
anchors = (
{
name = bottom;
pos = (205,-70);
},
{
name = center;
pos = (205,250);
},
{
name = top;
pos = (167,700);
},
{
name = topright;
pos = (390,500);
}
);
layerId = "C1068CC4-E81B-47E6-9D26-F0E70787A68A";
shapes = (
{
closed = 1;
nodes = (
(208,7,l),
(236,49,l),
(51,100,l),
(66,52,l),
(84,125,l),
(58,119,l),
(92,110,l),
(92,343,l),
(112,343,l),
(112,105,l),
(246,68,l),
(235,115,l)
);
},
{
closed = 1;
nodes = (
(252,-14,l),
(290,133,l),
(176,163,l),
(176,392,l),
(25,392,l),
(25,88,l),
(15,50,l)
);
},
{
closed = 1;
nodes = (
(23,633,l),
(75,441,l),
(135,458,l),
(244,188,l),
(244,86,l),
(395,86,l),
(395,218,l),
(281,498,l),
(307,505,l),
(279,609,l),
(241,599,l),
(213,667,l),
(73,610,l),
(94,558,l),
(2,533,l)
);
},
{
closed = 1;
nodes = (
(174,534,l),
(142,613,l),
(118,577,l),
(220,619,l),
(161,621,l),
(194,540,l),
(270,561,l),
(233,600,l),
(260,493,l),
(273,542,l),
(201,522,l),
(331,201,l),
(331,134,l),
(311,134,l),
(311,195,l),
(181,516,l),
(108,496,l),
(103,515,l)
);
}
);
width = 410;
}
);
unicode = 273;
},
{
glyphname = e;
layers = (
{
anchors = (
{
name = bottom;
pos = (200,0);
},
{
name = ogonek;
pos = (149,52);
},
{
name = top;
pos = (180,580);
}
);
layerId = "C1068CC4-E81B-47E6-9D26-F0E70787A68A";
shapes = (
{
closed = 1;
nodes = (
(384,365,l),
(198,523,l),
(101,407,l),
(287,249,l)
);
},
{
closed = 1;
nodes = (
(305,-28,l),
(344,118,l),
(188,160,l),
(303,192,l),
(275,296,l),
(183,271,l),
(183,392,l),
(32,392,l),
(32,115,l),
(15,51,l)
);
},
{
closed = 1;
nodes = (
(93,162,l),
(64,120,l),
(99,110,l),
(99,344,l),
(119,344,l),
(119,208,l),
(259,246,l),
(237,260,l),
(257,181,l),
(264,227,l),
(119,187,l),
(119,105,l),
(296,56,l),
(292,101,l),
(260,-5,l),
(289,37,l),
(58,100,l),
(66,54,l)
);
},
{
closed = 1;
nodes = (
(310,315,l),
(164,440,l),
(156,399,l),
(227,482,l),
(177,455,l),
(322,331,l),
(333,376,l),
(262,293,l)
);
}
);
width = 399;
}
);
unicode = 101;
},
{
glyphname = f;
layers = (
{
layerId = "C1068CC4-E81B-47E6-9D26-F0E70787A68A";
shapes = (
{
closed = 1;
nodes = (
(247,469,l),
(273,513,l),
(41,535,l),
(63,488,l),
(72,572,l),
(48,554,l),
(271,533,l),
(257,579,l)
);
},
{
closed = 1;
nodes = (
(100,415,l),
(120,415,l),
(120,305,l),
(203,305,l),
(200,285,l),
(120,285,l),
(120,69,l),
(100,74,l)
);
},
{
closed = 1;
nodes = (
(118,462,l),
(34,462,l),
(34,44,l),
(185,2,l),
(185,241,l),
(240,241,l),
(259,350,l),
(185,350,l),
(185,456,l),
(294,445,l),
(308,596,l),
(29,622,l),
(15,472,l)
);
}
);
width = 323;
}
);
unicode = 102;
},
{
glyphname = g;
layers = (
{
anchors = (
{
name = bottom;
pos = (222,-260);
},
{
name = top;
pos = (222,580);
}
);
layerId = "C1068CC4-E81B-47E6-9D26-F0E70787A68A";
shapes = (
{
closed = 1;
nodes = (
(198,81,l),
(190,127,l),
(163,20,l),
(190,64,l),
(46,101,l),
(67,52,l),
(86,129,l),
(54,121,l),
(92,110,l),
(92,344,l),
(112,344,l),
(112,105,l)
);
},
{
closed = 1;
nodes = (
(302,-196,l),
(329,-155,l),
(99,-92,l),
(109,-138,l),
(136,-31,l),
(105,-73,l),
(289,-124,l),
(289,375,l),
(136,417,l),
(147,368,l),
(174,475,l),
(142,436,l),
(385,369,l),
(378,416,l),
(351,309,l),
(372,352,l),
(309,369,l),
(309,-129,l),
(331,-136,l),
(329,-89,l)
);
},
{
closed = 1;
nodes = (
(206,-3,l),
(245,143,l),
(120,177,l),
(177,177,l),
(177,392,l),
(26,392,l),
(26,177,l),
(49,177,l),
(15,49,l)
);
},
{
closed = 1;
nodes = (
(334,-223,l),
(374,-77,l),
(374,290,l),
(394,285,l),
(432,432,l),
(135,510,l),
(98,364,l),
(223,331,l),
(223,-35,l),
(96,0,l),
(44,-191,l),
(36,-141,l)
);
}
);
width = 447;
}
);
unicode = 103;
},
{
glyphname = h;
layers = (
{
layerId = "C1068CC4-E81B-47E6-9D26-F0E70787A68A";
shapes = (
{
closed = 1;
nodes = (
(206,-3,l),
(245,143,l),
(220,150,l),
(220,640,l),
(69,579,l),
(69,191,l),
(54,195,l),
(15,49,l)
);
},
{
closed = 1;
nodes = (
(94,163,l),
(44,131,l),
(133,106,l),
(133,553,l),
(153,561,l),
(153,101,l),
(222,82,l),
(194,138,l),
(167,30,l),
(217,62,l),
(39,111,l),
(67,55,l)
);
},
{
closed = 1;
nodes = (
(272,335,l),
(272,0,l),
(423,61,l),
(423,390,l),
(438,446,l),
(240,500,l),
(201,354,l)
);
},
{
closed = 1;
nodes = (
(280,468,l),
(230,436,l),
(415,385,l),
(386,441,l),
(359,333,l),
(411,367,l),
(358,379,l),
(358,86,l),
(338,78,l),
(338,385,l),
(225,416,l),
(253,360,l)
);
}
);
width = 446;
}
);
unicode = 104;
},
{
glyphname = hbar;
layers = (
{
layerId = "C1068CC4-E81B-47E6-9D26-F0E70787A68A";
shapes = (
{
closed = 1;
nodes = (
(272,335,l),
(272,0,l),
(423,61,l),
(423,390,l),
(438,446,l),
(240,500,l),
(201,354,l)
);
},
{
closed = 1;
nodes = (
(280,468,l),
(230,436,l),
(415,385,l),
(386,441,l),
(359,333,l),
(411,367,l),
(358,379,l),
(358,86,l),
(338,78,l),
(338,385,l),
(225,416,l),
(253,360,l)
);
},
{
closed = 1;
nodes = (
(-3,693,l),
(29,497,l),
(69,503,l),
(69,191,l),
(54,195,l),
(15,49,l),
(206,-3,l),
(245,143,l),
(220,150,l),
(220,529,l),
(295,541,l),
(278,648,l),
(220,638,l),
(220,700,l),
(69,639,l),
(69,613,l),
(-34,596,l)
);
},
{
closed = 1;
nodes = (
(67,55,l),
(83,120,l),
(133,106,l),
(133,563,l),
(69,553,l),
(66,573,l),
(133,584,l),
(133,613,l),
(153,621,l),
(153,587,l),
(237,601,l),
(240,581,l),
(153,567,l),
(153,101,l),
(183,93,l),
(178,73,l),
(39,111,l)
);
}
);
width = 453;
}
);
unicode = 295;
},
{
glyphname = idotless;
layers = (
{
anchors = (
{
name = bottom;
pos = (123,-50);
},
{
name = ogonek;
pos = (101,52);
},
{
name = top;
pos = (117,500);
}
);
layerId = "C1068CC4-E81B-47E6-9D26-F0E70787A68A";
shapes = (
{
closed = 1;
nodes = (
(191,0,l),
(230,146,l),
(197,155,l),
(197,312,l),
(230,436,l),
(54,484,l),
(15,338,l),
(46,330,l),
(46,164,l),
(15,48,l)
);
},
{
closed = 1;
nodes = (
(112,380,l),
(43,399,l),
(67,343,l),
(94,451,l),
(47,419,l),
(202,377,l),
(177,433,l),
(150,325,l),
(197,357,l),
(132,375,l),
(132,104,l),
(201,85,l),
(177,141,l),
(150,33,l),
(197,65,l),
(42,107,l),
(66,51,l),
(93,159,l),
(47,127,l),
(112,109,l)
);
}
);
width = 245;
}
);
unicode = 305;
},
{
glyphname = jdotless;
layers = (
{
anchors = (
{
name = bottom;
pos = (123,-200);
},
{
name = top;
pos = (117,500);
}
);
layerId = "C1068CC4-E81B-47E6-9D26-F0E70787A68A";
shapes = (
{
closed = 1;
nodes = (
(112,-96,l),
(112,380,l),
(43,399,l),
(67,343,l),
(94,451,l),
(47,419,l),
(202,377,l),
(178,433,l),
(151,325,l),
(197,357,l),
(132,375,l),
(132,-91,l)
);
},
{
closed = 1;
nodes = (
(46,330,l),
(46,-161,l),
(197,-124,l),
(197,312,l),
(230,436,l),
(54,484,l),
(15,338,l)
);
}
);
width = 245;
}
);
unicode = 567;
},
{
glyphname = k;
layers = (
{
anchors = (
{
name = bottom;
pos = (208,0);
},
{
name = top;
pos = (208,700);
}
);
layerId = "C1068CC4-E81B-47E6-9D26-F0E70787A68A";
shapes = (
{
closed = 1;
nodes = (
(206,350,l),
(335,274,l),
(335,86,l),
(315,78,l),
(315,263,l),
(196,333,l)
);
},
{
closed = 1;
nodes = (
(112,554,l),
(132,562,l),
(132,104,l),
(201,85,l),
(177,141,l),
(150,33,l),
(196,65,l),
(41,107,l),
(66,51,l),
(93,159,l),
(47,127,l),
(112,109,l)
);
},
{
closed = 1;
nodes = (
(239,396,l),
(322,425,l),
(229,446,l),
(239,419,l),
(382,503,l),
(355,519,l),
(355,421,l),
(397,489,l)
);
},
{
closed = 1;
nodes = (
(191,0,l),
(230,146,l),
(197,155,l),
(197,256,l),
(249,226,l),
(249,0,l),
(400,61,l),
(400,312,l),
(268,389,l),
(332,375,l),
(400,415,l),
(400,590,l),
(197,470,l),
(197,640,l),
(46,579,l),
(46,164,l),
(15,48,l)
);
}
);
width = 415;
}
);
unicode = 107;
},
{
glyphname = l;
layers = (
{
anchors = (
{
name = bottom;
pos = (118,0);
},
{
name = center;
pos = (118,400);
},
{
name = top;
pos = (118,700);
},
{
name = topright;
pos = (215,800);
}
);
layerId = "C1068CC4-E81B-47E6-9D26-F0E70787A68A";
shapes = (
{
closed = 1;
nodes = (
(126,105,l),
(197,85,l),
(172,141,l),
(145,33,l),
(192,65,l),
(37,107,l),
(61,51,l),
(88,159,l),
(43,128,l),
(106,109,l),
(106,588,l),
(126,593,l)
);
},
{
closed = 1;
nodes = (
(186,0,l),
(225,146,l),
(192,155,l),
(192,659,l),
(41,622,l),
(41,164,l),
(10,48,l)
);
}
);
width = 235;
}
);
unicode = 108;
},
{
glyphname = lslash;
layers = (
{
anchors = (
{
name = bottom;
pos = (151,0);
},
{
name = center;
pos = (151,400);
},
{
name = top;
pos = (151,700);
},
{
name = topright;
pos = (248,800);
}
);
layerId = "C1068CC4-E81B-47E6-9D26-F0E70787A68A";
shapes = (
{
closed = 1;
nodes = (
(0,510,l),
(32,314,l),
(74,321,l),
(74,164,l),
(43,48,l),
(219,0,l),
(258,146,l),
(225,155,l),
(225,346,l),
(298,358,l),
(281,465,l),
(225,455,l),
(225,659,l),
(74,622,l),
(74,430,l),
(-31,413,l)
);
},
{
closed = 1;
nodes = (
(139,397,l),
(139,588,l),
(159,593,l),
(159,400,l),
(247,415,l),
(250,395,l),
(159,380,l),
(159,105,l),
(194,95,l),
(188,75,l),
(106,97,l),
(111,118,l),
(139,109,l),
(139,377,l),
(66,365,l),
(59,414,l),
(41,381,l)
);
}
);
width = 313;
}
);
unicode = 322;
},
{
glyphname = m;
layers = (
{
layerId = "C1068CC4-E81B-47E6-9D26-F0E70787A68A";
shapes = (
{
closed = 1;
nodes = (
(191,0,l),
(230,146,l),
(197,155,l),
(197,312,l),
(230,436,l),
(54,484,l),
(15,338,l),
(46,330,l),
(46,164,l),
(15,48,l)
);
},
{
closed = 1;
nodes = (
(112,380,l),
(43,399,l),
(67,343,l),
(94,451,l),
(48,419,l),
(203,377,l),
(178,433,l),
(151,325,l),
(197,357,l),
(132,375,l),
(132,104,l),
(201,85,l),
(178,141,l),
(151,33,l),
(196,65,l),
(41,107,l),
(66,51,l),
(93,159,l),
(47,127,l),
(112,109,l)
);
},
{
closed = 1;
nodes = (
(406,0,l),
(445,146,l),
(412,155,l),
(412,316,l),
(445,440,l),
(199,507,l),
(240,550,l),
(177,318,l),
(158,360,l),
(261,334,l),
(261,164,l),
(230,48,l)
);
},
{
closed = 1;
nodes = (
(327,384,l),
(231,410,l),
(240,366,l),
(267,474,l),
(240,429,l),
(417,381,l),
(393,437,l),
(366,329,l),
(412,361,l),
(347,379,l),
(347,104,l),
(416,85,l),
(392,141,l),
(365,33,l),
(411,65,l),
(256,107,l),
(282,51,l),
(309,159,l),
(262,127,l),
(327,109,l)
);
},
{
closed = 1;
nodes = (
(621,0,l),
(660,146,l),
(627,155,l),
(627,316,l),
(660,440,l),
(414,507,l),
(455,550,l),
(392,318,l),
(373,360,l),
(476,334,l),
(476,164,l),
(445,48,l)
);
},
{
closed = 1;
nodes = (
(542,384,l),
(446,410,l),
(455,366,l),
(482,474,l),
(455,429,l),
(632,381,l),
(608,437,l),
(581,329,l),
(627,361,l),
(562,379,l),
(562,104,l),
(631,85,l),
(607,141,l),
(580,33,l),
(626,65,l),
(471,107,l),
(497,51,l),
(524,159,l),
(477,127,l),
(542,109,l)
);
}
);
width = 675;
}
);
unicode = 109;
},
{
glyphname = n;
layers = (
{
anchors = (
{
name = bottom;
pos = (230,0);
},
{
name = top;
pos = (230,550);
}
);
layerId = "C1068CC4-E81B-47E6-9D26-F0E70787A68A";
shapes = (
{
closed = 1;
nodes = (
(191,0,l),
(230,146,l),
(197,155,l),
(197,312,l),
(230,436,l),
(54,484,l),
(15,338,l),
(46,330,l),
(46,164,l),
(15,48,l)
);
},
{
closed = 1;
nodes = (
(112,380,l),
(43,399,l),
(67,343,l),
(94,451,l),
(48,419,l),
(203,377,l),
(178,433,l),
(151,325,l),
(197,357,l),
(132,375,l),
(132,104,l),
(201,85,l),
(178,141,l),
(151,33,l),
(196,65,l),
(41,107,l),
(66,51,l),
(93,159,l),
(47,127,l),
(112,109,l)
);
},
{
closed = 1;
nodes = (
(406,0,l),
(445,146,l),
(412,155,l),
(412,316,l),
(445,440,l),
(199,507,l),
(240,550,l),
(177,318,l),
(158,360,l),
(261,334,l),
(261,164,l),
(230,48,l)
);
},
{
closed = 1;
nodes = (
(327,384,l),
(231,410,l),
(240,366,l),
(267,474,l),
(240,429,l),
(417,381,l),
(393,437,l),
(366,329,l),
(412,361,l),
(347,379,l),
(347,104,l),
(416,85,l),
(392,141,l),
(365,33,l),
(411,65,l),
(256,107,l),
(282,51,l),
(309,159,l),
(262,127,l),
(327,109,l)
);
}
);
width = 460;
}
);
unicode = 110;
},
{
glyphname = eng;
layers = (
{
anchors = (
{
name = bottom;
pos = (230,0);
},
{
name = top;
pos = (230,550);
}
);
layerId = "C1068CC4-E81B-47E6-9D26-F0E70787A68A";
shapes = (
{
closed = 1;
nodes = (
(191,0,l),
(230,146,l),
(197,155,l),
(197,312,l),
(230,436,l),
(54,484,l),
(15,338,l),
(46,330,l),
(46,164,l),
(15,48,l)
);
},
{
closed = 1;
nodes = (
(112,380,l),
(43,399,l),
(67,343,l),
(94,451,l),
(48,419,l),
(203,377,l),
(178,433,l),
(151,325,l),
(197,357,l),
(132,375,l),
(132,104,l),
(201,85,l),
(178,141,l),
(151,33,l),
(196,65,l),
(41,107,l),
(66,51,l),
(93,159,l),
(47,127,l),
(112,109,l)
);
},
{
closed = 1;
nodes = (
(261,334,l),
(261,32,l),
(234,39,l),
(194,-107,l),
(389,-160,l),
(412,-76,l),
(412,316,l),
(445,440,l),
(226,500,l),
(177,318,l),
(158,360,l)
);
},
{
closed = 1;
nodes = (
(359,-84,l),
(259,-56,l),
(264,-37,l),
(327,-55,l),
(327,384,l),
(250,405,l),
(255,425,l),
(417,381,l),
(393,437,l),
(366,329,l),
(412,361,l),
(347,379,l),
(347,-60,l),
(364,-65,l)
);
}
);
width = 460;
}
);
unicode = 331;
},
{
glyphname = o;
layers = (
{
anchors = (
{
name = bottom;
pos = (212,0);
},
{
name = center;
pos = (212,250);
},
{
name = ogonek;
pos = (381,10);
},
{
name = top;
pos = (242,580);
},
{
name = topright;
pos = (403,500);
}
);
layerId = "C1068CC4-E81B-47E6-9D26-F0E70787A68A";
shapes = (
{
closed = 1;
nodes = (
(275,-22,l),
(242,-48,l),
(305,184,l),
(305,126,l),
(176,162,l),
(176,392,l),
(25,392,l),
(25,90,l),
(14,49,l)
);
},
{
closed = 1;
nodes = (
(247,67,l),
(235,114,l),
(208,7,l),
(242,50,l),
(58,97,l),
(65,52,l),
(84,128,l),
(62,118,l),
(91,110,l),
(91,343,l),
(111,343,l),
(111,105,l)
);
},
{
closed = 1;
nodes = (
(234,335,l),
(234,86,l),
(385,86,l),
(385,360,l),
(408,444,l),
(107,527,l),
(59,348,l),
(-6,401,l)
);
},
{
closed = 1;
nodes = (
(149,498,l),
(112,458,l),
(361,388,l),
(356,434,l),
(329,327,l),
(356,369,l),
(320,379,l),
(320,136,l),
(300,136,l),
(300,385,l),
(110,438,l),
(122,391,l)
);
}
);
width = 423;
}
);
unicode = 111;
},
{
glyphname = oslash;
layers = (
{
anchors = (
{
name = bottom;
pos = (214,0);
},
{
name = center;
pos = (214,250);
},
{
name = ogonek;
pos = (383,10);
},
{
name = top;
pos = (244,580);
},
{
name = topright;
pos = (405,500);
}
);
layerId = "C1068CC4-E81B-47E6-9D26-F0E70787A68A";
shapes = (
{
closed = 1;
nodes = (
(92,-85,l),
(180,4,l),
(253,-15,l),
(292,130,l),
(178,162,l),
(178,392,l),
(27,392,l),
(27,90,l),
(16,49,l),
(61,37,l),
(-14,-38,l),
(-26,32,l)
);
},
{
closed = 1;
nodes = (
(67,52,l),
(82,113,l),
(93,110,l),
(93,343,l),
(113,343,l),
(113,105,l),
(227,73,l),
(222,56,l),
(179,68,l),
(87,-25,l),
(73,-11,l),
(188,104,l),
(179,68,l),
(62,101,l)
);
},
{
closed = 1;
nodes = (
(236,335,l),
(236,86,l),
(387,86,l),
(387,360,l),
(410,444,l),
(361,458,l),
(409,506,l),
(332,582,l),
(242,490,l),
(109,527,l),
(61,348,l),
(-4,401,l)
);
},
{
closed = 1;
nodes = (
(139,451,l),
(238,423,l),
(337,522,l),
(351,508,l),
(260,417,l),
(363,388,l),
(358,434,l),
(331,327,l),
(358,369,l),
(322,379,l),
(322,136,l),
(302,136,l),
(302,385,l),
(134,432,l)
);
}
);
width = 425;
}
);
unicode = 248;
},
{
glyphname = oe;
layers = (
{
anchors = (
{
name = bottom;
pos = (212,0);
},
{
name = center;
pos = (212,250);
},
{
name = ogonek;
pos = (381,10);
},
{
name = top;
pos = (242,580);
},
{
name = topright;
pos = (403,500);
}
);
layerId = "C1068CC4-E81B-47E6-9D26-F0E70787A68A";
shapes = (
{
closed = 1;
nodes = (
(247,67,l),
(237,114,l),
(208,7,l),
(242,50,l),
(58,97,l),
(65,52,l),
(84,128,l),
(62,118,l),
(91,110,l),
(91,344,l),
(111,344,l),
(111,105,l)
);
},
{
closed = 1;
nodes = (
(149,498,l),
(112,458,l),
(295,406,l),
(269,466,l),
(242,359,l),
(292,387,l),
(110,438,l),
(122,391,l)
);
},
{
closed = 1;
nodes = (
(296,162,l),
(265,120,l),
(300,110,l),
(300,344,l),
(320,344,l),
(320,208,l),
(460,246,l),
(438,260,l),
(458,181,l),
(465,227,l),
(320,187,l),
(320,105,l),
(497,56,l),
(494,119,l),
(461,-5,l),
(490,37,l),
(259,100,l),
(267,54,l)
);
},
{
closed = 1;
nodes = (
(511,315,l),
(365,440,l),
(357,399,l),
(428,482,l),
(378,455,l),
(523,331,l),
(534,376,l),
(463,293,l)
);
},
{
closed = 1;
nodes = (
(251,-15,l),
(265,38,l),
(506,-28,l),
(545,118,l),
(389,160,l),
(504,192,l),
(476,296,l),
(384,271,l),
(384,364,l),
(233,364,l),
(233,146,l),
(176,162,l),
(176,392,l),
(25,392,l),
(25,90,l),
(14,49,l)
);
},
{
closed = 1;
nodes = (
(234,335,l),
(362,356,l),
(488,249,l),
(585,365,l),
(399,523,l),
(347,461,l),
(107,527,l),
(68,381,l)
);
}
);
width = 600;
}
);
unicode = 339;
},
{
glyphname = p;
layers = (
{
layerId = "C1068CC4-E81B-47E6-9D26-F0E70787A68A";
shapes = (
{
closed = 1;
nodes = (
(112,-130,l),
(112,396,l),
(43,415,l),
(67,359,l),
(94,467,l),
(47,435,l),
(202,393,l),
(178,449,l),
(151,341,l),
(197,373,l),
(132,391,l),
(132,-125,l)
);
},
{
closed = 1;
nodes = (
(46,346,l),
(46,-195,l),
(197,-158,l),
(197,328,l),
(230,452,l),
(54,500,l),
(15,354,l)
);
},
{
closed = 1;
nodes = (
(268,471,l),
(240,428,l),
(398,384,l),
(393,430,l),
(366,323,l),
(393,365,l),
(314,387,l),
(343,420,l),
(343,126,l),
(323,114,l),
(323,426,l),
(380,369,l),
(236,409,l),
(241,364,l)
);
},
{
closed = 1;
nodes = (
(248,151,l),
(203,124,l),
(320,92,l),
(364,139,l),
(243,66,l),
(298,77,l),
(208,102,l),
(220,59,l)
);
},
{
closed = 1;
nodes = (
(257,20,l),
(408,108,l),
(408,301,l),
(445,440,l),
(226,500,l),
(187,354,l),
(257,335,l),
(257,177,l),
(208,191,l),
(158,7,l),
(107,62,l)
);
}
);
width = 460;
}
);
unicode = 112;
},
{
glyphname = thorn;
layers = (
{
layerId = "C1068CC4-E81B-47E6-9D26-F0E70787A68A";
shapes = (
{
closed = 1;
nodes = (
(112,-130,l),
(112,586,l),
(43,605,l),
(67,549,l),
(94,657,l),
(47,625,l),
(202,583,l),
(178,639,l),
(151,531,l),
(197,563,l),
(132,581,l),
(132,-125,l)
);
},
{
closed = 1;
nodes = (
(46,536,l),
(46,-195,l),
(197,-158,l),
(197,518,l),
(230,642,l),
(54,690,l),
(15,544,l)
);
},
{
closed = 1;
nodes = (
(268,471,l),
(240,428,l),
(398,384,l),
(393,430,l),
(366,323,l),
(393,365,l),
(314,387,l),
(343,420,l),
(343,126,l),
(323,114,l),
(323,426,l),
(380,369,l),
(236,409,l),
(241,364,l)
);
},
{
closed = 1;
nodes = (
(248,151,l),
(203,124,l),
(320,92,l),
(364,139,l),
(243,66,l),
(298,77,l),
(208,102,l),
(220,59,l)
);
},
{
closed = 1;
nodes = (
(257,20,l),
(408,108,l),
(408,301,l),
(445,440,l),
(226,500,l),
(187,354,l),
(257,335,l),
(257,177,l),
(208,191,l),
(158,7,l),
(107,62,l)
);
}
);
width = 460;
}
);
unicode = 254;
},
{
glyphname = q;
layers = (
{
layerId = "C1068CC4-E81B-47E6-9D26-F0E70787A68A";
shapes = (
{
closed = 1;
nodes = (
(191,83,l),
(185,127,l),
(158,20,l),
(185,65,l),
(59,97,l),
(66,52,l),
(93,160,l),
(68,117,l),
(92,110,l),
(92,340,l),
(112,340,l),
(112,105,l)
);
},
{
closed = 1;
nodes = (
(203,-1,l),
(240,146,l),
(176,163,l),
(176,392,l),
(25,392,l),
(25,88,l),
(15,50,l)
);
},
{
closed = 1;
nodes = (
(68,381,l),
(223,338,l),
(223,-195,l),
(374,-158,l),
(374,360,l),
(398,447,l),
(107,527,l)
);
},
{
closed = 1;
nodes = (
(148,499,l),
(115,457,l),
(347,392,l),
(344,435,l),
(317,328,l),
(343,373,l),
(309,382,l),
(309,-124,l),
(289,-129,l),
(289,388,l),
(110,438,l),
(121,392,l)
);
}
);
width = 423;
}
);
unicode = 113;
},
{
glyphname = r;
layers = (
{
anchors = (
{
name = bottom;
pos = (171,0);
},
{
name = top;
pos = (171,550);
}
);
layerId = "C1068CC4-E81B-47E6-9D26-F0E70787A68A";
shapes = (
{
closed = 1;
nodes = (
(340,479,l),
(431,424,l),
(212,484,l),
(173,338,l),
(392,278,l),
(277,247,l)
);
},
{
closed = 1;
nodes = (
(112,380,l),
(43,399,l),
(67,343,l),
(94,451,l),
(48,419,l),
(203,377,l),
(178,433,l),
(151,325,l),
(197,357,l),
(132,375,l),
(132,104,l),
(201,85,l),
(178,141,l),
(151,33,l),
(196,65,l),
(41,107,l),
(66,51,l),
(93,159,l),
(47,127,l),
(112,109,l)
);
},
{
closed = 1;
nodes = (
(284,458,l),
(257,350,l),
(283,376,l),
(213,395,l),
(225,366,l),
(252,474,l),
(218,415,l),
(307,391,l)
);
},
{
closed = 1;
nodes = (
(191,0,l),
(230,146,l),
(197,155,l),
(197,391,l),
(211,441,l),
(54,484,l),
(15,338,l),
(46,330,l),
(46,164,l),
(15,48,l)
);
}
);
width = 342;
}
);
unicode = 114;
},
{
glyphname = s;
layers = (
{
anchors = (
{
name = bottom;
pos = (197,0);
},
{
name = top;
pos = (157,550);
}
);
layerId = "C1068CC4-E81B-47E6-9D26-F0E70787A68A";
shapes = (
{
closed = 1;
nodes = (
(234,278,l),
(100,471,l),
(234,535,l),
(-37,307,l),
(-24,383,l),
(110,191,l)
);
},
{
closed = 1;
nodes = (
(315,116,l),
(52,188,l),
(120,229,l),
(5,12,l),
(-21,51,l),
(176,-2,l)
);
},
{
closed = 1;
nodes = (
(269,78,l),
(380,170,l),
(350,99,l),
(364,259,l),
(299,352,l),
(176,265,l),
(317,63,l)
);
},
{
closed = 1;
nodes = (
(388,494,l),
(191,547,l),
(268,564,l),
(60,388,l),
(51,429,l),
(315,357,l)
);
},
{
closed = 1;
nodes = (
(274,384,l),
(339,419,l),
(168,466,l),
(156,405,l),
(267,499,l),
(176,484,l),
(340,439,l),
(329,487,l)
);
},
{
closed = 1;
nodes = (
(43,310,l),
(121,376,l),
(79,386,l),
(165,263,l),
(177,299,l),
(86,235,l),
(147,255,l),
(63,375,l)
);
},
{
closed = 1;
nodes = (
(133,150,l),
(68,115,l),
(239,68,l),
(255,129,l),
(144,35,l),
(231,50,l),
(67,95,l),
(78,47,l)
);
},
{
closed = 1;
nodes = (
(223,238,l),
(299,292,l),
(257,298,l),
(343,175,l),
(356,214,l),
(275,146,l),
(325,167,l),
(241,287,l)
);
}
);
width = 393;
}
);
unicode = 115;
},
{
glyphname = germandbls;
layers = (
{
layerId = "C1068CC4-E81B-47E6-9D26-F0E70787A68A";
shapes = (
{
closed = 1;
nodes = (
(187,100,l),
(187,490,l),
(36,490,l),
(36,0,l)
);
},
{
closed = 1;
nodes = (
(122,104,l),
(102,91,l),
(102,453,l),
(122,453,l)
);
},
{
closed = 1;
nodes = (
(84,597,l),
(367,519,l),
(362,500,l),
(347,504,l),
(347,417,l),
(327,411,l),
(327,510,l),
(79,578,l)
);
},
{
closed = 1;
nodes = (
(227,284,l),
(239,333,l),
(220,315,l),
(367,274,l),
(362,255,l),
(347,259,l),
(347,102,l),
(327,90,l),
(327,265,l),
(213,296,l)
);
},
{
closed = 1;
nodes = (
(412,375,l),
(412,576,l),
(55,674,l),
(3,484,l),
(-16,537,l),
(261,461,l),
(261,373,l),
(207,388,l),
(167,241,l),
(261,216,l),
(261,137,l),
(237,143,l),
(198,-2,l),
(252,-17,l),
(412,76,l),
(412,331,l),
(333,353,l)
);
},
{
closed = 1;
nodes = (
(233,54,l),
(238,73,l),
(297,57,l),
(309,80,l),
(255,48,l)
);
}
);
width = 427;
}
);
unicode = 223;
},
{
glyphname = t;
layers = (
{
anchors = (
{
name = bottom;
pos = (138,0);
},
{
name = center;
pos = (138,250);
},
{
name = top;
pos = (118,690);
},
{
name = topright;
pos = (256,500);
}
);
layerId = "C1068CC4-E81B-47E6-9D26-F0E70787A68A";
shapes = (
{
closed = 1;
nodes = (
(245,146,l),
(69,194,l),
(30,48,l),
(206,0,l)
);
},
{
closed = 1;
nodes = (
(192,141,l),
(165,33,l),
(211,65,l),
(56,107,l),
(83,51,l),
(110,159,l),
(62,127,l),
(216,85,l)
);
},
{
closed = 1;
nodes = (
(61,423,l),
(61,164,l),
(95,164,l),
(134,174,l),
(212,174,l),
(212,408,l),
(247,405,l),
(261,555,l),
(212,560,l),
(212,634,l),
(61,634,l),
(61,574,l),
(29,577,l),
(11,381,l),
(-17,430,l)
);
},
{
closed = 1;
nodes = (
(74,507,l),
(127,502,l),
(127,586,l),
(147,586,l),
(147,500,l),
(223,493,l),
(209,543,l),
(199,433,l),
(223,473,l),
(147,480,l),
(147,223,l),
(127,223,l),
(127,482,l),
(72,487,l)
);
}
);
width = 276;
}
);
unicode = 116;
},
{
glyphname = tbar;
layers = (
{
anchors = (
{
name = bottom;
pos = (149,0);
},
{
name = center;
pos = (149,250);
},
{
name = top;
pos = (129,690);
},
{
name = topright;
pos = (267,500);
}
);
layerId = "C1068CC4-E81B-47E6-9D26-F0E70787A68A";
shapes = (
{
closed = 1;
nodes = (
(256,146,l),
(80,194,l),
(41,48,l),
(217,0,l)
);
},
{
closed = 1;
nodes = (
(203,141,l),
(176,33,l),
(222,65,l),
(67,107,l),
(94,51,l),
(121,159,l),
(73,127,l),
(227,85,l)
);
},
{
closed = 1;
nodes = (
(85,507,l),
(138,502,l),
(138,586,l),
(158,586,l),
(158,500,l),
(234,493,l),
(220,543,l),
(210,433,l),
(234,473,l),
(158,480,l),
(158,223,l),
(138,223,l),
(138,482,l),
(83,487,l)
);
},
{
closed = 1;
nodes = (
(72,303,l),
(72,164,l),
(106,164,l),
(145,174,l),
(223,174,l),
(223,278,l),
(270,270,l),
(278,318,l),
(223,327,l),
(223,408,l),
(258,405,l),
(272,555,l),
(223,560,l),
(223,634,l),
(72,634,l),
(72,574,l),
(40,577,l),
(26,427,l),
(72,423,l),
(72,352,l),
(13,362,l),
(-4,290,l),
(-8,316,l)
);
}
);
width = 287;
}
);
unicode = 359;
},
{
glyphname = u;
layers = (
{
anchors = (
{
name = bottom;
pos = (230,0);
},
{
name = ogonek;
pos = (334,52);
},
{
name = top;
pos = (230,550);
},
{
name = topright;
pos = (440,550);
}
);
layerId = "C1068CC4-E81B-47E6-9D26-F0E70787A68A";
shapes = (
{
closed = 1;
nodes = (
(348,104,l),
(417,85,l),
(393,141,l),
(366,33,l),
(412,65,l),
(257,107,l),
(282,51,l),
(309,159,l),
(263,127,l),
(328,109,l),
(328,396,l),
(259,415,l),
(282,343,l),
(309,451,l),
(264,435,l),
(419,393,l),
(394,433,l),
(367,325,l),
(413,373,l),
(348,391,l)
);
},
{
closed = 1;
nodes = (
(133,104,l),
(229,78,l),
(220,122,l),
(193,14,l),
(220,59,l),
(43,107,l),
(67,51,l),
(94,159,l),
(48,127,l),
(113,109,l),
(113,396,l),
(44,415,l),
(68,347,l),
(95,455,l),
(49,435,l),
(204,393,l),
(178,437,l),
(151,329,l),
(198,373,l),
(133,391,l)
);
},
{
closed = 1;
nodes = (
(234,-12,l),
(273,134,l),
(199,154,l),
(199,336,l),
(230,452,l),
(54,500,l),
(15,354,l),
(48,345,l),
(48,172,l),
(15,48,l)
);
},
{
closed = 1;
nodes = (
(406,0,l),
(445,146,l),
(414,154,l),
(414,336,l),
(445,452,l),
(269,500,l),
(230,354,l),
(263,345,l),
(263,172,l),
(230,48,l)
);
}
);
width = 460;
}
);
unicode = 117;
},
{
glyphname = v;
layers = (
{
layerId = "C1068CC4-E81B-47E6-9D26-F0E70787A68A";
shapes = (
{
closed = 1;
nodes = (
(48,345,l),
(48,141,l),
(27,96,l),
(232,0,l),
(390,92,l),
(199,183,l),
(199,336,l),
(230,452,l),
(54,500,l),
(15,354,l)
);
},
{
closed = 1;
nodes = (
(68,347,l),
(87,425,l),
(169,402,l),
(164,382,l),
(133,391,l),
(133,141,l),
(263,79,l),
(242,67,l),
(97,136,l),
(105,154,l),
(113,150,l),
(113,396,l),
(44,415,l)
);
},
{
closed = 1;
nodes = (
(283,340,l),
(270,337,l),
(330,57,l),
(421,110,l),
(450,216,l),
(419,357,l),
(445,452,l),
(269,500,l),
(230,354,l)
);
},
{
closed = 1;
nodes = (
(302,425,l),
(419,393,l),
(394,433,l),
(367,325,l),
(413,373,l),
(346,391,l),
(396,156,l),
(337,122,l),
(381,129,l),
(324,397,l),
(297,405,l)
);
}
);
width = 465;
}
);
unicode = 118;
},
{
glyphname = w;
layers = (
{
anchors = (
{
name = bottom;
pos = (322,0);
},
{
name = top;
pos = (322,550);
}
);
layerId = "C1068CC4-E81B-47E6-9D26-F0E70787A68A";
shapes = (
{
closed = 1;
nodes = (
(48,184,l),
(48,341,l),
(15,350,l),
(54,496,l),
(221,450,l),
(199,369,l),
(199,166,l),
(254,151,l),
(263,184,l),
(263,341,l),
(230,350,l),
(269,496,l),
(436,450,l),
(414,369,l),
(414,166,l),
(478,148,l),
(478,291,l),
(450,448,l),
(599,476,l),
(629,299,l),
(629,107,l),
(590,-39,l),
(390,16,l),
(375,-39,l),
(15,60,l)
);
},
{
closed = 1;
nodes = (
(114,390,l),
(114,122,l),
(88,129,l),
(83,110,l),
(344,38,l),
(349,57,l),
(349,96,l),
(559,38,l),
(564,57,l),
(564,299,l),
(545,414,l),
(525,410,l),
(544,296,l),
(544,62,l),
(349,116,l),
(349,406,l),
(302,419,l),
(297,400,l),
(329,390,l),
(329,62,l),
(134,116,l),
(134,406,l),
(87,419,l),
(82,400,l)
);
}
);
width = 644;
}
);
unicode = 119;
},
{
glyphname = x;
layers = (
{
layerId = "C1068CC4-E81B-47E6-9D26-F0E70787A68A";
shapes = (
{
closed = 1;
nodes = (
(159,0,l),
(280,137,l),
(401,0,l),
(545,67,l),
(480,204,l),
(439,185,l),
(381,251,l),
(437,315,l),
(477,296,l),
(542,433,l),
(398,500,l),
(280,366,l),
(162,500,l),
(18,433,l),
(83,296,l),
(123,315,l),
(179,251,l),
(121,185,l),
(80,204,l),
(15,67,l)
);
},
{
closed = 1;
nodes = (
(98,123,l),
(138,104,l),
(267,250,l),
(139,395,l),
(102,378,l),
(94,396,l),
(125,410,l),
(115,422,l),
(134,431,l),
(280,265,l),
(426,431,l),
(445,422,l),
(435,410,l),
(466,396,l),
(458,378,l),
(421,395,l),
(293,250,l),
(422,104,l),
(462,123,l),
(470,105,l),
(435,89,l),
(446,77,l),
(427,69,l),
(280,235,l),
(133,69,l),
(114,77,l),
(125,89,l),
(90,105,l)
);
}
);
width = 560;
}
);
unicode = 120;
},
{
glyphname = y;
layers = (
{
anchors = (
{
name = bottom;
pos = (230,-288);
},
{
name = top;
pos = (230,550);
}
);
layerId = "C1068CC4-E81B-47E6-9D26-F0E70787A68A";
shapes = (
{
closed = 1;
nodes = (
(133,112,l),
(229,86,l),
(220,122,l),
(193,14,l),
(220,67,l),
(43,115,l),
(67,51,l),
(94,159,l),
(48,135,l),
(113,117,l),
(113,396,l),
(44,415,l),
(68,347,l),
(95,455,l),
(49,435,l),
(204,393,l),
(178,437,l),
(151,329,l),
(198,373,l),
(133,391,l)
);
},
{
closed = 1;
nodes = (
(235,-4,l),
(272,143,l),
(199,162,l),
(199,336,l),
(230,452,l),
(54,500,l),
(15,354,l),
(48,345,l),
(48,185,l),
(2,6,l),
(-116,91,l)
);
},
{
closed = 1;
nodes = (
(132,-80,l),
(331,-135,l),
(328,395,l),
(259,414,l),
(283,358,l),
(310,466,l),
(263,434,l),
(418,392,l),
(393,448,l),
(366,340,l),
(413,372,l),
(348,390,l),
(351,-140,l),
(346,-159,l),
(127,-99,l)
);
},
{
closed = 1;
nodes = (
(376,-235,l),
(414,-87,l),
(414,336,l),
(445,452,l),
(269,500,l),
(230,354,l),
(263,345,l),
(263,-47,l),
(101,-5,l),
(54,-189,l),
(1,-133,l)
);
}
);
width = 460;
}
);
unicode = 121;
},
{
glyphname = z;
layers = (
{
anchors = (
{
name = bottom;
pos = (237,0);
},
{
name = center;
pos = (237,250);
},
{
name = top;
pos = (237,550);
}
);
layerId = "C1068CC4-E81B-47E6-9D26-F0E70787A68A";
shapes = (
{
closed = 1;
nodes = (
(108,444,l),
(127,439,l),
(125,430,l),
(393,414,l),
(379,460,l),
(373,350,l),
(394,393,l),
(119,411,l),
(110,378,l),
(91,383,l)
);
},
{
closed = 1;
nodes = (
(365,52,l),
(346,57,l),
(348,66,l),
(80,82,l),
(94,36,l),
(100,146,l),
(79,103,l),
(354,85,l),
(363,118,l),
(382,113,l)
);
},
{
closed = 1;
nodes = (
(162,314,l),
(169,342,l),
(210,340,l),
(54,169,l),
(46,18,l),
(418,-4,l),
(419,-4,l),
(458,142,l),
(311,182,l),
(304,154,l),
(247,157,l),
(380,303,l),
(348,331,l),
(419,327,l),
(427,478,l),
(54,500,l),
(15,354,l)
);
},
{
closed = 1;
nodes = (
(114,198,l),
(112,136,l),
(328,373,l),
(234,339,l),
(317,268,l),
(343,360,l),
(127,123,l),
(197,127,l)
);
}
);
width = 473;
}
);
unicode = 122;
},
{
glyphname = "hamza-ar";
layers = (
{
anchors = (
{
name = bottom;
pos = (224,-50);
},
{
name = top;
pos = (224,500);
}
);
layerId = "C1068CC4-E81B-47E6-9D26-F0E70787A68A";
shapes = (
{
closed = 1;
nodes = (
(143,151,l),
(18,151,l),
(44,0,l),
(432,0,l),
(406,151,l),
(363,151,l),
(384,185,l),
(132,333,l),
(324,279,l),
(398,416,l),
(177,477,l),
(15,226,l)
);
},
{
closed = 1;
nodes = (
(98,66,l),
(94,86,l),
(352,86,l),
(355,66,l)
);
},
{
closed = 1;
nodes = (
(106,249,l),
(116,266,l),
(293,162,l),
(283,145,l)
);
},
{
closed = 1;
nodes = (
(202,401,l),
(325,367,l),
(309,381,l),
(291,347,l),
(313,350,l),
(192,383,l)
);
}
);
width = 447;
}
);
unicode = 1569;
},
{
glyphname = "alef-ar";
layers = (
{
anchors = (
{
name = bottom;
pos = (112,-40);
},
{
name = top;
pos = (56,669);
}
);
layerId = "C1068CC4-E81B-47E6-9D26-F0E70787A68A";
shapes = (
{
closed = 1;
nodes = (
(182,591,l),
(114,572,l),
(114,80,l),
(141,96,l),
(73,78,l),
(94,75,l),
(94,566,l),
(79,562,l),
(74,581,l),
(176,609,l),
(118,628,l),
(137,551,l)
);
},
{
closed = 1;
nodes = (
(28,480,l),
(28,-3,l),
(179,39,l),
(179,521,l),
(204,528,l),
(165,674,l),
(-11,626,l)
);
}
);
width = 219;
}
);
unicode = 1575;
},
{
glyphname = "alef-ar.fina";
layers = (
{
anchors = (
{
name = bottom;
pos = (120,-40);
},
{
name = top;
pos = (78,615);
}
);
layerId = "C1068CC4-E81B-47E6-9D26-F0E70787A68A";
shapes = (
{
closed = 1;
nodes = (
(33,87,l),
(101,106,l),
(101,558,l),
(74,521,l),
(142,539,l),
(121,563,l),
(121,112,l),
(136,116,l),
(141,97,l),
(39,69,l),
(97,50,l),
(78,127,l)
);
},
{
closed = 1;
nodes = (
(50,4,l),
(214,49,l),
(187,150,l),
(187,620,l),
(36,579,l),
(36,157,l),
(10,150,l)
);
}
);
width = 187;
}
);
unicode = 65166;
},
{
glyphname = "alef-ar.short";
layers = (
{
anchors = (
{
name = bottom;
pos = (112,-40);
},
{
name = top;
pos = (59,584);
}
);
layerId = "C1068CC4-E81B-47E6-9D26-F0E70787A68A";
shapes = (
{
closed = 1;
nodes = (
(182,506,l),
(114,487,l),
(114,80,l),
(141,96,l),
(73,78,l),
(94,75,l),
(94,481,l),
(79,477,l),
(74,496,l),
(176,524,l),
(118,543,l),
(137,466,l)
);
},
{
closed = 1;
nodes = (
(28,395,l),
(28,-3,l),
(179,39,l),
(179,436,l),
(204,443,l),
(165,589,l),
(-11,541,l)
);
}
);
width = 224;
}
);
},
{
glyphname = "alef-ar.fina.short";
layers = (
{
anchors = (
{
name = bottom;
pos = (120,-40);
},
{
name = top;
pos = (95,583);
}
);
layerId = "C1068CC4-E81B-47E6-9D26-F0E70787A68A";
shapes = (
{
closed = 1;
nodes = (
(33,87,l),
(101,106,l),
(101,543,l),
(74,496,l),
(142,514,l),
(121,548,l),
(121,112,l),
(136,116,l),
(141,97,l),
(39,69,l),
(97,50,l),
(78,127,l)
);
},
{
closed = 1;
nodes = (
(50,4,l),
(214,49,l),
(187,150,l),
(187,595,l),
(36,554,l),
(36,157,l),
(10,150,l)
);
}
);
width = 187;
}
);
},
{
glyphname = "behDotless-ar";
layers = (
{
anchors = (
{
name = bottom;
pos = (568,-13);
},
{
name = ring;
pos = (565,0);
},
{
name = top;
pos = (208,283);
}
);
layerId = "C1068CC4-E81B-47E6-9D26-F0E70787A68A";
shapes = (
{
closed = 1;
nodes = (
(187,0,l),
(652,44,l),
(648,90,l),
(648,392,l),
(497,351,l),
(497,181,l),
(200,154,l),
(53,192,l),
(15,47,l)
);
},
{
closed = 1;
nodes = (
(599,127,l),
(601,107,l),
(182,67,l),
(78,96,l),
(82,114,l),
(185,87,l),
(562,123,l),
(562,309,l),
(535,293,l),
(603,311,l),
(582,314,l),
(582,125,l)
);
}
);
width = 667;
}
);
unicode = 1646;
},
{
glyphname = "behDotless-ar.medi";
layers = (
{
anchors = (
{
name = bottom;
pos = (115,-13);
},
{
name = ring;
pos = (114,0);
},
{
name = top;
pos = (110,404);
}
);
layerId = "C1068CC4-E81B-47E6-9D26-F0E70787A68A";
shapes = (
{
closed = 1;
nodes = (
(173,99,l),
(36,64,l),
(31,83,l),
(111,105,l),
(111,317,l),
(131,322,l),
(131,110,l),
(167,120,l)
);
},
{
closed = 1;
nodes = (
(18,-7,l),
(224,49,l),
(197,150,l),
(197,392,l),
(46,351,l),
(46,157,l),
(-21,139,l)
);
}
);
width = 197;
}
);
},
{
glyphname = "behDotless-ar.init";
layers = (
{
anchors = (
{
name = bottom;
pos = (121,-13);
},
{
name = ring;
pos = (115,0);
},
{
name = top;
pos = (111,404);
}
);
layerId = "C1068CC4-E81B-47E6-9D26-F0E70787A68A";
shapes = (
{
closed = 1;
nodes = (
(18,-7,l),
(209,45,l),
(198,86,l),
(198,392,l),
(47,351,l),
(47,158,l),
(-21,139,l)
);
},
{
closed = 1;
nodes = (
(158,117,l),
(163,97,l),
(37,64,l),
(32,83,l),
(112,105,l),
(112,317,l),
(132,322,l),
(132,110,l)
);
}
);
width = 224;
}
);
},
{
glyphname = "hah-ar";
layers = (
{
anchors = (
{
name = bottom;
pos = (304,-234);
},
{
name = center;
pos = (426,-56);
},
{
name = top;
pos = (441,386);
}
);
layerId = "C1068CC4-E81B-47E6-9D26-F0E70787A68A";
shapes = (
{
closed = 1;
nodes = (
(-35,-4,l),
(578,54,l),
(568,5,l),
(505,239,l),
(546,202,l),
(-66,145,l),
(4,195,l),
(67,-39,l)
);
},
{
closed = 1;
nodes = (
(106,-175,l),
(306,-38,l),
(345,-147,l),
(199,61,l),
(148,70,l),
(55,5,l),
(220,-234,l)
);
},
{
closed = 1;
nodes = (
(533,385,l),
(545,334,l),
(64,379,l),
(112,418,l),
(90,179,l),
(62,228,l),
(532,183,l),
(511,145,l)
);
},
{
closed = 1;
nodes = (
(154,347,l),
(126,308,l),
(482,275,l),
(478,323,l),
(468,213,l),
(480,255,l),
(125,288,l),
(144,237,l)
);
},
{
closed = 1;
nodes = (
(483,129,l),
(488,109,l),
(79,71,l),
(92,59,l),
(81,100,l),
(77,91,l)
);
},
{
closed = 1;
nodes = (
(223,-37,l),
(133,-98,l),
(190,-76,l),
(95,61,l),
(97,-25,l),
(187,36,l),
(111,72,l),
(206,-65,l)
);
}
);
width = 570;
}
);
unicode = 1581;
},
{
glyphname = "hah-ar.init";
layers = (
{
anchors = (
{
name = bottom;
pos = (383,0);
},
{
name = top;
pos = (392,386);
}
);
layerId = "C1068CC4-E81B-47E6-9D26-F0E70787A68A";
shapes = (
{
closed = 1;
nodes = (
(-62,-8,l),
(551,50,l),
(526,1,l),
(463,235,l),
(519,198,l),
(-93,141,l),
(-32,190,l),
(30,-43,l)
);
},
{
closed = 1;
nodes = (
(491,381,l),
(503,330,l),
(22,375,l),
(70,414,l),
(48,175,l),
(20,224,l),
(490,179,l),
(469,141,l)
);
},
{
closed = 1;
nodes = (
(112,343,l),
(84,304,l),
(440,271,l),
(436,319,l),
(426,209,l),
(438,251,l),
(83,284,l),
(102,233,l)
);
},
{
closed = 1;
nodes = (
(441,125,l),
(446,105,l),
(37,67,l),
(55,55,l),
(44,96,l),
(35,87,l)
);
}
);
width = 529;
}
);
unicode = 65187;
},
{
glyphname = "dal-ar";
layers = (
{
anchors = (
{
name = bottom;
pos = (186,-50);
},
{
name = top;
pos = (264,386);
}
);
layerId = "C1068CC4-E81B-47E6-9D26-F0E70787A68A";
shapes = (
{
closed = 1;
nodes = (
(74,104,l),
(269,122,l),
(263,118,l),
(263,318,l),
(283,323,l),
(283,119,l),
(281,123,l),
(316,126,l),
(300,166,l),
(300,56,l),
(320,106,l),
(279,102,l),
(283,106,l),
(283,86,l),
(263,84,l),
(263,105,l),
(268,101,l),
(76,83,l)
);
},
{
closed = 1;
nodes = (
(17,199,l),
(34,14,l),
(352,44,l),
(348,92,l),
(348,392,l),
(197,351,l),
(197,181,l),
(-161,148,l)
);
}
);
width = 372;
}
);
unicode = 1583;
},
{
glyphname = "reh-ar";
layers = (
{
anchors = (
{
name = bottom;
pos = (69,-220);
},
{
name = top;
pos = (79,404);
}
);
layerId = "C1068CC4-E81B-47E6-9D26-F0E70787A68A";
shapes = (
{
closed = 1;
nodes = (
(166,-146,l),
(166,392,l),
(15,351,l),
(15,-187,l)
);
},
{
closed = 1;
nodes = (
(101,324,l),
(101,-114,l),
(81,-120,l),
(81,319,l)
);
}
);
width = 181;
}
);
unicode = 1585;
},
{
glyphname = "seen-ar";
layers = (
{
anchors = (
{
name = bottom;
pos = (716,-60);
},
{
name = top;
pos = (603,380);
}
);
layerId = "C1068CC4-E81B-47E6-9D26-F0E70787A68A";
shapes = (
{
closed = 1;
nodes = (
(883,90,l),
(883,392,l),
(732,351,l),
(732,162,l),
(664,143,l),
(703,-3,l),
(894,49,l)
);
},
{
closed = 1;
nodes = (
(797,332,l),
(817,337,l),
(817,110,l),
(852,119,l),
(823,126,l),
(842,52,l),
(854,98,l),
(678,53,l),
(746,20,l),
(719,127,l),
(674,71,l),
(797,105,l)
);
},
{
closed = 1;
nodes = (
(600,282,l),
(620,287,l),
(620,110,l),
(655,119,l),
(626,126,l),
(645,52,l),
(657,98,l),
(512,61,l),
(549,20,l),
(522,127,l),
(477,71,l),
(600,105,l)
);
},
{
closed = 1;
nodes = (
(488,63,l),
(485,63,l),
(478,48,l),
(492,49,l),
(506,-3,l),
(697,49,l),
(686,90,l),
(686,342,l),
(535,301,l),
(535,162,l),
(467,143,l)
);
},
{
closed = 1;
nodes = (
(192,-131,l),
(503,-101,l),
(489,49,l),
(489,292,l),
(338,251,l),
(338,35,l),
(206,23,l),
(58,61,l),
(20,-84,l)
);
},
{
closed = 1;
nodes = (
(87,-17,l),
(190,-44,l),
(403,-24,l),
(403,232,l),
(423,237,l),
(423,-22,l),
(456,-19,l),
(458,-38,l),
(187,-64,l),
(83,-35,l)
);
}
);
width = 914;
}
);
unicode = 1587;
},
{
glyphname = "seen-ar.init";
layers = (
{
anchors = (
{
name = bottom;
pos = (311,-60);
},
{
name = top;
pos = (311,380);
}
);
layerId = "C1068CC4-E81B-47E6-9D26-F0E70787A68A";
shapes = (
{
closed = 1;
nodes = (
(591,90,l),
(591,392,l),
(440,351,l),
(440,162,l),
(372,143,l),
(411,-3,l),
(602,49,l)
);
},
{
closed = 1;
nodes = (
(505,332,l),
(525,337,l),
(525,110,l),
(560,119,l),
(531,126,l),
(550,52,l),
(562,98,l),
(386,53,l),
(454,20,l),
(427,127,l),
(382,71,l),
(505,105,l)
);
},
{
closed = 1;
nodes = (
(394,90,l),
(394,342,l),
(243,301,l),
(243,162,l),
(175,143,l),
(214,-3,l),
(405,49,l)
);
},
{
closed = 1;
nodes = (
(308,282,l),
(328,287,l),
(328,110,l),
(363,119,l),
(334,126,l),
(353,52,l),
(365,98,l),
(189,53,l),
(257,20,l),
(230,127,l),
(185,71,l),
(308,105,l)
);
},
{
closed = 1;
nodes = (
(197,90,l),
(197,292,l),
(46,251,l),
(46,162,l),
(-22,143,l),
(17,-3,l),
(208,49,l)
);
},
{
closed = 1;
nodes = (
(111,232,l),
(131,237,l),
(131,110,l),
(166,119,l),
(137,126,l),
(156,52,l),
(168,98,l),
(31,63,l),
(60,20,l),
(33,127,l),
(28,82,l),
(111,105,l)
);
}
);
width = 622;
}
);
unicode = 65203;
},
{
glyphname = "sad-ar";
layers = (
{
anchors = (
{
name = bottom;
pos = (898,0);
},
{
name = top;
pos = (812,386);
}
);
layerId = "C1068CC4-E81B-47E6-9D26-F0E70787A68A";
shapes = (
{
closed = 1;
nodes = (
(940,276,l),
(938,256,l),
(606,286,l),
(606,165,l),
(586,163,l),
(586,288,l),
(575,289,l),
(580,347,l),
(541,313,l)
);
},
{
closed = 1;
nodes = (
(521,229,l),
(521,136,l),
(672,136,l),
(672,214,l),
(981,185,l),
(994,336,l),
(534,379,l),
(516,179,l),
(498,231,l)
);
},
{
closed = 1;
nodes = (
(426,82,l),
(948,131,l),
(953,111,l),
(435,63,l),
(540,50,l),
(517,131,l)
);
},
{
closed = 1;
nodes = (
(82,-17,l),
(185,-44,l),
(398,-24,l),
(398,272,l),
(418,277,l),
(418,-22,l),
(451,-19,l),
(453,-38,l),
(182,-64,l),
(78,-35,l)
);
},
{
closed = 1;
nodes = (
(187,-131,l),
(498,-101,l),
(484,49,l),
(492,50,l),
(504,3,l),
(1022,51,l),
(982,199,l),
(484,152,l),
(484,332,l),
(333,291,l),
(333,35,l),
(201,23,l),
(53,61,l),
(15,-84,l)
);
}
);
width = 1037;
}
);
unicode = 1589;
},
{
glyphname = "sad-ar.init";
layers = (
{
anchors = (
{
name = bottom;
pos = (609,0);
},
{
name = top;
pos = (523,386);
}
);
layerId = "C1068CC4-E81B-47E6-9D26-F0E70787A68A";
shapes = (
{
closed = 1;
nodes = (
(-23,139,l),
(18,-15,l),
(732,52,l),
(693,199,l),
(195,153,l),
(195,332,l),
(44,291,l),
(44,138,l),
(-24,132,l)
);
},
{
closed = 1;
nodes = (
(651,276,l),
(649,256,l),
(317,286,l),
(317,165,l),
(297,163,l),
(297,288,l),
(286,289,l),
(291,347,l),
(252,313,l)
);
},
{
closed = 1;
nodes = (
(232,229,l),
(232,126,l),
(383,126,l),
(383,214,l),
(692,185,l),
(705,336,l),
(245,379,l),
(227,179,l),
(209,231,l)
);
},
{
closed = 1;
nodes = (
(109,79,l),
(109,272,l),
(129,277,l),
(129,81,l),
(659,131,l),
(664,111,l),
(51,54,l),
(44,79,l),
(20,71,l)
);
}
);
width = 747;
}
);
unicode = 65211;
},
{
glyphname = "tah-ar";
layers = (
{
anchors = (
{
name = bottom;
pos = (609,0);
},
{
name = top;
pos = (523,386);
}
);
layerId = "C1068CC4-E81B-47E6-9D26-F0E70787A68A";
shapes = (
{
closed = 1;
nodes = (
(717,385,l),
(722,334,l),
(191,384,l),
(242,418,l),
(220,179,l),
(209,231,l),
(709,183,l),
(695,145,l)
);
},
{
closed = 1;
nodes = (
(658,275,l),
(656,255,l),
(248,292,l),
(275,243,l),
(284,346,l),
(259,312,l)
);
},
{
closed = 1;
nodes = (
(-2,200,l),
(54,-12,l),
(739,53,l),
(700,199,l),
(232,156,l),
(232,521,l),
(257,528,l),
(218,674,l),
(42,626,l),
(81,480,l),
(81,142,l),
(-24,132,l)
);
},
{
closed = 1;
nodes = (
(70,75,l),
(147,82,l),
(147,566,l),
(132,562,l),
(127,581,l),
(179,595,l),
(184,577,l),
(167,572,l),
(167,84,l),
(666,131,l),
(671,111,l),
(87,57,l),
(80,83,l)
);
}
);
width = 754;
}
);
unicode = 1591;
},
{
glyphname = "ain-ar";
layers = (
{
anchors = (
{
name = bottom;
pos = (300,-200);
},
{
name = top;
pos = (297,516);
}
);
layerId = "C1068CC4-E81B-47E6-9D26-F0E70787A68A";
shapes = (
{
closed = 1;
nodes = (
(494,132,l),
(453,172,l),
(482,68,l),
(499,114,l),
(104,77,l),
(99,96,l)
);
},
{
closed = 1;
nodes = (
(183,266,l),
(192,284,l),
(452,163,l),
(399,247,l),
(355,147,l),
(444,145,l)
);
},
{
closed = 1;
nodes = (
(267,427,l),
(409,402,l),
(401,383,l),
(241,411,l),
(242,379,l)
);
},
{
closed = 1;
nodes = (
(115,33,l),
(84,-9,l),
(174,52,l),
(131,44,l),
(194,-46,l),
(178,-57,l)
);
},
{
closed = 1;
nodes = (
(4,195,l),
(55,5,l),
(156,-141,l),
(281,-55,l),
(227,21,l),
(555,52,l),
(516,199,l),
(448,193,l),
(465,229,l),
(417,251,l),
(415,249,l),
(416,251,l),
(198,353,l),
(440,309,l),
(500,453,l),
(231,500,l),
(94,234,l),
(228,172,l),
(-66,145,l)
);
}
);
width = 570;
}
);
unicode = 1593;
},
{
glyphname = "ain-ar.fina";
layers = (
{
anchors = (
{
name = bottom;
pos = (289,-200);
},
{
name = top;
pos = (297,516);
}
);
layerId = "C1068CC4-E81B-47E6-9D26-F0E70787A68A";
shapes = (
{
closed = 1;
nodes = (
(494,132,l),
(453,172,l),
(482,68,l),
(499,114,l),
(104,77,l),
(99,96,l)
);
},
{
closed = 1;
nodes = (
(115,33,l),
(84,-9,l),
(174,52,l),
(131,44,l),
(194,-46,l),
(178,-57,l)
);
},
{
closed = 1;
nodes = (
(4,195,l),
(55,5,l),
(156,-141,l),
(281,-55,l),
(227,21,l),
(555,52,l),
(516,199,l),
(473,195,l),
(514,280,l),
(442,313,l),
(500,453,l),
(231,500,l),
(93,234,l),
(228,172,l),
(-66,145,l)
);
},
{
closed = 1;
nodes = (
(366,322,l),
(348,283,l),
(197,353,l)
);
},
{
closed = 1;
nodes = (
(267,427,l),
(409,402,l),
(401,383,l),
(241,411,l),
(242,379,l)
);
},
{
closed = 1;
nodes = (
(192,284,l),
(380,197,l),
(411,262,l),
(429,254,l),
(389,170,l),
(183,266,l)
);
}
);
width = 524;
}
);
unicode = 65226;
},
{
glyphname = "ain-ar.medi";
layers = (
{
anchors = (
{
name = bottom;
pos = (233,-50);
},
{
name = top;
pos = (240,516);
}
);
layerId = "C1068CC4-E81B-47E6-9D26-F0E70787A68A";
shapes = (
{
closed = 1;
nodes = (
(453,476,l),
(504,442,l),
(174,500,l),
(92,343,l),
(46,370,l),
(430,300,l),
(358,249,l)
);
},
{
closed = 1;
nodes = (
(61,98,l),
(427,131,l),
(408,170,l),
(437,66,l),
(432,113,l),
(66,79,l)
);
},
{
closed = 1;
nodes = (
(210,427,l),
(352,402,l),
(344,383,l),
(184,411,l),
(185,379,l)
);
},
{
closed = 1;
nodes = (
(-34,201,l),
(19,6,l),
(508,53,l),
(468,200,l),
(416,195,l),
(457,280,l),
(319,343,l),
(291,283,l),
(105,369,l),
(36,234,l),
(171,172,l),
(-123,145,l)
);
},
{
closed = 1;
nodes = (
(135,284,l),
(323,197,l),
(354,262,l),
(372,254,l),
(332,170,l),
(126,266,l)
);
}
);
width = 457;
}
);
unicode = 65228;
},
{
glyphname = "ain-ar.init";
layers = (
{
anchors = (
{
name = bottom;
pos = (273,-50);
},
{
name = top;
pos = (270,516);
}
);
layerId = "C1068CC4-E81B-47E6-9D26-F0E70787A68A";
shapes = (
{
closed = 1;
nodes = (
(412,127,l),
(417,109,l),
(67,76,l),
(62,95,l)
);
},
{
closed = 1;
nodes = (
(156,266,l),
(165,284,l),
(425,163,l),
(372,247,l),
(328,147,l),
(417,145,l)
);
},
{
closed = 1;
nodes = (
(-33,195,l),
(19,4,l),
(502,49,l),
(463,197,l),
(421,193,l),
(438,229,l),
(170,353,l),
(413,309,l),
(473,453,l),
(204,500,l),
(66,234,l),
(201,172,l),
(-93,145,l)
);
},
{
closed = 1;
nodes = (
(240,427,l),
(382,402,l),
(374,383,l),
(214,411,l),
(215,379,l)
);
}
);
width = 517;
}
);
unicode = 65227;
},
{
glyphname = "fehDotless-ar";
layers = (
{
anchors = (
{
name = bottom;
pos = (472,-50);
},
{
name = top;
pos = (560,441);
}
);
layerId = "C1068CC4-E81B-47E6-9D26-F0E70787A68A";
shapes = (
{
closed = 1;
nodes = (
(444,261,l),
(502,245,l),
(502,181,l),
(444,176,l)
);
},
{
closed = 1;
nodes = (
(192,0,l),
(657,44,l),
(653,92,l),
(653,306,l),
(667,357,l),
(375,437,l),
(339,302,l),
(293,302,l),
(293,162,l),
(204,154,l),
(58,192,l),
(20,47,l)
);
},
{
closed = 1;
nodes = (
(599,125,l),
(601,106,l),
(187,66,l),
(83,95,l),
(87,113,l),
(190,86,l),
(359,102,l),
(359,252,l),
(379,252,l),
(379,104,l),
(568,122,l),
(568,295,l),
(402,341,l),
(408,360,l),
(600,307,l),
(595,288,l),
(588,290,l),
(588,124,l)
);
}
);
width = 677;
}
);
unicode = 1697;
},
{
glyphname = "fehDotless-ar.init";
layers = (
{
anchors = (
{
name = bottom;
pos = (225,-50);
},
{
name = top;
pos = (313,434);
}
);
layerId = "C1068CC4-E81B-47E6-9D26-F0E70787A68A";
shapes = (
{
closed = 1;
nodes = (
(112,95,l),
(112,245,l),
(132,245,l),
(132,97,l),
(321,115,l),
(321,288,l),
(155,334,l),
(161,353,l),
(353,300,l),
(348,281,l),
(341,283,l),
(341,117,l),
(346,117,l),
(351,97,l),
(48,69,l),
(43,89,l)
);
},
{
closed = 1;
nodes = (
(-35,181,l),
(14,0,l),
(418,38,l),
(406,83,l),
(406,299,l),
(420,350,l),
(128,430,l),
(92,295,l),
(46,295,l),
(46,155,l),
(-103,141,l)
);
},
{
closed = 1;
nodes = (
(197,254,l),
(255,238,l),
(255,174,l),
(197,169,l)
);
}
);
width = 435;
}
);
},
{
glyphname = "qafDotless-ar";
layers = (
{
anchors = (
{
name = bottom;
pos = (257,-200);
},
{
name = top;
pos = (391,441);
}
);
layerId = "C1068CC4-E81B-47E6-9D26-F0E70787A68A";
shapes = (
{
closed = 1;
nodes = (
(187,-131,l),
(498,-101,l),
(484,49,l),
(484,306,l),
(498,357,l),
(206,437,l),
(167,291,l),
(333,245,l),
(333,35,l),
(201,23,l),
(53,61,l),
(15,-84,l)
);
},
{
closed = 1;
nodes = (
(82,-17,l),
(185,-44,l),
(398,-24,l),
(398,295,l),
(189,353,l),
(221,298,l),
(238,360,l),
(430,307,l),
(425,288,l),
(418,290,l),
(418,-22,l),
(451,-19,l),
(453,-38,l),
(182,-64,l),
(78,-35,l)
);
},
{
closed = 1;
nodes = (
(320,36,l),
(350,145,l),
(275,166,l),
(275,302,l),
(124,302,l),
(124,74,l),
(71,108,l)
);
},
{
closed = 1;
nodes = (
(173,148,l),
(190,143,l),
(190,252,l),
(210,252,l),
(210,137,l),
(288,115,l),
(284,96,l),
(168,129,l)
);
}
);
width = 513;
}
);
unicode = 1647;
},
{
glyphname = "kafDotless-ar";
layers = (
{
anchors = (
{
name = bottom;
pos = (577,-50);
},
{
name = top;
pos = (208,233);
}
);
layerId = "C1068CC4-E81B-47E6-9D26-F0E70787A68A";
shapes = (
{
closed = 1;
nodes = (
(187,0,l),
(652,44,l),
(648,90,l),
(648,620,l),
(497,579,l),
(497,181,l),
(200,154,l),
(53,192,l),
(15,47,l)
);
},
{
closed = 1;
nodes = (
(82,114,l),
(185,87,l),
(562,123,l),
(562,558,l),
(535,521,l),
(603,539,l),
(582,563,l),
(582,125,l),
(604,127,l),
(606,108,l),
(182,67,l),
(78,96,l)
);
}
);
width = 667;
}
);
},
{
glyphname = "kaf-ar.init";
layers = (
{
anchors = (
{
name = bottom;
pos = (263,-50);
},
{
name = top;
pos = (110,548);
}
);
layerId = "C1068CC4-E81B-47E6-9D26-F0E70787A68A";
shapes = (
{
closed = 1;
nodes = (
(-62,-8,l),
(551,50,l),
(538,1,l),
(475,235,l),
(519,198,l),
(-93,141,l),
(-32,190,l),
(30,-43,l)
);
},
{
closed = 1;
nodes = (
(503,381,l),
(525,330,l),
(-6,380,l),
(67,415,l),
(45,175,l),
(12,227,l),
(512,179,l),
(481,141,l)
);
},
{
closed = 1;
nodes = (
(109,343,l),
(94,305,l),
(462,271,l),
(447,319,l),
(437,209,l),
(460,251,l),
(99,285,l),
(99,233,l)
);
},
{
closed = 1;
nodes = (
(453,126,l),
(458,106,l),
(49,68,l),
(55,56,l),
(44,97,l),
(40,87,l)
);
},
{
closed = 1;
nodes = (
(393,466,l),
(76,422,l),
(98,374,l),
(81,472,l),
(74,443,l),
(389,486,l),
(368,523,l),
(387,415,l)
);
},
{
closed = 1;
nodes = (
(442,406,l),
(413,563,l),
(232,538,l),
(237,509,l),
(27,479,l),
(60,293,l),
(1,344,l)
);
}
);
width = 550;
}
);
unicode = 65243;
},
{
glyphname = "keheh-ar";
layers = (
{
anchors = (
{
name = bottom;
pos = (457,-50);
},
{
name = top;
pos = (278,548);
}
);
layerId = "C1068CC4-E81B-47E6-9D26-F0E70787A68A";
shapes = (
{
closed = 1;
nodes = (
(671,381,l),
(693,330,l),
(162,380,l),
(235,415,l),
(213,175,l),
(180,227,l),
(680,179,l),
(649,141,l)
);
},
{
closed = 1;
nodes = (
(277,343,l),
(262,305,l),
(630,271,l),
(615,319,l),
(605,209,l),
(628,251,l),
(267,285,l),
(267,233,l)
);
},
{
closed = 1;
nodes = (
(561,466,l),
(244,422,l),
(266,374,l),
(249,472,l),
(242,443,l),
(557,486,l),
(536,523,l),
(555,415,l)
);
},
{
closed = 1;
nodes = (
(610,406,l),
(581,563,l),
(400,538,l),
(405,509,l),
(195,479,l),
(228,293,l),
(169,344,l)
);
},
{
closed = 1;
nodes = (
(626,106,l),
(182,65,l),
(78,94,l),
(82,112,l),
(185,85,l),
(621,126,l)
);
},
{
closed = 1;
nodes = (
(187,0,l),
(693,48,l),
(654,195,l),
(203,153,l),
(53,192,l),
(15,47,l)
);
}
);
width = 708;
}
);
unicode = 1705;
},
{
glyphname = "gaf-ar.medi";
layers = (
{
anchors = (
{
name = bottom;
pos = (275,-50);
},
{
name = top;
pos = (162,626);
}
);
layerId = "C1068CC4-E81B-47E6-9D26-F0E70787A68A";
shapes = (
{
closed = 1;
nodes = (
(2,548,l),
(226,580,l),
(213,551,l),
(201,620,l),
(222,598,l),
(7,568,l),
(13,587,l),
(22,534,l)
);
},
{
ref = "keheh-ar.medi";
}
);
width = 497;
}
);
unicode = 64405;
},
{
glyphname = "lam-ar";
layers = (
{
anchors = (
{
name = bottom;
pos = (398,-184);
},
{
name = top;
pos = (380,700);
}
);
layerId = "C1068CC4-E81B-47E6-9D26-F0E70787A68A";
shapes = (
{
closed = 1;
nodes = (
(192,-131,l),
(483,-103,l),
(469,46,l),
(469,521,l),
(494,528,l),
(455,674,l),
(279,626,l),
(318,480,l),
(318,33,l),
(206,23,l),
(58,61,l),
(20,-84,l)
);
},
{
closed = 1;
nodes = (
(87,-17,l),
(190,-44,l),
(384,-26,l),
(384,566,l),
(369,562,l),
(364,581,l),
(466,609,l),
(408,628,l),
(427,551,l),
(472,591,l),
(404,572,l),
(404,-24,l),
(436,-21,l),
(438,-40,l),
(187,-64,l),
(83,-35,l)
);
}
);
width = 514;
}
);
unicode = 1604;
},
{
glyphname = "lam-ar.init";
layers = (
{
anchors = (
{
name = bottom;
pos = (126,-50);
},
{
name = ring;
pos = (114,0);
},
{
name = top;
pos = (108,667);
}
);
layerId = "C1068CC4-E81B-47E6-9D26-F0E70787A68A";
shapes = (
{
closed = 1;
nodes = (
(17,-7,l),
(208,45,l),
(197,86,l),
(197,620,l),
(46,579,l),
(46,158,l),
(-22,139,l)
);
},
{
closed = 1;
nodes = (
(157,117,l),
(162,97,l),
(36,64,l),
(31,83,l),
(111,105,l),
(111,545,l),
(131,550,l),
(131,110,l)
);
}
);
width = 228;
}
);
unicode = 65247;
},
{
glyphname = "meem-ar";
layers = (
{
anchors = (
{
name = bottom;
pos = (349,-136);
},
{
name = top;
pos = (214,480);
}
);
layerId = "C1068CC4-E81B-47E6-9D26-F0E70787A68A";
shapes = (
{
closed = 1;
nodes = (
(439,86,l),
(439,328,l),
(288,328,l),
(288,158,l),
(220,139,l),
(259,-7,l),
(450,45,l)
);
},
{
closed = 1;
nodes = (
(353,292,l),
(373,292,l),
(373,106,l),
(405,115,l),
(379,122,l),
(398,48,l),
(410,94,l),
(234,49,l),
(302,16,l),
(275,123,l),
(230,67,l),
(353,101,l)
);
},
{
closed = 1;
nodes = (
(69,412,l),
(91,326,l),
(91,154,l),
(15,133,l),
(15,-187,l),
(166,-146,l),
(166,17,l),
(269,45,l),
(242,146,l),
(242,267,l),
(386,304,l),
(349,450,l),
(-11,357,l)
);
},
{
closed = 1;
nodes = (
(81,80,l),
(156,101,l),
(156,305,l),
(138,300,l),
(152,285,l),
(135,352,l),
(137,320,l),
(331,374,l),
(308,413,l),
(335,306,l),
(335,355,l),
(176,311,l),
(176,106,l),
(241,124,l),
(189,156,l),
(216,48,l),
(247,103,l),
(101,65,l),
(101,-114,l),
(81,-120,l)
);
}
);
width = 465;
}
);
unicode = 1605;
},
{
glyphname = "meem-ar.init";
layers = (
{
anchors = (
{
name = bottom;
pos = (210,-50);
},
{
name = top;
pos = (210,480);
}
);
layerId = "C1068CC4-E81B-47E6-9D26-F0E70787A68A";
shapes = (
{
closed = 1;
nodes = (
(393,86,l),
(393,328,l),
(242,328,l),
(242,158,l),
(174,139,l),
(213,-7,l),
(404,45,l)
);
},
{
closed = 1;
nodes = (
(307,292,l),
(327,292,l),
(327,106,l),
(359,115,l),
(333,122,l),
(352,48,l),
(364,94,l),
(188,49,l),
(256,16,l),
(229,123,l),
(184,67,l),
(307,101,l)
);
},
{
closed = 1;
nodes = (
(18,-11,l),
(223,45,l),
(196,146,l),
(196,267,l),
(365,311,l),
(352,256,l),
(293,490,l),
(328,457,l),
(-57,357,l),
(23,412,l),
(62,259,l),
(45,341,l),
(45,153,l),
(-21,135,l)
);
},
{
closed = 1;
nodes = (
(130,106,l),
(195,124,l),
(143,156,l),
(170,48,l),
(201,103,l),
(42,62,l),
(74,20,l),
(47,127,l),
(36,80,l),
(110,101,l),
(110,305,l),
(92,300,l),
(106,285,l),
(89,352,l),
(91,320,l),
(285,374,l),
(262,413,l),
(289,306,l),
(289,355,l),
(130,311,l)
);
}
);
width = 419;
}
);
unicode = 65251;
},
{
glyphname = "noonghunna-ar";
layers = (
{
anchors = (
{
name = bottom;
pos = (398,-184);
},
{
name = top;
pos = (154,223);
}
);
layerId = "C1068CC4-E81B-47E6-9D26-F0E70787A68A";
shapes = (
{
closed = 1;
nodes = (
(192,-131,l),
(483,-103,l),
(469,46,l),
(469,392,l),
(318,351,l),
(318,33,l),
(206,23,l),
(58,61,l),
(20,-84,l)
);
},
{
closed = 1;
nodes = (
(87,-17,l),
(190,-44,l),
(384,-26,l),
(384,317,l),
(404,322,l),
(404,-24,l),
(436,-21,l),
(438,-40,l),
(187,-64,l),
(83,-35,l)
);
}
);
width = 503;
}
);
unicode = 1722;
},
{
glyphname = "heh-ar";
layers = (
{
anchors = (
{
name = bottom;
pos = (212,-50);
},
{
name = top;
pos = (201,448);
}
);
layerId = "C1068CC4-E81B-47E6-9D26-F0E70787A68A";
shapes = (
{
closed = 1;
nodes = (
(55,-15,l),
(408,82,l),
(375,206,l),
(375,297,l),
(400,304,l),
(361,450,l),
(185,402,l),
(202,337,l),
(128,389,l),
(15,225,l),
(15,131,l)
);
},
{
closed = 1;
nodes = (
(166,178,l),
(223,259,l),
(224,256,l),
(224,188,l),
(166,172,l)
);
},
{
closed = 1;
nodes = (
(290,138,l),
(290,342,l),
(275,338,l),
(270,357,l),
(372,385,l),
(314,404,l),
(333,327,l),
(378,367,l),
(310,348,l),
(310,144,l),
(339,152,l),
(315,209,l),
(342,102,l),
(343,133,l),
(93,64,l),
(88,83,l)
);
},
{
closed = 1;
nodes = (
(81,208,l),
(148,302,l),
(164,290,l),
(101,202,l),
(101,136,l),
(81,130,l)
);
}
);
width = 423;
}
);
unicode = 1607;
},
{
glyphname = "heh-ar.fina";
layers = (
{
anchors = (
{
name = bottom;
pos = (204,-50);
},
{
name = top;
pos = (234,448);
}
);
layerId = "C1068CC4-E81B-47E6-9D26-F0E70787A68A";
shapes = (
{
closed = 1;
nodes = (
(166,178,l),
(223,259,l),
(224,256,l),
(224,188,l),
(166,172,l)
);
},
{
closed = 1;
nodes = (
(81,208,l),
(148,302,l),
(164,290,l),
(101,202,l),
(101,136,l),
(81,130,l)
);
},
{
closed = 1;
nodes = (
(55,-15,l),
(261,42,l),
(271,4,l),
(435,49,l),
(396,195,l),
(379,190,l),
(375,206,l),
(375,297,l),
(400,304,l),
(361,450,l),
(185,402,l),
(202,337,l),
(128,389,l),
(15,225,l),
(15,131,l)
);
},
{
closed = 1;
nodes = (
(290,139,l),
(290,342,l),
(275,338,l),
(270,357,l),
(372,385,l),
(314,404,l),
(333,327,l),
(378,367,l),
(310,348,l),
(310,104,l),
(366,119,l),
(370,100,l),
(286,77,l),
(281,96,l),
(290,98,l),
(290,119,l),
(93,64,l),
(88,83,l)
);
}
);
width = 408;
}
);
unicode = 65258;
},
{
glyphname = "heh-ar.medi";
layers = (
{
anchors = (
{
name = bottom;
pos = (203,-289);
},
{
name = top;
pos = (203,433);
}
);
layerId = "C1068CC4-E81B-47E6-9D26-F0E70787A68A";
shapes = (
{
closed = 1;
nodes = (
(195,209,l),
(200,208,l),
(239,153,l),
(195,141,l)
);
},
{
closed = 1;
nodes = (
(195,-16,l),
(241,-3,l),
(199,-63,l),
(195,-64,l)
);
},
{
closed = 1;
nodes = (
(-32,171,l),
(20,-14,l),
(44,-7,l),
(44,-105,l),
(26,-110,l),
(66,-256,l),
(293,-193,l),
(404,-33,l),
(404,41,l),
(443,52,l),
(404,198,l),
(393,195,l),
(293,339,l),
(66,401,l),
(26,256,l),
(44,251,l),
(44,149,l),
(-78,116,l)
);
},
{
closed = 1;
nodes = (
(110,99,l),
(110,301,l),
(100,304,l),
(105,322,l),
(219,291,l),
(214,272,l),
(130,295,l),
(130,-150,l),
(239,-120,l),
(319,-7,l),
(319,87,l),
(224,60,l),
(219,79,l),
(345,114,l),
(249,253,l),
(265,264,l),
(365,120,l),
(370,101,l),
(339,92,l),
(339,-12,l),
(253,-136,l),
(105,-177,l),
(100,-158,l),
(110,-155,l),
(110,79,l),
(60,65,l),
(47,113,l),
(36,79,l)
);
},
{
closed = 1;
nodes = (
(235,19,l),
(224,60,l),
(191,51,l)
);
},
{
closed = 1;
nodes = (
(211,77,l),
(219,79,l),
(208,124,l)
);
}
);
width = 405;
}
);
unicode = 65260;
},
{
glyphname = "heh-ar.init";
layers = (
{
anchors = (
{
name = bottom;
pos = (286,-50);
},
{
name = top;
pos = (286,500);
}
);
layerId = "C1068CC4-E81B-47E6-9D26-F0E70787A68A";
shapes = (
{
closed = 1;
nodes = (
(195,201,l),
(252,282,l),
(253,279,l),
(253,211,l),
(195,195,l)
);
},
{
closed = 1;
nodes = (
(319,161,l),
(319,365,l),
(304,361,l),
(299,380,l),
(401,408,l),
(343,427,l),
(362,350,l),
(407,390,l),
(339,371,l),
(339,167,l),
(368,175,l),
(344,232,l),
(371,125,l),
(372,156,l),
(46,66,l),
(61,43,l),
(34,150,l),
(45,86,l)
);
},
{
closed = 1;
nodes = (
(110,231,l),
(177,325,l),
(193,313,l),
(130,225,l),
(130,159,l),
(110,153,l)
);
},
{
closed = 1;
nodes = (
(555,169,l),
(555,149,l),
(322,85,l),
(337,62,l),
(319,132,l),
(321,105,l)
);
},
{
closed = 1;
nodes = (
(17,-11,l),
(278,61,l),
(293,8,l),
(607,95,l),
(607,251,l),
(412,198,l),
(404,229,l),
(404,320,l),
(429,327,l),
(390,473,l),
(214,425,l),
(231,360,l),
(157,412,l),
(44,248,l),
(44,154,l),
(-31,133,l),
(-40,197,l)
);
},
{
closed = 1;
nodes = (
(369,327,l),
(483,166,l),
(607,251,l),
(409,537,l),
(524,436,l)
);
},
{
closed = 1;
nodes = (
(517,230,l),
(449,329,l),
(464,340,l),
(586,165,l),
(587,277,l)
);
}
);
width = 622;
}
);
unicode = 65259;
},
{
glyphname = "hehgoal-ar.fina";
layers = (
{
anchors = (
{
name = bottom;
pos = (203,-50);
},
{
name = top;
pos = (228,420);
}
);
layerId = "C1068CC4-E81B-47E6-9D26-F0E70787A68A";
shapes = (
{
closed = 1;
nodes = (
(55,-15,l),
(205,26,l),
(167,168,l),
(196,210,l),
(256,226,l),
(256,157,l),
(230,150,l),
(270,4,l),
(434,49,l),
(407,150,l),
(407,267,l),
(432,274,l),
(393,420,l),
(102,340,l),
(15,214,l),
(15,131,l)
);
},
{
closed = 1;
nodes = (
(81,196,l),
(142,283,l),
(353,341,l),
(358,322,l),
(342,318,l),
(342,113,l),
(356,117,l),
(369,64,l),
(385,104,l),
(299,80,l),
(294,100,l),
(322,107,l),
(322,312,l),
(155,266,l),
(101,190,l),
(101,148,l),
(128,50,l),
(183,73,l),
(107,52,l),
(81,147,l)
);
}
);
width = 407;
}
);
unicode = 64423;
},
{
glyphname = "hehgoal-ar.medi";
layers = (
{
anchors = (
{
name = bottom;
pos = (203,-289);
},
{
name = top;
pos = (203,433);
}
);
layerId = "C1068CC4-E81B-47E6-9D26-F0E70787A68A";
shapes = (
{
closed = 1;
nodes = (
(-35,182,l),
(21,-14,l),
(44,-7,l),
(44,-105,l),
(26,-110,l),
(66,-256,l),
(293,-193,l),
(404,-33,l),
(404,42,l),
(443,52,l),
(404,198,l),
(231,151,l),
(253,70,l),
(253,14,l),
(199,-62,l),
(195,-63,l),
(195,34,l),
(156,180,l),
(-37,127,l)
);
},
{
closed = 1;
nodes = (
(124,103,l),
(130,83,l),
(130,-150,l),
(239,-120,l),
(319,-7,l),
(319,87,l),
(298,81,l),
(316,54,l),
(289,159,l),
(290,99,l),
(365,120,l),
(370,101,l),
(339,92,l),
(339,-12,l),
(253,-136,l),
(105,-177,l),
(100,-158,l),
(110,-155,l),
(110,79,l),
(60,65,l),
(55,84,l)
);
}
);
width = 405;
}
);
unicode = 64425;
},
{
glyphname = "hehgoal-ar.init";
layers = (
{
anchors = (
{
name = bottom;
pos = (112,-200);
},
{
name = top;
pos = (112,500);
}
);
layerId = "C1068CC4-E81B-47E6-9D26-F0E70787A68A";
shapes = (
{
closed = 1;
nodes = (
(82,-11,l),
(82,-130,l),
(169,-154,l),
(185,-97,l),
(146,-86,l),
(146,-13,l),
(67,-35,l)
);
},
{
closed = 1;
nodes = (
(104,-50,l),
(124,-44,l),
(124,-100,l),
(157,-110,l),
(152,-127,l),
(104,-115,l)
);
},
{
ref = "behDotless-ar.init";
}
);
width = 224;
}
);
unicode = 64424;
},
{
glyphname = "waw-ar";
layers = (
{
anchors = (
{
name = bottom;
pos = (202,-269);
},
{
name = center;
pos = (202,250);
},
{
name = top;
pos = (238,449);
}
);
layerId = "C1068CC4-E81B-47E6-9D26-F0E70787A68A";
shapes = (
{
closed = 1;
nodes = (
(374,-146,l),
(374,306,l),
(388,357,l),
(96,437,l),
(57,291,l),
(223,245,l),
(223,-187,l)
);
},
{
closed = 1;
nodes = (
(288,-120,l),
(288,295,l),
(79,353,l),
(111,298,l),
(128,360,l),
(320,307,l),
(315,288,l),
(308,290,l),
(308,-114,l)
);
},
{
closed = 1;
nodes = (
(211,36,l),
(241,145,l),
(166,166,l),
(166,302,l),
(15,302,l),
(15,74,l),
(-38,108,l)
);
},
{
closed = 1;
nodes = (
(64,148,l),
(81,143,l),
(81,252,l),
(101,252,l),
(101,137,l),
(179,115,l),
(175,96,l),
(59,129,l)
);
}
);
width = 403;
}
);
unicode = 1608;
},
{
glyphname = "alefMaksura-ar";
layers = (
{
anchors = (
{
name = bottom;
pos = (405,-168);
},
{
name = top;
pos = (107,116);
}
);
layerId = "C1068CC4-E81B-47E6-9D26-F0E70787A68A";
shapes = (
{
closed = 1;
nodes = (
(604,387,l),
(695,332,l),
(229,460,l),
(395,490,l),
(332,258,l),
(201,311,l),
(656,186,l),
(541,155,l)
);
},
{
closed = 1;
nodes = (
(562,-16,l),
(567,-36,l),
(132,-77,l),
(225,-76,l),
(78,-35,l),
(82,-17,l),
(229,-55,l),
(135,-57,l)
);
},
{
closed = 1;
nodes = (
(15,-84,l),
(211,-137,l),
(631,-97,l),
(592,49,l),
(228,16,l),
(53,61,l)
);
},
{
closed = 1;
nodes = (
(441,38,l),
(441,33,l),
(592,33,l),
(592,153,l),
(454,191,l),
(454,302,l),
(303,302,l),
(303,76,l)
);
},
{
closed = 1;
nodes = (
(369,254,l),
(389,254,l),
(389,141,l),
(567,92,l),
(548,151,l),
(548,44,l),
(565,72,l),
(369,126,l)
);
},
{
closed = 1;
nodes = (
(406,343,l),
(532,308,l),
(527,289,l),
(401,324,l)
);
}
);
width = 646;
}
);
unicode = 1609;
},
{
glyphname = "alefMaksura-ar.fina";
layers = (
{
anchors = (
{
name = bottom;
pos = (405,-168);
},
{
name = top;
pos = (107,116);
}
);
layerId = "C1068CC4-E81B-47E6-9D26-F0E70787A68A";
shapes = (
{
closed = 1;
nodes = (
(562,-16,l),
(567,-36,l),
(132,-77,l),
(225,-76,l),
(78,-35,l),
(82,-17,l),
(229,-55,l),
(135,-57,l)
);
},
{
closed = 1;
nodes = (
(15,-84,l),
(211,-137,l),
(631,-97,l),
(592,49,l),
(228,16,l),
(53,61,l)
);
},
{
closed = 1;
nodes = (
(383,185,l),
(346,153,l),
(567,92,l),
(548,151,l),
(548,44,l),
(565,72,l),
(326,138,l),
(359,99,l)
);
},
{
closed = 1;
nodes = (
(559,6,l),
(566,33,l),
(592,33,l),
(592,128,l),
(598,152,l),
(342,222,l),
(299,63,l),
(158,116,l)
);
}
);
width = 588;
}
);
unicode = 65264;
},
{
glyphname = "yehbarree-ar";
layers = (
{
anchors = (
{
name = bottom;
pos = (203,-191);
},
{
name = top;
pos = (122,208);
}
);
layerId = "C1068CC4-E81B-47E6-9D26-F0E70787A68A";
shapes = (
{
closed = 1;
nodes = (
(467,-185,l),
(560,-159,l),
(523,-17,l),
(459,-34,l),
(198,-9,l),
(192,13,l),
(574,49,l),
(535,196,l),
(15,148,l),
(98,-167,l),
(-1,-141,l)
);
},
{
closed = 1;
nodes = (
(493,127,l),
(499,107,l),
(117,72,l),
(154,-70,l),
(460,-99,l),
(498,-89,l),
(503,-108,l),
(460,-119,l),
(138,-89,l),
(91,90,l)
);
}
);
width = 589;
}
);
unicode = 1746;
},
{
glyphname = "lam_alef-ar";
layers = (
{
anchors = (
{
name = " top_1  ";
pos = (448,700);
},
{
name = bottom_1;
pos = (488,-50);
},
{
name = bottom_2;
pos = (144,-50);
},
{
name = caret_1;
pos = (299,-50);
},
{
name = top_2;
pos = (115,670);
}
);
layerId = "C1068CC4-E81B-47E6-9D26-F0E70787A68A";
shapes = (
{
closed = 1;
nodes = (
(457,606,l),
(457,386,l),
(437,381,l),
(437,601,l)
);
},
{
closed = 1;
nodes = (
(330,266,l),
(397,172,l),
(264,160,l)
);
},
{
closed = 1;
nodes = (
(187,0,l),
(583,37,l),
(570,187,l),
(463,338,l),
(522,354,l),
(522,674,l),
(371,633,l),
(371,467,l),
(226,672,l),
(225,674,l),
(49,626,l),
(88,480,l),
(163,500,l),
(234,401,l),
(99,180,l),
(53,192,l),
(15,47,l)
);
},
{
closed = 1;
nodes = (
(68,52,l),
(85,115,l),
(129,102,l),
(313,402,l),
(189,576,l),
(119,557,l),
(114,576,l),
(197,599,l),
(488,190,l),
(472,178,l),
(325,385,l),
(149,97,l),
(185,87,l),
(524,119,l),
(526,99,l),
(182,67,l),
(35,108,l)
);
}
);
width = 598;
}
);
unicode = 65275;
},
{
glyphname = "lam_alef-ar.fina";
layers = (
{
anchors = (
{
name = bottom_1;
pos = (360,-50);
},
{
name = bottom_2;
pos = (151,-50);
},
{
name = caret_1;
pos = (255,0);
},
{
name = top_1;
pos = (342,682);
},
{
name = top_2;
pos = (151,510);
}
);
layerId = "C1068CC4-E81B-47E6-9D26-F0E70787A68A";
shapes = (
{
closed = 1;
nodes = (
(251,-7,l),
(442,45,l),
(431,86,l),
(431,674,l),
(280,633,l),
(280,158,l),
(212,139,l)
);
},
{
closed = 1;
nodes = (
(391,117,l),
(396,97,l),
(270,64,l),
(265,83,l),
(345,105,l),
(345,599,l),
(365,604,l),
(365,110,l)
);
},
{
closed = 1;
nodes = (
(234,150,l),
(234,500,l),
(83,459,l),
(83,158,l),
(15,139,l),
(54,-7,l),
(261,49,l)
);
},
{
closed = 1;
nodes = (
(237,129,l),
(199,165,l),
(226,57,l),
(243,108,l),
(73,64,l),
(68,83,l),
(148,105,l),
(148,425,l),
(168,430,l),
(168,110,l)
);
}
);
width = 431;
}
);
unicode = 65276;
},
{
glyphname = "zero-ar";
layers = (
{
layerId = "C1068CC4-E81B-47E6-9D26-F0E70787A68A";
shapes = (
{
closed = 1;
nodes = (
(240,305,l),
(64,353,l),
(25,207,l),
(201,159,l)
);
},
{
closed = 1;
nodes = (
(81,227,l),
(108,334,l),
(77,282,l),
(204,247,l),
(184,286,l),
(157,179,l),
(196,229,l),
(76,262,l)
);
}
);
width = 265;
}
);
unicode = 1632;
},
{
glyphname = "one-ar";
layers = (
{
layerId = "C1068CC4-E81B-47E6-9D26-F0E70787A68A";
shapes = (
{
closed = 1;
nodes = (
(181,482,l),
(30,523,l),
(30,41,l),
(181,0,l)
);
},
{
closed = 1;
nodes = (
(115,67,l),
(95,73,l),
(95,455,l),
(115,450,l)
);
}
);
width = 211;
}
);
unicode = 1633;
},
{
glyphname = "two-ar";
layers = (
{
layerId = "C1068CC4-E81B-47E6-9D26-F0E70787A68A";
shapes = (
{
closed = 1;
nodes = (
(350,537,l),
(461,486,l),
(-20,531,l),
(35,570,l),
(13,331,l),
(-22,380,l),
(448,335,l),
(328,297,l)
);
},
{
closed = 1;
nodes = (
(168,347,l),
(32,384,l),
(17,376,l),
(17,41,l),
(168,0,l)
);
},
{
closed = 1;
nodes = (
(70,402,l),
(80,512,l),
(65,457,l),
(302,435,l),
(294,467,l),
(284,357,l),
(300,415,l),
(63,437,l)
);
},
{
closed = 1;
nodes = (
(102,67,l),
(82,73,l),
(82,320,l),
(102,315,l)
);
}
);
width = 361;
}
);
unicode = 1634;
},
{
glyphname = "three-ar";
layers = (
{
layerId = "C1068CC4-E81B-47E6-9D26-F0E70787A68A";
shapes = (
{
closed = 1;
nodes = (
(166,500,l),
(15,459,l),
(15,41,l),
(166,0,l)
);
},
{
closed = 1;
nodes = (
(404,430,l),
(424,435,l),
(424,284,l),
(459,293,l),
(430,300,l),
(449,226,l),
(461,272,l),
(285,227,l),
(353,194,l),
(326,301,l),
(281,245,l),
(404,279,l)
);
},
{
closed = 1;
nodes = (
(243,430,l),
(263,435,l),
(263,239,l),
(233,273,l),
(312,293,l),
(283,300,l),
(302,226,l),
(314,272,l),
(138,227,l),
(206,194,l),
(179,301,l),
(134,245,l),
(300,291,l),
(243,234,l)
);
},
{
closed = 1;
nodes = (
(163,171,l),
(300,209,l),
(310,171,l),
(501,223,l),
(490,264,l),
(490,500,l),
(339,459,l),
(339,336,l),
(313,329,l),
(313,500,l),
(192,459,l),
(192,336,l),
(124,317,l)
);
},
{
closed = 1;
nodes = (
(100,67,l),
(80,73,l),
(80,430,l),
(100,435,l)
);
}
);
width = 516;
}
);
unicode = 1635;
},
{
glyphname = "four-ar";
layers = (
{
layerId = "C1068CC4-E81B-47E6-9D26-F0E70787A68A";
shapes = (
{
closed = 1;
nodes = (
(252,269,l),
(114,333,l),
(123,351,l),
(269,283,l),
(270,322,l),
(226,222,l)
);
},
{
closed = 1;
nodes = (
(188,474,l),
(330,449,l),
(322,430,l),
(162,458,l),
(163,426,l)
);
},
{
closed = 1;
nodes = (
(191,214,l),
(139,190,l),
(130,208,l),
(183,233,l)
);
},
{
closed = 1;
nodes = (
(178,83,l),
(338,111,l),
(346,92,l),
(204,67,l),
(179,115,l)
);
},
{
closed = 1;
nodes = (
(99,267,l),
(40,240,l),
(167,-7,l),
(437,41,l),
(376,185,l),
(220,157,l),
(278,184,l),
(344,320,l),
(207,384,l),
(361,356,l),
(421,500,l),
(152,547,l),
(4,261,l),
(-32,327,l)
);
}
);
width = 462;
}
);
unicode = 1636;
},
{
glyphname = "five-ar";
layers = (
{
layerId = "C1068CC4-E81B-47E6-9D26-F0E70787A68A";
shapes = (
{
closed = 1;
nodes = (
(407,-8,l),
(421,143,l),
(421,365,l),
(432,484,l),
(114,514,l),
(112,492,l),
(28,172,l),
(11,-16,l),
(-22,33,l)
);
},
{
closed = 1;
nodes = (
(181,172,l),
(225,352,l),
(270,347,l),
(270,157,l),
(106,172,l)
);
},
{
closed = 1;
nodes = (
(82,109,l),
(336,85,l),
(336,341,l),
(356,339,l),
(356,83,l),
(354,63,l),
(80,89,l)
);
},
{
closed = 1;
nodes = (
(157,436,l),
(159,444,l),
(366,424,l),
(365,404,l),
(174,422,l),
(116,202,l),
(96,202,l)
);
}
);
width = 447;
}
);
unicode = 1637;
},
{
glyphname = "seven-ar";
layers = (
{
layerId = "C1068CC4-E81B-47E6-9D26-F0E70787A68A";
shapes = (
{
closed = 1;
nodes = (
(187,0,l),
(393,0,l),
(347,-25,l),
(511,589,l),
(511,500,l),
(291,500,l),
(347,560,l),
(190,-79,l)
);
},
{
closed = 1;
nodes = (
(155,560,l),
(211,500,l),
(-9,500,l),
(-9,589,l),
(169,-75,l),
(137,0,l),
(227,0,l),
(245,247,l),
(312,-79,l)
);
},
{
closed = 1;
nodes = (
(202,50,l),
(93,455,l),
(37,448,l),
(115,448,l),
(224,43,l),
(268,50,l)
);
},
{
closed = 1;
nodes = (
(278,43,l),
(387,448,l),
(465,448,l),
(409,455,l),
(300,50,l),
(234,50,l)
);
}
);
width = 502;
}
);
unicode = 1639;
},
{
glyphname = "nine-ar";
layers = (
{
layerId = "C1068CC4-E81B-47E6-9D26-F0E70787A68A";
shapes = (
{
closed = 1;
nodes = (
(320,29,l),
(320,389,l),
(111,447,l),
(143,392,l),
(160,454,l),
(395,389,l),
(373,445,l),
(346,338,l),
(390,370,l),
(340,384,l),
(340,35,l)
);
},
{
closed = 1;
nodes = (
(255,339,l),
(255,-37,l),
(406,0,l),
(406,363,l),
(429,448,l),
(128,531,l),
(80,352,l),
(15,405,l)
);
},
{
closed = 1;
nodes = (
(235,80,l),
(272,227,l),
(197,247,l),
(197,396,l),
(46,396,l),
(46,261,l),
(2,90,l),
(-116,175,l)
);
},
{
closed = 1;
nodes = (
(83,209,l),
(112,201,l),
(112,346,l),
(132,346,l),
(132,196,l),
(209,175,l),
(204,156,l),
(78,191,l)
);
}
);
width = 444;
}
);
unicode = 1641;
},
{
glyphname = "four-persian";
layers = (
{
layerId = "C1068CC4-E81B-47E6-9D26-F0E70787A68A";
shapes = (
{
closed = 1;
nodes = (
(166,500,l),
(15,459,l),
(15,41,l),
(166,0,l)
);
},
{
closed = 1;
nodes = (
(459,293,l),
(430,300,l),
(449,226,l),
(461,272,l),
(285,227,l),
(353,194,l),
(326,301,l),
(281,245,l)
);
},
{
closed = 1;
nodes = (
(100,67,l),
(80,73,l),
(80,430,l),
(100,435,l)
);
},
{
closed = 1;
nodes = (
(163,171,l),
(300,209,l),
(310,171,l),
(501,223,l),
(462,369,l),
(313,328,l),
(313,412,l),
(384,432,l),
(364,507,l),
(218,467,l),
(218,343,l),
(124,317,l)
);
},
{
closed = 1;
nodes = (
(255,279,l),
(255,447,l),
(325,466,l),
(330,447,l),
(275,431,l),
(275,284,l),
(286,287,l),
(292,266,l),
(194,241,l),
(179,301,l),
(134,245,l)
);
}
);
width = 516;
}
);
unicode = 1780;
},
{
glyphname = "five-persian";
layers = (
{
layerId = "C1068CC4-E81B-47E6-9D26-F0E70787A68A";
shapes = (
{
closed = 1;
nodes = (
(214,130,l),
(235,128,l),
(245,248,l),
(224,250,l)
);
},
{
ref = "five-ar";
}
);
width = 447;
}
);
unicode = 1781;
},
{
glyphname = "six-persian";
layers = (
{
layerId = "C1068CC4-E81B-47E6-9D26-F0E70787A68A";
shapes = (
{
closed = 1;
nodes = (
(90,247,l),
(31,220,l),
(99,85,l),
(270,164,l),
(335,300,l),
(120,400,l),
(362,356,l),
(422,500,l),
(153,547,l),
(-5,241,l),
(-41,307,l)
);
},
{
closed = 1;
nodes = (
(243,249,l),
(105,313,l),
(114,331,l),
(260,263,l),
(261,302,l),
(217,202,l)
);
},
{
closed = 1;
nodes = (
(189,474,l),
(331,449,l),
(323,430,l),
(163,458,l),
(164,426,l)
);
},
{
closed = 1;
nodes = (
(182,194,l),
(130,170,l),
(121,188,l),
(174,213,l)
);
}
);
width = 437;
}
);
unicode = 1782;
},
{
glyphname = zero;
layers = (
{
layerId = "C1068CC4-E81B-47E6-9D26-F0E70787A68A";
shapes = (
{
closed = 1;
nodes = (
(71,420,l),
(87,480,l),
(334,411,l),
(334,177,l),
(314,177,l),
(314,396,l),
(59,467,l)
);
},
{
closed = 1;
nodes = (
(388,-25,l),
(427,121,l),
(197,184,l),
(197,381,l),
(46,381,l),
(46,198,l),
(4,43,l),
(-53,96,l)
);
},
{
closed = 1;
nodes = (
(70,87,l),
(86,147,l),
(112,140,l),
(112,351,l),
(132,351,l),
(132,134,l),
(366,69,l),
(360,49,l),
(58,134,l)
);
},
{
closed = 1;
nodes = (
(248,347,l),
(248,144,l),
(399,144,l),
(399,459,l),
(399,462,l),
(56,556,l),
(7,376,l),
(-52,429,l)
);
}
);
width = 446;
}
);
unicode = 48;
},
{
glyphname = one;
layers = (
{
layerId = "C1068CC4-E81B-47E6-9D26-F0E70787A68A";
shapes = (
{
closed = 1;
nodes = (
(67,389,l),
(84,455,l),
(170,432,l),
(165,412,l),
(165,104,l),
(199,95,l),
(194,75,l),
(108,98,l),
(113,118,l),
(145,109,l),
(145,417,l),
(43,445,l)
);
},
{
closed = 1;
nodes = (
(79,367,l),
(79,164,l),
(48,48,l),
(224,0,l),
(263,146,l),
(230,155,l),
(230,482,l),
(54,530,l),
(15,384,l)
);
}
);
width = 278;
}
);
unicode = 49;
},
{
glyphname = two;
layers = (
{
layerId = "C1068CC4-E81B-47E6-9D26-F0E70787A68A";
shapes = (
{
closed = 1;
nodes = (
(456,190,l),
(540,139,l),
(59,184,l),
(208,223,l),
(186,-16,l),
(57,33,l),
(527,-12,l),
(434,-50,l)
);
},
{
closed = 1;
nodes = (
(-11,106,l),
(131,-14,l),
(444,354,l),
(457,489,l),
(60,526,l),
(46,374,l),
(46,286,l),
(197,323,l),
(197,362,l),
(249,357,l),
(-21,41,l)
);
},
{
closed = 1;
nodes = (
(100,457,l),
(407,429,l),
(405,408,l),
(121,75,l),
(106,88,l),
(381,411,l),
(132,434,l),
(132,354,l),
(112,349,l),
(112,436,l),
(98,437,l)
);
},
{
closed = 1;
nodes = (
(247,100,l),
(396,87,l),
(394,67,l),
(245,80,l)
);
}
);
width = 472;
}
);
unicode = 50;
},
{
glyphname = three;
layers = (
{
layerId = "C1068CC4-E81B-47E6-9D26-F0E70787A68A";
shapes = (
{
closed = 1;
nodes = (
(140,379,l),
(99,476,l),
(100,442,l),
(292,476,l),
(248,527,l),
(302,425,l),
(295,456,l),
(109,423,l)
);
},
{
closed = 1;
nodes = (
(280,36,l),
(287,67,l),
(233,-35,l),
(277,16,l),
(85,50,l),
(84,16,l),
(125,113,l),
(94,69,l)
);
},
{
closed = 1;
nodes = (
(364,338,l),
(326,379,l),
(370,294,l),
(372,320,l),
(205,242,l),
(357,172,l),
(355,198,l),
(311,113,l),
(349,154,l),
(216,216,l),
(177,298,l),
(155,241,l)
);
},
{
closed = 1;
nodes = (
(285,-51,l),
(422,216,l),
(363,243,l),
(438,277,l),
(300,543,l),
(31,496,l),
(91,352,l),
(334,396,l),
(118,296,l),
(183,160,l),
(319,97,l),
(76,141,l),
(5,-26,l),
(-45,8,l)
);
}
);
width = 453;
}
);
unicode = 51;
},
{
glyphname = four;
layers = (
{
layerId = "C1068CC4-E81B-47E6-9D26-F0E70787A68A";
shapes = (
{
closed = 1;
nodes = (
(190,254,l),
(190,507,l),
(39,544,l),
(39,254,l)
);
},
{
closed = 1;
nodes = (
(105,304,l),
(105,478,l),
(125,473,l),
(125,304,l)
);
},
{
closed = 1;
nodes = (
(421,158,l),
(419,138,l),
(337,146,l),
(337,50,l),
(317,50,l),
(317,148,l),
(70,171,l),
(72,191,l),
(317,168,l),
(317,364,l),
(337,364,l),
(337,166,l)
);
},
{
closed = 1;
nodes = (
(251,88,l),
(251,0,l),
(402,0,l),
(402,74,l),
(462,68,l),
(476,219,l),
(402,226,l),
(402,414,l),
(251,414,l),
(251,240,l),
(29,261,l),
(11,65,l),
(-17,114,l)
);
}
);
width = 481;
}
);
unicode = 52;
},
{
glyphname = five;
layers = (
{
layerId = "C1068CC4-E81B-47E6-9D26-F0E70787A68A";
shapes = (
{
closed = 1;
nodes = (
(366,128,l),
(413,104,l),
(29,174,l),
(101,225,l),
(5,-2,l),
(-45,32,l),
(329,-35,l),
(264,-67,l)
);
},
{
closed = 1;
nodes = (
(0,359,l),
(470,404,l),
(382,355,l),
(360,594,l),
(468,555,l),
(-13,510,l),
(17,561,l),
(39,321,l)
);
},
{
closed = 1;
nodes = (
(280,60,l),
(287,91,l),
(233,-11,l),
(277,40,l),
(85,74,l),
(84,40,l),
(125,137,l),
(94,93,l)
);
},
{
closed = 1;
nodes = (
(85,376,l),
(49,338,l),
(357,196,l),
(355,222,l),
(311,137,l),
(349,178,l),
(45,320,l),
(85,268,l)
);
},
{
closed = 1;
nodes = (
(23,258,l),
(354,105,l),
(422,240,l),
(121,378,l),
(121,381,l),
(35,381,l),
(34,254,l),
(13,208,l)
);
},
{
closed = 1;
nodes = (
(319,476,l),
(321,456,l),
(78,433,l),
(76,453,l)
);
}
);
width = 437;
}
);
unicode = 53;
},
{
glyphname = six;
layers = (
{
layerId = "C1068CC4-E81B-47E6-9D26-F0E70787A68A";
shapes = (
{
closed = 1;
nodes = (
(304,44,l),
(309,64,l),
(124,115,l),
(124,420,l),
(264,458,l),
(259,477,l),
(124,440,l),
(124,461,l),
(104,456,l),
(104,120,l),
(84,126,l),
(79,107,l)
);
},
{
closed = 1;
nodes = (
(313,248,l),
(313,158,l),
(333,158,l),
(333,243,l),
(361,235,l),
(366,255,l),
(240,289,l),
(235,270,l)
);
},
{
closed = 1;
nodes = (
(209,364,l),
(429,304,l),
(398,183,l),
(398,108,l),
(247,108,l),
(247,200,l),
(172,220,l)
);
},
{
closed = 1;
nodes = (
(38,141,l),
(38,488,l),
(290,554,l),
(327,409,l),
(189,372,l),
(189,165,l),
(373,114,l),
(333,-31,l),
(15,56,l)
);
}
);
width = 444;
}
);
unicode = 54;
},
{
glyphname = seven;
layers = (
{
layerId = "C1068CC4-E81B-47E6-9D26-F0E70787A68A";
shapes = (
{
closed = 1;
nodes = (
(96,0,l),
(405,29,l),
(254,-5,l),
(367,417,l),
(383,397,l),
(146,332,l),
(210,416,l),
(97,-6,l)
);
},
{
closed = 1;
nodes = (
(-65,335,l),
(405,380,l),
(372,331,l),
(350,570,l),
(403,531,l),
(-78,486,l),
(11,537,l),
(33,297,l)
);
},
{
closed = 1;
nodes = (
(311,456,l),
(313,436,l),
(73,414,l),
(71,434,l)
);
},
{
closed = 1;
nodes = (
(278,338,l),
(203,60,l),
(125,53,l),
(177,39,l),
(250,310,l),
(340,335,l)
);
}
);
width = 383;
}
);
unicode = 55;
},
{
glyphname = eight;
layers = (
{
layerId = "C1068CC4-E81B-47E6-9D26-F0E70787A68A";
shapes = (
{
closed = 1;
nodes = (
(271,61,l),
(265,41,l),
(80,93,l),
(85,113,l),
(102,108,l),
(102,163,l),
(122,167,l),
(122,102,l)
);
},
{
closed = 1;
nodes = (
(187,201,l),
(245,186,l),
(245,136,l),
(187,152,l)
);
},
{
closed = 1;
nodes = (
(161,479,l),
(167,499,l),
(352,447,l),
(347,427,l),
(330,432,l),
(330,367,l),
(310,363,l),
(310,438,l)
);
},
{
closed = 1;
nodes = (
(295,-35,l),
(310,20,l),
(396,20,l),
(396,169,l),
(427,290,l),
(328,317,l),
(396,331,l),
(396,422,l),
(417,498,l),
(137,575,l),
(116,500,l),
(36,500,l),
(36,241,l),
(126,217,l),
(36,199,l),
(36,118,l),
(-4,-28,l),
(-153,88,l)
);
},
{
closed = 1;
nodes = (
(187,404,l),
(245,388,l),
(245,339,l),
(187,355,l)
);
},
{
closed = 1;
nodes = (
(102,450,l),
(122,450,l),
(122,307,l),
(364,240,l),
(359,221,l),
(331,229,l),
(331,70,l),
(311,70,l),
(311,234,l),
(102,291,l)
);
}
);
width = 442;
}
);
unicode = 56;
},
{
glyphname = nine;
layers = (
{
layerId = "C1068CC4-E81B-47E6-9D26-F0E70787A68A";
shapes = (
{
closed = 1;
nodes = (
(124,422,l),
(142,489,l),
(361,428,l),
(356,409,l),
(340,414,l),
(340,56,l),
(344,37,l),
(184,-6,l),
(180,13,l),
(320,51,l),
(320,419,l),
(111,477,l)
);
},
{
closed = 1;
nodes = (
(142,489,l),
(153,527,l),
(117,496,l)
);
},
{
closed = 1;
nodes = (
(255,369,l),
(255,102,l),
(117,65,l),
(153,-78,l),
(406,-10,l),
(406,393,l),
(429,478,l),
(111,565,l),
(61,382,l),
(15,435,l)
);
},
{
closed = 1;
nodes = (
(83,239,l),
(112,231,l),
(112,376,l),
(132,376,l),
(132,226,l),
(209,205,l),
(204,186,l),
(78,221,l)
);
},
{
closed = 1;
nodes = (
(235,110,l),
(272,257,l),
(143,291,l),
(197,291,l),
(197,426,l),
(46,426,l),
(46,291,l),
(2,120,l),
(-116,205,l)
);
}
);
width = 444;
}
);
unicode = 57;
},
{
glyphname = "fullstop-ar";
layers = (
{
layerId = "C1068CC4-E81B-47E6-9D26-F0E70787A68A";
shapes = (
{
closed = 1;
nodes = (
(189,109,l),
(59,145,l),
(30,36,l),
(159,0,l)
);
},
{
closed = 1;
nodes = (
(84,67,l),
(90,91,l),
(135,78,l),
(128,54,l)
);
}
);
width = 219;
}
);
unicode = 1748;
},
{
glyphname = "comma-ar";
layers = (
{
layerId = "C1068CC4-E81B-47E6-9D26-F0E70787A68A";
shapes = (
{
closed = 1;
nodes = (
(31,33,l),
(161,-3,l),
(190,106,l),
(61,142,l)
);
},
{
closed = 1;
nodes = (
(136,75,l),
(130,51,l),
(85,64,l),
(92,88,l)
);
},
{
closed = 1;
nodes = (
(146,222,l),
(103,233,l),
(67,98,l),
(112,95,l)
);
}
);
width = 219;
}
);
unicode = 1548;
},
{
color = 0;
glyphname = "semicolon-ar";
layers = (
{
layerId = "C1068CC4-E81B-47E6-9D26-F0E70787A68A";
shapes = (
{
closed = 1;
nodes = (
(145,499,l),
(102,510,l),
(66,375,l),
(111,372,l)
);
},
{
closed = 1;
nodes = (
(30,310,l),
(160,274,l),
(189,383,l),
(60,419,l)
);
},
{
closed = 1;
nodes = (
(135,352,l),
(129,328,l),
(84,341,l),
(91,365,l)
);
},
{
closed = 1;
nodes = (
(48,33,l),
(178,-3,l),
(207,106,l),
(78,142,l)
);
},
{
closed = 1;
nodes = (
(153,75,l),
(147,51,l),
(102,64,l),
(109,88,l)
);
}
);
width = 219;
}
);
unicode = 1563;
userData = {
OTclass = (
);
};
},
{
glyphname = comma;
layers = (
{
layerId = "C1068CC4-E81B-47E6-9D26-F0E70787A68A";
shapes = (
{
closed = 1;
nodes = (
(92,-80,l),
(135,-91,l),
(171,44,l),
(126,47,l)
);
},
{
pos = (18,0);
ref = "fullstop-ar";
}
);
width = 219;
}
);
unicode = 44;
},
{
glyphname = exclam;
layers = (
{
layerId = "C1068CC4-E81B-47E6-9D26-F0E70787A68A";
shapes = (
{
closed = 1;
nodes = (
(180,194,l),
(190,604,l),
(39,604,l),
(49,194,l)
);
},
{
closed = 1;
nodes = (
(198,117,l),
(60,155,l),
(30,40,l),
(167,2,l)
);
},
{
closed = 1;
nodes = (
(105,244,l),
(105,554,l),
(125,554,l),
(125,244,l)
);
},
{
closed = 1;
nodes = (
(87,97,l),
(145,81,l),
(139,61,l),
(81,77,l)
);
}
);
width = 228;
}
);
unicode = 33;
},
{
glyphname = question;
layers = (
{
layerId = "C1068CC4-E81B-47E6-9D26-F0E70787A68A";
shapes = (
{
closed = 1;
nodes = (
(300,-49,l),
(268,-85,l),
(238,31,l),
(90,-9,l),
(120,-126,l),
(66,-114,l)
);
},
{
closed = 1;
nodes = (
(363,452,l),
(384,458,l),
(344,604,l),
(-79,488,l),
(6,547,l),
(55,368,l),
(255,423,l),
(212,436,l),
(212,302,l),
(363,302,l)
);
},
{
closed = 1;
nodes = (
(81,31,l),
(232,72,l),
(232,138,l),
(363,176,l),
(363,325,l),
(81,244,l)
);
},
{
closed = 1;
nodes = (
(306,525,l),
(311,506,l),
(298,503,l),
(298,352,l),
(278,352,l),
(278,497,l),
(93,447,l),
(81,492,l),
(79,463,l)
);
},
{
closed = 1;
nodes = (
(303,243,l),
(303,222,l),
(167,183,l),
(167,114,l),
(147,109,l),
(147,177,l),
(137,174,l),
(137,240,l),
(123,191,l)
);
},
{
closed = 1;
nodes = (
(150,-52,l),
(145,-34,l),
(199,-19,l),
(204,-37,l)
);
}
);
width = 399;
}
);
unicode = 63;
},
{
glyphname = asterisk;
layers = (
{
layerId = "C1068CC4-E81B-47E6-9D26-F0E70787A68A";
shapes = (
{
closed = 1;
nodes = (
(13,523,l),
(106,449,l),
(30,389,l),
(83,320,l),
(132,359,l),
(132,297,l),
(218,297,l),
(218,359,l),
(267,320,l),
(320,389,l),
(244,449,l),
(320,509,l),
(266,576,l),
(218,538,l),
(218,598,l),
(132,598,l),
(132,538,l),
(84,576,l),
(9,483,l)
);
}
);
width = 350;
}
);
unicode = 42;
},
{
glyphname = numbersign;
layers = (
{
layerId = "C1068CC4-E81B-47E6-9D26-F0E70787A68A";
shapes = (
{
closed = 1;
nodes = (
(86,349,l),
(559,349,l),
(595,452,l),
(121,452,l)
);
},
{
closed = 1;
nodes = (
(30,196,l),
(504,196,l),
(539,299,l),
(66,299,l)
);
},
{
closed = 1;
nodes = (
(173.341,41.578,l),
(347.51,519.687,l),
(259.401,579.109,l),
(68.157,55.238,l),
(81.135,127.638,l),
(185.636,57.287,l)
);
},
{
closed = 1;
nodes = (
(359.341,41.578,l),
(533.51,519.687,l),
(445.401,579.109,l),
(254.157,55.238,l),
(267.135,127.638,l),
(371.636,57.287,l)
);
}
);
width = 625;
}
);
unicode = 35;
},
{
glyphname = backslash;
layers = (
{
layerId = "C1068CC4-E81B-47E6-9D26-F0E70787A68A";
shapes = (
{
closed = 1;
nodes = (
(468,-61,l),
(439,-67,l),
(144,742,l),
(196,613,l),
(30,613,l),
(285,-87,l),
(267,-61,l)
);
},
{
closed = 1;
nodes = (
(347,-4,l),
(362,8,l),
(275,8,l),
(328,-11,l),
(123,552,l),
(144,552,l)
);
}
);
width = 434;
}
);
unicode = 92;
},
{
glyphname = hyphen;
layers = (
{
layerId = "C1068CC4-E81B-47E6-9D26-F0E70787A68A";
shapes = (
{
closed = 1;
nodes = (
(43,389,l),
(31,259,l),
(365,227,l),
(377,358,l)
);
},
{
closed = 1;
nodes = (
(320,282,l),
(85,304,l),
(88,335,l),
(323,313,l)
);
}
);
width = 408;
}
);
unicode = 45;
},
{
glyphname = endash;
layers = (
{
layerId = "C1068CC4-E81B-47E6-9D26-F0E70787A68A";
shapes = (
{
closed = 1;
nodes = (
(43,389,l),
(31,259,l),
(452,219,l),
(464,350,l)
);
},
{
closed = 1;
nodes = (
(407,274,l),
(85,304,l),
(88,335,l),
(410,305,l)
);
}
);
width = 495;
}
);
unicode = 8211;
},
{
glyphname = emdash;
layers = (
{
layerId = "C1068CC4-E81B-47E6-9D26-F0E70787A68A";
shapes = (
{
closed = 1;
nodes = (
(43,389,l),
(31,259,l),
(658,199,l),
(670,331,l)
);
},
{
closed = 1;
nodes = (
(613,254,l),
(85,304,l),
(88,335,l),
(616,286,l)
);
}
);
width = 701;
}
);
unicode = 8212;
},
{
glyphname = underscore;
layers = (
{
layerId = "C1068CC4-E81B-47E6-9D26-F0E70787A68A";
shapes = (
{
closed = 1;
nodes = (
(374,-48,l),
(475,-94,l),
(-6,-49,l),
(42,0,l),
(20,-239,l),
(-8,-124,l),
(462,-169,l),
(352,-288,l)
);
}
);
width = 401;
}
);
unicode = 95;
},
{
glyphname = braceleft;
layers = (
{
layerId = "C1068CC4-E81B-47E6-9D26-F0E70787A68A";
shapes = (
{
closed = 1;
nodes = (
(153,385,l),
(105,343,l),
(229,270,l),
(229,62,l),
(209,54,l),
(209,259,l),
(87,331,l),
(97,290,l)
);
},
{
closed = 1;
nodes = (
(143,222,l),
(143,-24,l),
(294,37,l),
(294,308,l),
(222,350,l),
(294,392,l),
(294,663,l),
(143,724,l),
(143,478,l),
(30,412,l),
(65,350,l),
(-2,232,l),
(-22,319,l)
);
},
{
closed = 1;
nodes = (
(87,369,l),
(209,441,l),
(209,646,l),
(229,638,l),
(229,430,l),
(105,357,l),
(153,315,l),
(97,410,l)
);
}
);
width = 324;
}
);
unicode = 123;
},
{
glyphname = bracketright;
layers = (
{
layerId = "C1068CC4-E81B-47E6-9D26-F0E70787A68A";
shapes = (
{
closed = 1;
nodes = (
(-2,131,l),
(104,-56,l),
(294,55,l),
(294,643,l),
(104,754,l),
(30,623,l),
(143,557,l),
(143,141,l),
(-22,44,l)
);
},
{
closed = 1;
nodes = (
(209,594,l),
(87,666,l),
(97,625,l),
(153,720,l),
(105,678,l),
(229,605,l),
(229,93,l),
(105,20,l),
(153,-22,l),
(97,73,l),
(87,32,l),
(209,104,l)
);
}
);
width = 324;
}
);
unicode = 93;
},
{
glyphname = quoteright;
layers = (
{
layerId = "C1068CC4-E81B-47E6-9D26-F0E70787A68A";
shapes = (
{
closed = 1;
nodes = (
(205,664,l),
(79,700,l),
(30,473,l),
(155,437,l)
);
}
);
width = 235;
}
);
unicode = 8217;
},
{
glyphname = guilsinglleft;
layers = (
{
layerId = "C1068CC4-E81B-47E6-9D26-F0E70787A68A";
shapes = (
{
closed = 1;
nodes = (
(103,250,l),
(236,401,l),
(252,393,l),
(243,383,l),
(269,372,l),
(263,357,l),
(232,371,l),
(125,250,l),
(233,128,l),
(266,144,l),
(273,129,l),
(243,116,l),
(253,106,l),
(237,99,l)
);
},
{
closed = 1;
nodes = (
(215,42,l),
(335,98,l),
(281,212,l),
(247,196,l),
(198,251,l),
(245,304,l),
(278,288,l),
(333,403,l),
(213,458,l),
(30,251,l)
);
}
);
width = 365;
}
);
unicode = 8249;
},
{
glyphname = quotesingle;
layers = (
{
layerId = "C1068CC4-E81B-47E6-9D26-F0E70787A68A";
shapes = (
{
closed = 1;
nodes = (
(189,664,l),
(59,700,l),
(54,473,l),
(183,437,l)
);
}
);
width = 219;
}
);
unicode = 39;
},
{
glyphname = at;
layers = (
{
layerId = "C1068CC4-E81B-47E6-9D26-F0E70787A68A";
shapes = (
{
closed = 1;
nodes = (
(379,343,l),
(425,331,l),
(425,150,l),
(379,162,l)
);
},
{
closed = 1;
nodes = (
(390,84,l),
(392,127,l),
(365,20,l),
(393,63,l),
(257,98,l),
(269,52,l),
(288,126,l),
(262,119,l),
(294,110,l),
(294,356,l),
(314,356,l),
(314,105,l)
);
},
{
closed = 1;
nodes = (
(425,-229,l),
(837,-116,l),
(837,41,l),
(425,-72,l),
(166,-1,l),
(166,488,l),
(426,559,l),
(686,488,l),
(686,220,l),
(576,190,l),
(576,290,l),
(596,285,l),
(634,432,l),
(337,510,l),
(307,392,l),
(228,392,l),
(228,90,l),
(217,49,l),
(408,-3,l),
(420,43,l),
(518,18,l),
(837,105,l),
(837,603,l),
(426,716,l),
(15,603,l),
(15,-116,l)
);
},
{
closed = 1;
nodes = (
(80,551,l),
(426,647,l),
(772,551,l),
(772,157,l),
(509,84,l),
(462,96,l),
(467,117,l),
(491,110,l),
(491,375,l),
(362,411,l),
(367,429,l),
(568,373,l),
(563,354,l),
(511,369,l),
(511,105,l),
(752,172,l),
(752,536,l),
(425,626,l),
(100,536,l),
(100,-49,l),
(425,-139,l),
(762,-46,l),
(762,-67,l),
(426,-160,l),
(80,-64,l)
);
}
);
width = 852;
}
);
unicode = 64;
},
{
glyphname = ampersand;
layers = (
{
layerId = "C1068CC4-E81B-47E6-9D26-F0E70787A68A";
shapes = (
{
closed = 1;
nodes = (
(455,59,l),
(415,205,l),
(415,271,l),
(466,269,l),
(481,394,l),
(264,403,l),
(264,309,l),
(241,393,l),
(15,331,l),
(15,76,l),
(175,-17,l)
);
},
{
closed = 1;
nodes = (
(80,102,l),
(80,259,l),
(65,255,l),
(60,274,l),
(207,315,l),
(188,333,l),
(200,284,l),
(214,296,l),
(100,265,l),
(100,90,l)
);
},
{
closed = 1;
nodes = (
(166,216,l),
(264,242,l),
(264,178,l),
(329.008,178,l),
(326,181,l),
(166,137,l)
);
},
{
closed = 1;
nodes = (
(118,80,l),
(100,49,l),
(330,112,l),
(330,363,l),
(350,362,l),
(350,350,l),
(435,345,l),
(433,325,l),
(350,330,l),
(350,117,l),
(386,127,l),
(391,107,l),
(173,48,l)
);
},
{
closed = 1;
nodes = (
(80,405,l),
(80,504,l),
(65,500,l),
(60,519,l),
(257,573,l),
(261,554,l),
(100,510,l),
(100,399,l)
);
},
{
closed = 1;
nodes = (
(166,461,l),
(321,503,l),
(281,649,l),
(15,576,l),
(15,375,l),
(166,333,l)
);
}
);
width = 496;
}
);
unicode = 38;
},
{
glyphname = paragraph;
layers = (
{
layerId = "C1068CC4-E81B-47E6-9D26-F0E70787A68A";
shapes = (
{
closed = 1;
nodes = (
(694,0,l),
(694,666,l),
(543,666,l),
(543,0,l)
);
},
{
closed = 1;
nodes = (
(609,614,l),
(629,614,l),
(629,57,l),
(609,57,l)
);
},
{
pos = (497,0);
ref = P;
scale = (-1,1);
}
);
width = 742;
}
);
unicode = 182;
},
{
glyphname = section;
layers = (
{
layerId = "C1068CC4-E81B-47E6-9D26-F0E70787A68A";
shapes = (
{
closed = 1;
nodes = (
(450,-30,l),
(143,54,l),
(70,-83,l),
(310,-148,l)
);
},
{
closed = 1;
nodes = (
(145,397,l),
(95,386,l),
(262,186,l),
(277,237,l),
(194,166,l),
(244,176,l),
(78,376,l),
(63,327,l)
);
},
{
closed = 1;
nodes = (
(353,240,l),
(302,227,l),
(470,28,l),
(471,53,l),
(403,-6,l),
(452,18,l),
(285,217,l),
(270,168,l)
);
},
{
closed = 1;
nodes = (
(363,-74,l),
(373,-32,l),
(291,-103,l),
(343,-89,l),
(149,-36,l),
(158,-18,l)
);
},
{
closed = 1;
nodes = (
(552,725,l),
(312,790,l),
(172,672,l),
(479,588,l)
);
},
{
closed = 1;
nodes = (
(219,649,l),
(169,638,l),
(336,438,l),
(351,489,l),
(268,418,l),
(318,428,l),
(152,628,l),
(137,579,l)
);
},
{
closed = 1;
nodes = (
(427,509,l),
(376,496,l),
(544,297,l),
(545,322,l),
(477,263,l),
(526,287,l),
(359,486,l),
(344,437,l)
);
},
{
closed = 1;
nodes = (
(259,716,l),
(249,674,l),
(331,745,l),
(279,731,l),
(473,678,l),
(464,660,l)
);
},
{
closed = 1;
nodes = (
(181,490,l),
(98,420,l),
(398,338,l),
(499,218,l),
(558,267,l),
(558,383,l),
(410,558,l),
(359,513,l),
(204,699,l),
(89,601,l)
);
},
{
closed = 1;
nodes = (
(207,118,l),
(251,155,l),
(425,-51,l),
(484,-2,l),
(484,114,l),
(439,167,l),
(524,239,l),
(238,317,l),
(130,447,l),
(15,349,l)
);
}
);
width = 573;
}
);
unicode = 167;
},
{
glyphname = copyright;
layers = (
{
layerId = "C1068CC4-E81B-47E6-9D26-F0E70787A68A";
shapes = (
{
closed = 1;
nodes = (
(441,735,l),
(229,793,l),
(240,808,l),
(208,692,l),
(215,719,l),
(421,662,l)
);
},
{
closed = 1;
nodes = (
(441,421,l),
(441,735,l),
(365,735,l),
(365,421,l)
);
},
{
closed = 1;
nodes = (
(255,719,l),
(262,692,l),
(231,808,l),
(241,793,l),
(30,735,l),
(49,662,l)
);
},
{
closed = 1;
nodes = (
(105,735,l),
(30,735,l),
(30,493,l),
(105,493,l)
);
},
{
closed = 1;
nodes = (
(215,392,l),
(208,419,l),
(240,303,l),
(229,318,l),
(462,382,l),
(441,354,l),
(441,470,l),
(443,455,l)
);
},
{
closed = 1;
nodes = (
(30,376,l),
(241,318,l),
(231,303,l),
(262,419,l),
(255,392,l),
(49,449,l)
);
},
{
closed = 1;
nodes = (
(30,618,l),
(30,376,l),
(105,376,l),
(105,618,l)
);
},
{
closed = 1;
nodes = (
(299,623,l),
(188,652,l),
(174,597,l),
(285,567,l)
);
},
{
closed = 1;
nodes = (
(267,527,l),
(267,506,l),
(179,530,l),
(165,475,l),
(253,451,l),
(244,440,l)
);
},
{
closed = 1;
nodes = (
(225,489,l),
(225,589,l),
(169,589,l),
(169,489,l)
);
},
{
closed = 1;
nodes = (
(326,498,l),
(309,471,l),
(263,550,l),
(298,547,l),
(218,502,l),
(247,453,l)
);
}
);
width = 471;
}
);
unicode = 169;
},
{
glyphname = registered;
layers = (
{
layerId = "C1068CC4-E81B-47E6-9D26-F0E70787A68A";
shapes = (
{
closed = 1;
nodes = (
(441,735,l),
(229,793,l),
(240,808,l),
(208,692,l),
(215,719,l),
(421,662,l)
);
},
{
closed = 1;
nodes = (
(441,421,l),
(441,735,l),
(365,735,l),
(365,421,l)
);
},
{
closed = 1;
nodes = (
(255,719,l),
(262,692,l),
(231,808,l),
(241,793,l),
(30,735,l),
(49,662,l)
);
},
{
closed = 1;
nodes = (
(105,735,l),
(30,735,l),
(30,493,l),
(105,493,l)
);
},
{
closed = 1;
nodes = (
(215,392,l),
(208,419,l),
(240,303,l),
(229,318,l),
(462,382,l),
(441,354,l),
(441,470,l),
(443,455,l)
);
},
{
closed = 1;
nodes = (
(30,376,l),
(241,318,l),
(231,303,l),
(262,419,l),
(255,392,l),
(49,449,l)
);
},
{
closed = 1;
nodes = (
(30,618,l),
(30,376,l),
(105,376,l),
(105,618,l)
);
},
{
closed = 1;
nodes = (
(296,647,l),
(305,632,l),
(161,646,l),
(175,657,l),
(169,586,l),
(161,601,l),
(301,587,l),
(289,576,l)
);
},
{
closed = 1;
nodes = (
(231,497,l),
(178,511,l),
(166,467,l),
(219,453,l)
);
},
{
closed = 1;
nodes = (
(231,497,l),
(178,511,l),
(166,467,l),
(219,453,l)
);
},
{
closed = 1;
nodes = (
(221,478,l),
(221,597,l),
(176,597,l),
(176,478,l)
);
},
{
closed = 1;
nodes = (
(302,497,l),
(250,511,l),
(238,467,l),
(290,453,l)
);
},
{
closed = 1;
nodes = (
(290,523,l),
(245,523,l),
(245,465,l),
(290,453,l)
);
},
{
closed = 1;
nodes = (
(290,523,l),
(290,551,l),
(307,543,l),
(210,570,l),
(227,592,l),
(212,536,l),
(295,513,l),
(285,509,l)
);
},
{
closed = 1;
nodes = (
(290,565,l),
(290,591,l),
(245,591,l),
(245,536,l)
);
}
);
width = 471;
}
);
unicode = 174;
},
{
glyphname = trademark;
layers = (
{
layerId = "C1068CC4-E81B-47E6-9D26-F0E70787A68A";
shapes = (
{
closed = 1;
nodes = (
(199,690,l),
(211,670,l),
(17,688,l),
(36,704,l),
(28,607,l),
(16,627,l),
(206,609,l),
(189,593,l)
);
},
{
closed = 1;
nodes = (
(143,486,l),
(73,506,l),
(57,447,l),
(128,427,l)
);
},
{
closed = 1;
nodes = (
(143,486,l),
(73,506,l),
(57,447,l),
(128,427,l)
);
},
{
closed = 1;
nodes = (
(84,493,l),
(99,497,l),
(130,497,l),
(130,618,l),
(70,618,l),
(70,493,l)
);
},
{
closed = 1;
nodes = (
(291,462,l),
(291,663,l),
(229,663,l),
(229,462,l)
);
},
{
closed = 1;
nodes = (
(304,487,l),
(233,506,l),
(217,447,l),
(288,427,l)
);
},
{
closed = 1;
nodes = (
(395,487,l),
(306,510,l),
(337,523,l),
(311,430,l),
(291,452,l),
(379,427,l)
);
},
{
closed = 1;
nodes = (
(295,679,l),
(313,657,l),
(225,681,l),
(209,622,l),
(298,598,l),
(270,586,l)
);
},
{
closed = 1;
nodes = (
(381,462,l),
(381,639,l),
(321,639,l),
(321,462,l)
);
},
{
closed = 1;
nodes = (
(486,487,l),
(397,510,l),
(428,523,l),
(403,430,l),
(381,452,l),
(470,427,l)
);
},
{
closed = 1;
nodes = (
(400,675,l),
(408,652,l),
(220,704,l),
(311,716,l),
(284,614,l),
(209,644,l),
(392,593,l),
(374,581,l)
);
},
{
closed = 1;
nodes = (
(472,462,l),
(472,639,l),
(411,639,l),
(411,462,l)
);
},
{
closed = 1;
nodes = (
(490,675,l),
(499,652,l),
(311,704,l),
(403,716,l),
(374,614,l),
(299,644,l),
(483,593,l),
(465,581,l)
);
}
);
width = 516;
}
);
unicode = 8482;
},
{
glyphname = bar;
layers = (
{
layerId = "C1068CC4-E81B-47E6-9D26-F0E70787A68A";
shapes = (
{
closed = 1;
nodes = (
(15,-94,l),
(90,-94,l),
(90,700,l),
(15,700,l)
);
}
);
width = 105;
}
);
unicode = 124;
},
{
glyphname = brokenbar;
layers = (
{
layerId = "C1068CC4-E81B-47E6-9D26-F0E70787A68A";
shapes = (
{
closed = 1;
nodes = (
(15,418,l),
(90,418,l),
(90,700,l),
(15,700,l)
);
},
{
closed = 1;
nodes = (
(15,0,l),
(90,0,l),
(90,282,l),
(15,282,l)
);
}
);
width = 105;
}
);
unicode = 166;
},
{
glyphname = cent;
layers = (
{
layerId = "C1068CC4-E81B-47E6-9D26-F0E70787A68A";
shapes = (
{
closed = 1;
nodes = (
(242,295,l),
(294,606,l),
(381,554,l),
(213,585,l),
(167,317,l),
(147,439,l),
(347,405,l)
);
},
{
closed = 1;
nodes = (
(166,-178,l),
(218,133,l),
(305,31,l),
(93,70,l),
(145,156,l),
(91,-156,l),
(71,-44,l),
(271,-78,l)
);
},
{
ref = c;
}
);
width = 394;
}
);
unicode = 162;
},
{
glyphname = currency;
layers = (
{
layerId = "C1068CC4-E81B-47E6-9D26-F0E70787A68A";
shapes = (
{
closed = 1;
nodes = (
(254,356,l),
(474,532,l),
(477,498,l),
(405,588,l),
(420,581,l),
(215,418,l),
(326,529,l),
(390,445,l)
);
},
{
closed = 1;
nodes = (
(-7,61,l),
(213,237,l),
(160,178,l),
(88,267,l),
(160,286,l),
(-45,123,l),
(4,186,l),
(68,102,l)
);
},
{
closed = 1;
nodes = (
(190,493,l),
(260,417,l),
(55,581,l),
(70,587,l),
(-2,498,l),
(1,531,l),
(221,356,l),
(126,408,l)
);
},
{
closed = 1;
nodes = (
(471,186,l),
(520,123,l),
(315,286,l),
(379,258,l),
(324,240,l),
(284,189,l),
(262,237,l),
(482,61,l),
(407,102,l)
);
},
{
pos = (76,143);
ref = o;
scale = (0.8333,0.8333);
}
);
width = 475;
}
);
unicode = 164;
},
{
glyphname = dollar;
layers = (
{
layerId = "C1068CC4-E81B-47E6-9D26-F0E70787A68A";
shapes = (
{
closed = 1;
nodes = (
(123,440,l),
(81,431,l),
(220,264,l),
(233,307,l),
(164,248,l),
(205,256,l),
(67,423,l),
(54,382,l)
);
},
{
closed = 1;
nodes = (
(296,324,l),
(254,313,l),
(394,147,l),
(394,168,l),
(338,119,l),
(379,139,l),
(239,304,l),
(227,264,l)
);
},
{
closed = 1;
nodes = (
(174,208,l),
(219,244,l),
(356,81,l),
(405,122,l),
(405,219,l),
(282,364,l),
(239,327,l),
(110,482,l),
(14,400,l)
);
},
{
closed = 1;
nodes = (
(339,389,l),
(400,504,l),
(322,525,l),
(337,612,l),
(213,635,l),
(200,557,l),
(84,459,l)
);
},
{
closed = 1;
nodes = (
(196,502,l),
(245,489,l),
(260,586,l),
(276,583,l),
(260,485,l),
(334,464,l),
(327,449,l),
(156,496,l),
(148,461,l)
);
},
{
closed = 1;
nodes = (
(196,502,l),
(216,520,l),
(173,509,l)
);
},
{
closed = 1;
nodes = (
(134,109,l),
(280,69,l),
(265,56,l),
(215,69,l),
(199,-34,l),
(183,-31,l),
(200,74,l),
(126,94,l)
);
},
{
closed = 1;
nodes = (
(288,49,l),
(265,56,l),
(244,38,l)
);
},
{
closed = 1;
nodes = (
(304,62,l),
(313,97,l),
(280,69,l)
);
},
{
closed = 1;
nodes = (
(138,33,l),
(122,-60,l),
(246,-81,l),
(260,0,l),
(377,99,l),
(121,169,l),
(60,54,l)
);
}
);
width = 420;
}
);
unicode = 36;
},
{
glyphname = euro;
layers = (
{
layerId = "C1068CC4-E81B-47E6-9D26-F0E70787A68A";
shapes = (
{
closed = 1;
nodes = (
(193,345,l),
(339,345,l),
(339,402,l),
(193,402,l)
);
},
{
closed = 1;
nodes = (
(193,241,l),
(339,241,l),
(339,298,l),
(193,298,l)
);
},
{
closed = 1;
nodes = (
(15,345,l),
(148,345,l),
(148,402,l),
(15,402,l)
);
},
{
closed = 1;
nodes = (
(15,241,l),
(148,241,l),
(148,298,l),
(15,298,l)
);
},
{
pos = (12,0);
ref = C;
}
);
width = 503;
}
);
unicode = 8364;
},
{
glyphname = sterling;
layers = (
{
anchors = (
{
name = bottom;
pos = (218,0);
},
{
name = top;
pos = (258,700);
}
);
layerId = "C1068CC4-E81B-47E6-9D26-F0E70787A68A";
shapes = (
{
closed = 1;
nodes = (
(193,345,l),
(339,345,l),
(339,402,l),
(193,402,l)
);
},
{
closed = 1;
nodes = (
(193,241,l),
(339,241,l),
(339,298,l),
(193,298,l)
);
},
{
closed = 1;
nodes = (
(15,345,l),
(148,345,l),
(148,402,l),
(15,402,l)
);
},
{
closed = 1;
nodes = (
(15,241,l),
(148,241,l),
(148,298,l),
(15,298,l)
);
},
{
closed = 1;
nodes = (
(318,-19,l),
(476,24,l),
(436,170,l),
(306,134,l),
(179,171,l),
(240,171,l),
(240,490,l),
(89,490,l),
(89,197,l),
(64,204,l),
(27,60,l)
);
},
{
closed = 1;
nodes = (
(94,127,l),
(155,110,l),
(155,453,l),
(175,453,l),
(175,105,l),
(351,57,l),
(265,58,l),
(449,108,l),
(394,138,l),
(411,77,l),
(307,48,l),
(89,107,l)
);
},
{
closed = 1;
nodes = (
(96,463,l),
(338,533,l),
(468,497,l),
(508,643,l),
(350,686,l),
(59,607,l)
);
},
{
closed = 1;
nodes = (
(339,619,l),
(443,590,l),
(426,529,l),
(481,559,l),
(297,609,l),
(383,610,l),
(126,540,l),
(121,560,l)
);
}
);
width = 528;
}
);
unicode = 163;
},
{
glyphname = yen;
layers = (
{
layerId = "C1068CC4-E81B-47E6-9D26-F0E70787A68A";
shapes = (
{
closed = 1;
nodes = (
(59,356,l),
(83,292,l),
(110,400,l),
(64,376,l),
(129,358,l),
(129,765,l),
(60,784,l),
(84,716,l),
(111,824,l),
(65,804,l),
(220,762,l),
(194,806,l),
(167,698,l),
(214,742,l),
(149,760,l),
(149,353,l),
(303,311,l),
(297,311,l),
(452,353,l),
(452,765,l),
(421,773,l),
(426,794,l),
(508,771,l),
(503,751,l),
(472,760,l),
(472,358,l),
(499,366,l),
(504,346,l),
(307,292,l),
(307,35,l),
(287,35,l),
(287,307,l),
(294,292,l)
);
},
{
closed = 1;
nodes = (
(319,152,l),
(458,152,l),
(458,209,l),
(319,209,l)
);
},
{
closed = 1;
nodes = (
(319,58,l),
(458,58,l),
(458,115,l),
(319,115,l)
);
},
{
closed = 1;
nodes = (
(221,245,l),
(221,0,l),
(372,0,l),
(372,243,l),
(569,297,l),
(538,418,l),
(538,705,l),
(569,821,l),
(393,869,l),
(354,723,l),
(387,714,l),
(387,404,l),
(312,384,l),
(312,383,l),
(288,383,l),
(288,384,l),
(215,403,l),
(215,705,l),
(246,821,l),
(70,869,l),
(31,723,l),
(64,714,l),
(64,426,l),
(18,247,l),
(-100,332,l)
);
},
{
closed = 1;
nodes = (
(407,716,l),
(421,773,l),
(383,784,l)
);
},
{
closed = 1;
nodes = (
(426,794,l),
(434,824,l),
(388,804,l)
);
},
{
closed = 1;
nodes = (
(499,366,l),
(536,376,l),
(490,400,l)
);
},
{
closed = 1;
nodes = (
(537,742,l),
(503,751,l),
(490,698,l)
);
},
{
closed = 1;
nodes = (
(517,292,l),
(541,356,l),
(504,346,l)
);
},
{
closed = 1;
nodes = (
(543,762,l),
(517,806,l),
(508,771,l)
);
},
{
closed = 1;
nodes = (
(134,152,l),
(264,152,l),
(264,209,l),
(134,209,l)
);
},
{
closed = 1;
nodes = (
(134,58,l),
(264,58,l),
(264,115,l),
(134,115,l)
);
}
);
width = 600;
}
);
unicode = 165;
},
{
glyphname = plus;
layers = (
{
layerId = "C1068CC4-E81B-47E6-9D26-F0E70787A68A";
shapes = (
{
closed = 1;
nodes = (
(30,312,l),
(174,312,l),
(174,456,l),
(291,456,l),
(291,312,l),
(435,312,l),
(435,195,l),
(291,195,l),
(291,51,l),
(174,51,l),
(174,195,l),
(30,195,l)
);
},
{
closed = 1;
nodes = (
(223,244,l),
(223,101,l),
(243,101,l),
(243,244,l),
(385,244,l),
(385,264,l),
(243,264,l),
(243,407,l),
(223,407,l),
(223,264,l),
(80,264,l),
(80,244,l)
);
}
);
width = 600;
}
);
unicode = 43;
},
{
glyphname = minus;
layers = (
{
layerId = "C1068CC4-E81B-47E6-9D26-F0E70787A68A";
shapes = (
{
closed = 1;
nodes = (
(30,195,l),
(345,195,l),
(345,312,l),
(30,312,l)
);
},
{
closed = 1;
nodes = (
(80,264,l),
(295,264,l),
(295,244,l),
(80,244,l)
);
}
);
width = 375;
}
);
unicode = 8722;
},
{
glyphname = multiply;
layers = (
{
layerId = "C1068CC4-E81B-47E6-9D26-F0E70787A68A";
shapes = (
{
closed = 1;
nodes = (
(195,250,l),
(75,385,l),
(62,344,l),
(123,399,l),
(87,403,l),
(208,265,l),
(330,403,l),
(289,401,l),
(348,349,l),
(348,394,l),
(221,250,l),
(342,113,l),
(336,140,l),
(284,91,l),
(328,100,l),
(208,235,l),
(86,97,l),
(122,102,l),
(69,152,l),
(71,109,l)
);
},
{
closed = 1;
nodes = (
(10,387,l),
(131,250,l),
(31,138,l),
(115,59,l),
(208,163,l),
(301,59,l),
(385,138,l),
(285,250,l),
(386,364,l),
(299,441,l),
(208,338,l),
(117,441,l),
(-4,335,l)
);
}
);
width = 416;
}
);
unicode = 215;
},
{
glyphname = divide;
layers = (
{
layerId = "C1068CC4-E81B-47E6-9D26-F0E70787A68A";
shapes = (
{
closed = 1;
nodes = (
(30,195,l),
(385,195,l),
(385,312,l),
(30,312,l)
);
},
{
closed = 1;
nodes = (
(165,394,l),
(251,394,l),
(251,480,l),
(165,480,l)
);
},
{
closed = 1;
nodes = (
(251,27,l),
(251,113,l),
(165,113,l),
(165,27,l)
);
},
{
closed = 1;
nodes = (
(335,244,l),
(80,244,l),
(80,264,l),
(335,264,l)
);
}
);
width = 415;
}
);
unicode = 247;
},
{
glyphname = equal;
layers = (
{
layerId = "C1068CC4-E81B-47E6-9D26-F0E70787A68A";
shapes = (
{
closed = 1;
nodes = (
(30,111,l),
(345,111,l),
(345,228,l),
(30,228,l)
);
},
{
closed = 1;
nodes = (
(80,180,l),
(295,180,l),
(295,160,l),
(80,160,l)
);
},
{
closed = 1;
nodes = (
(30,266,l),
(345,266,l),
(345,383,l),
(30,383,l)
);
},
{
closed = 1;
nodes = (
(80,335,l),
(295,335,l),
(295,315,l),
(80,315,l)
);
}
);
width = 375;
}
);
unicode = 61;
},
{
glyphname = notequal;
layers = (
{
layerId = "C1068CC4-E81B-47E6-9D26-F0E70787A68A";
shapes = (
{
closed = 1;
nodes = (
(80,180,l),
(295,180,l),
(295,160,l),
(80,160,l)
);
},
{
closed = 1;
nodes = (
(80,335,l),
(295,335,l),
(295,315,l),
(80,315,l)
);
},
{
closed = 1;
nodes = (
(112,111,l),
(99,62,l),
(175,41,l),
(194,111,l),
(345,111,l),
(345,228,l),
(225,228,l),
(235,266,l),
(345,266,l),
(345,383,l),
(267,383,l),
(280,433,l),
(204,454,l),
(185,383,l),
(30,383,l),
(30,266,l),
(154,266,l),
(143,228,l),
(30,228,l),
(30,111,l)
);
}
);
width = 375;
}
);
unicode = 8800;
},
{
glyphname = greater;
layers = (
{
layerId = "C1068CC4-E81B-47E6-9D26-F0E70787A68A";
shapes = (
{
closed = 1;
nodes = (
(111,106,l),
(239,250,l),
(112,393,l),
(128,401,l),
(261,250,l),
(127,99,l)
);
},
{
closed = 1;
nodes = (
(151,458,l),
(31,403,l),
(14,423,l),
(166,251,l),
(-2,62,l),
(29,98,l),
(149,42,l),
(334,251,l)
);
}
);
width = 364;
}
);
unicode = 62;
},
{
glyphname = asciitilde;
layers = (
{
layerId = "C1068CC4-E81B-47E6-9D26-F0E70787A68A";
shapes = (
{
closed = 1;
nodes = (
(227,253,l),
(99,218,l),
(94,238,l),
(228,274,l),
(352,239,l),
(503,280,l),
(507,261,l),
(356,218,l)
);
},
{
closed = 1;
nodes = (
(68,142,l),
(227,188,l),
(357,152,l),
(559,211,l),
(523,350,l),
(365,307,l),
(239,341,l),
(32,285,l)
);
}
);
width = 600;
}
);
unicode = 126;
},
{
glyphname = logicalnot;
layers = (
{
layerId = "C1068CC4-E81B-47E6-9D26-F0E70787A68A";
shapes = (
{
closed = 1;
nodes = (
(439,195,l),
(439,77,l),
(556,77,l),
(556,312,l),
(30,312,l),
(30,195,l)
);
},
{
closed = 1;
nodes = (
(80,264,l),
(508,264,l),
(508,129,l),
(488,129,l),
(488,244,l),
(80,244,l)
);
}
);
width = 600;
}
);
unicode = 172;
},
{
glyphname = asciicircum;
layers = (
{
layerId = "C1068CC4-E81B-47E6-9D26-F0E70787A68A";
shapes = (
{
closed = 1;
nodes = (
(402,434,l),
(258,562,l),
(115,435,l),
(107,451,l),
(258,584,l),
(409,450,l)
);
},
{
closed = 1;
nodes = (
(50,474,l),
(105,354,l),
(85,337,l),
(257,489,l),
(446,321,l),
(410,352,l),
(466,472,l),
(257,657,l)
);
}
);
width = 516;
}
);
unicode = 94;
},
{
glyphname = leftArrow;
layers = (
{
layerId = "C1068CC4-E81B-47E6-9D26-F0E70787A68A";
shapes = (
{
closed = 1;
nodes = (
(200,42,l),
(320,98,l),
(218,191,l),
(509,184,l),
(509,314,l),
(218,310,l),
(318,403,l),
(198,458,l),
(15,251,l)
);
},
{
closed = 1;
nodes = (
(242,110,l),
(211,96,l),
(74,251,l),
(209,404,l),
(240,390,l),
(120,256,l),
(119,266,l),
(465,269,l),
(465,229,l),
(90,235,l),
(113,248,l)
);
}
);
width = 630;
}
);
unicode = 8592;
},
{
glyphname = lozenge;
layers = (
{
layerId = "C1068CC4-E81B-47E6-9D26-F0E70787A68A";
shapes = (
{
closed = 1;
nodes = (
(386,385,l),
(242,513,l),
(99,386,l),
(91,402,l),
(242,535,l),
(393,401,l)
);
},
{
closed = 1;
nodes = (
(34,425,l),
(89,305,l),
(69,288,l),
(241,440,l),
(430,272,l),
(394,303,l),
(450,423,l),
(241,608,l)
);
},
{
closed = 1;
nodes = (
(242,73,l),
(91,206,l),
(99,222,l),
(242,95,l),
(386,223,l),
(393,207,l)
);
},
{
closed = 1;
nodes = (
(450,185,l),
(394,305,l),
(430,336,l),
(241,168,l),
(69,320,l),
(89,303,l),
(34,183,l),
(241,0,l)
);
}
);
width = 484;
}
);
unicode = 9674;
},
{
glyphname = "tahabove-ar";
layers = (
{
anchors = (
{
name = _top;
pos = (86,500);
},
{
name = top;
pos = (86,723);
}
);
layerId = "C1068CC4-E81B-47E6-9D26-F0E70787A68A";
shapes = (
{
closed = 1;
nodes = (
(130,567,l),
(137,551,l),
(41,526,l),
(33,543,l),
(18,537,l)
);
},
{
closed = 1;
nodes = (
(9,554,l),
(0,552,l),
(24,500,l),
(173,540,l),
(150,591,l),
(160,627,l),
(64,654,l),
(64,693,l),
(9,693,l)
);
},
{
closed = 1;
nodes = (
(64,594,l),
(112,581,l),
(64,569,l)
);
},
{
closed = 1;
nodes = (
(45,639,l),
(132,615,l),
(131,625,l),
(120,591,l),
(127,598,l),
(45,621,l),
(45,574,l),
(28,574,l),
(28,673,l),
(45,673,l)
);
}
);
width = 173;
}
);
unicode = 1557;
},
{
glyphname = "dotabove-ar";
layers = (
{
anchors = (
{
name = _top;
pos = (84,500);
},
{
name = top;
pos = (84,653);
}
);
layerId = "C1068CC4-E81B-47E6-9D26-F0E70787A68A";
shapes = (
{
closed = 1;
nodes = (
(167,541,l),
(148,613,l),
(0,573,l),
(19,500,l)
);
},
{
closed = 1;
nodes = (
(31,560,l),
(9,545,l),
(130,579,l),
(134,562,l),
(37,535,l)
);
}
);
width = 167;
}
);
},
{
glyphname = "twodotsverticalabove-ar";
layers = (
{
anchors = (
{
name = _top;
pos = (84,500);
},
{
name = top;
pos = (84,751);
}
);
layerId = "C1068CC4-E81B-47E6-9D26-F0E70787A68A";
shapes = (
{
closed = 1;
nodes = (
(167,642,l),
(148,714,l),
(0,674,l),
(19,601,l)
);
},
{
closed = 1;
nodes = (
(167,541,l),
(148,613,l),
(0,573,l),
(19,500,l)
);
},
{
closed = 1;
nodes = (
(31,560,l),
(9,545,l),
(130,579,l),
(134,562,l),
(37,535,l)
);
},
{
closed = 1;
nodes = (
(31,661,l),
(9,646,l),
(130,680,l),
(134,663,l),
(37,636,l)
);
}
);
width = 167;
}
);
},
{
glyphname = "threedotsupabove-ar";
layers = (
{
anchors = (
{
name = _top;
pos = (96,453);
},
{
name = top;
pos = (96,646);
}
);
layerId = "C1068CC4-E81B-47E6-9D26-F0E70787A68A";
shapes = (
{
closed = 1;
nodes = (
(126,584,l),
(146,515,l),
(129,511,l),
(115,563,l),
(37,542,l),
(33,559,l)
);
},
{
closed = 1;
nodes = (
(19,507,l),
(95,528,l),
(108,478,l),
(180,498,l),
(167,548,l),
(148,620,l),
(0,580,l)
);
}
);
width = 180;
}
);
},
{
glyphname = "wasla-ar";
layers = (
{
anchors = (
{
name = _top;
pos = (90,500);
},
{
name = top;
pos = (90,690);
}
);
layerId = "C1068CC4-E81B-47E6-9D26-F0E70787A68A";
shapes = (
{
closed = 1;
nodes = (
(118,581,l),
(82,572,l),
(72,594,l)
);
},
{
closed = 1;
nodes = (
(30,500,l),
(179,540,l),
(156,591,l),
(166,627,l),
(18,668,l),
(0,613,l),
(31,605,l),
(4,605,l),
(26,557,l),
(6,552,l)
);
},
{
closed = 1;
nodes = (
(138,615,l),
(137,625,l),
(126,591,l),
(133,598,l),
(14,631,l),
(29,625,l),
(38,655,l),
(21,647,l)
);
},
{
closed = 1;
nodes = (
(136,567,l),
(143,551,l),
(47,526,l),
(39,543,l),
(24,537,l),
(53,545,l),
(35,585,l),
(54,586,l),
(71,550,l)
);
}
);
width = 179;
}
);
},
{
glyphname = "gafsarkashabove-ar";
layers = (
{
anchors = (
{
name = _top;
pos = (96,500);
},
{
name = top;
pos = (96,566);
}
);
layerId = "C1068CC4-E81B-47E6-9D26-F0E70787A68A";
shapes = (
{
closed = 1;
nodes = (
(-14,498,l),
(210,530,l),
(197,501,l),
(185,570,l),
(206,548,l),
(-9,518,l),
(-3,537,l),
(6,484,l)
);
}
);
width = 192;
}
);
},
{
glyphname = "hamzaabove-ar";
layers = (
{
anchors = (
{
name = _top;
pos = (86,500);
},
{
name = top;
pos = (86,708);
}
);
layerId = "C1068CC4-E81B-47E6-9D26-F0E70787A68A";
shapes = (
{
closed = 1;
nodes = (
(13,487,l),
(-19,488,l),
(216,552,l),
(182,522,l),
(159,611,l),
(193,603,l),
(135,587,l),
(139,602,l),
(119,607,l),
(35,631,l),
(169,628,l),
(113,585,l),
(149,730,l),
(183,683,l),
(-9,687,l),
(50,731,l),
(2,581,l),
(57,566,l),
(-43,538,l),
(-9,572,l)
);
},
{
closed = 1;
nodes = (
(44,514,l),
(35,549,l),
(24,537,l),
(143,569,l),
(128,578,l),
(137,543,l),
(148,554,l),
(30,523,l)
);
},
{
closed = 1;
nodes = (
(38,577,l),
(53,625,l),
(14,614,l),
(133,582,l),
(102,602,l),
(92,565,l),
(118,570,l),
(11,599,l)
);
},
{
closed = 1;
nodes = (
(57,641,l),
(68,676,l),
(45,667,l),
(117,666,l),
(102,674,l),
(93,644,l),
(115,650,l),
(41,651,l)
);
}
);
width = 174;
}
);
unicode = 1620;
},
{
glyphname = "dammatan-ar";
layers = (
{
layerId = "C1068CC4-E81B-47E6-9D26-F0E70787A68A";
shapes = (
{
closed = 1;
nodes = (
(0,500,l),
(20,500,l),
(20,551,l),
(0,551,l)
);
},
{
ref = "damma-ar";
}
);
width = 153;
}
);
unicode = 1612;
},
{
glyphname = "fatha-ar";
layers = (
{
anchors = (
{
name = _top;
pos = (76.5,500);
},
{
name = top;
pos = (77,537);
}
);
layerId = "C1068CC4-E81B-47E6-9D26-F0E70787A68A";
shapes = (
{
closed = 1;
nodes = (
(153,500,l),
(153,520,l),
(0,520,l),
(0,500,l)
);
}
);
width = 153;
}
);
unicode = 1614;
},
{
glyphname = "damma-ar";
layers = (
{
anchors = (
{
name = _top;
pos = (77,500);
},
{
name = top;
pos = (77,612);
}
);
layerId = "C1068CC4-E81B-47E6-9D26-F0E70787A68A";
shapes = (
{
closed = 1;
nodes = (
(153,500,l),
(153,520,l),
(0,520,l),
(0,500,l)
);
},
{
closed = 1;
nodes = (
(91,500,l),
(153,500,l),
(153,562,l),
(91,562,l)
);
}
);
width = 153;
}
);
unicode = 1615;
},
{
glyphname = "shadda-ar";
layers = (
{
anchors = (
{
name = _top;
pos = (77,500);
},
{
name = top;
pos = (77,602);
}
);
layerId = "C1068CC4-E81B-47E6-9D26-F0E70787A68A";
shapes = (
{
closed = 1;
nodes = (
(87,500,l),
(87,520,l),
(0,520,l),
(0,500,l)
);
},
{
closed = 1;
nodes = (
(20,552,l),
(0,552,l),
(0,500,l),
(20,500,l)
);
},
{
closed = 1;
nodes = (
(87,572,l),
(67,572,l),
(67,500,l),
(87,500,l)
);
},
{
closed = 1;
nodes = (
(134,510,l),
(134,530,l),
(67,530,l),
(67,510,l)
);
},
{
closed = 1;
nodes = (
(153,582,l),
(133,582,l),
(133,510,l),
(153,510,l)
);
}
);
width = 153;
}
);
unicode = 1617;
},
{
glyphname = "sukun-ar";
layers = (
{
anchors = (
{
name = _top;
pos = (47,500);
},
{
name = top;
pos = (47,643);
}
);
layerId = "C1068CC4-E81B-47E6-9D26-F0E70787A68A";
shapes = (
{
closed = 1;
nodes = (
(93,500,l),
(93,520,l),
(0,520,l),
(0,500,l)
);
},
{
closed = 1;
nodes = (
(20,593,l),
(0,593,l),
(0,500,l),
(20,500,l)
);
},
{
closed = 1;
nodes = (
(0,593,l),
(0,573,l),
(93,573,l),
(93,593,l)
);
},
{
closed = 1;
nodes = (
(73,500,l),
(93,500,l),
(93,593,l),
(73,593,l)
);
}
);
width = 93;
}
);
unicode = 1618;
},
{
glyphname = "madda-ar";
layers = (
{
anchors = (
{
name = _top;
pos = (99,500);
},
{
name = top;
pos = (99,631);
}
);
layerId = "C1068CC4-E81B-47E6-9D26-F0E70787A68A";
shapes = (
{
closed = 1;
nodes = (
(0,518,l),
(54,500,l),
(63,530,l),
(118,514,l),
(197,551,l),
(165,601,l),
(107,577,l),
(25,599,l)
);
},
{
closed = 1;
nodes = (
(38,574,l),
(115,554,l),
(158,574,l),
(167,560,l),
(115,536,l),
(48,554,l),
(39,524,l),
(24,529,l)
);
}
);
width = 197;
}
);
unicode = 1619;
},
{
glyphname = dieresiscomb;
layers = (
{
anchors = (
{
name = _top;
pos = (173,500);
},
{
name = top;
pos = (173,700);
}
);
layerId = "C1068CC4-E81B-47E6-9D26-F0E70787A68A";
shapes = (
{
closed = 1;
nodes = (
(54,601,l),
(153,574,l),
(147,553,l),
(49,581,l)
);
},
{
closed = 1;
nodes = (
(198,601,l),
(297,574,l),
(291,553,l),
(193,581,l)
);
},
{
closed = 1;
nodes = (
(51,738,l),
(0,549,l),
(173,500,l),
(184,538,l),
(317,500,l),
(347,605,l),
(172,653,l),
(162,616,l),
(-4,662,l)
);
}
);
width = 345;
}
);
unicode = 776;
},
{
glyphname = dotaccentcomb;
layers = (
{
anchors = (
{
name = _top;
pos = (84,500);
},
{
name = top;
pos = (84,652);
}
);
layerId = "C1068CC4-E81B-47E6-9D26-F0E70787A68A";
shapes = (
{
closed = 1;
nodes = (
(199,689,l),
(240,589,l),
(-22,661,l),
(53,737,l),
(-10,505,l),
(-61,560,l),
(201,488,l),
(136,457,l)
);
},
{
closed = 1;
nodes = (
(73,624,l),
(45,596,l),
(142,569,l),
(129,604,l),
(105,516,l),
(137,550,l),
(35,579,l),
(49,532,l)
);
}
);
width = 177;
}
);
unicode = 775;
},
{
glyphname = gravecomb;
layers = (
{
anchors = (
{
name = _top;
pos = (110,653);
},
{
name = top;
pos = (110,980);
}
);
layerId = "C1068CC4-E81B-47E6-9D26-F0E70787A68A";
shapes = (
{
closed = 1;
nodes = (
(246,833,l),
(353,677,l),
(-113,895,l),
(47,882,l),
(-16,650,l),
(-141,746,l),
(314,621,l),
(183,601,l)
);
},
{
closed = 1;
nodes = (
(51,769,l),
(174,711,l),
(171,698,l),
(52,746,l),
(59,776,l)
);
}
);
width = 220;
}
);
unicode = 768;
},
{
glyphname = acutecomb;
layers = (
{
anchors = (
{
name = _top;
pos = (110,653);
},
{
name = top;
pos = (110,980);
}
);
layerId = "C1068CC4-E81B-47E6-9D26-F0E70787A68A";
shapes = (
{
closed = 1;
nodes = (
(220,707,l),
(188,827,l),
(0,739,l),
(23,653,l)
);
},
{
closed = 1;
nodes = (
(163,766,l),
(168,746,l),
(49,698,l),
(46,711,l)
);
}
);
width = 220;
}
);
unicode = 769;
},
{
glyphname = hungarumlautcomb;
layers = (
{
anchors = (
{
name = _top;
pos = (149.5,500);
},
{
name = top;
pos = (150,773);
}
);
layerId = "C1068CC4-E81B-47E6-9D26-F0E70787A68A";
shapes = (
{
closed = 1;
nodes = (
(244,655,l),
(182,543,l),
(171,552,l),
(231,674,l),
(220,675,l)
);
},
{
closed = 1;
nodes = (
(168,479,l),
(320,699,l),
(348,634,l),
(196,739,l),
(233,751,l),
(119,506,l),
(107,552,l),
(204,484,l)
);
},
{
closed = 1;
nodes = (
(112,655,l),
(50,543,l),
(39,552,l),
(99,674,l),
(88,675,l)
);
},
{
closed = 1;
nodes = (
(36,479,l),
(188,699,l),
(216,634,l),
(64,739,l),
(101,751,l),
(-13,506,l),
(-25,552,l),
(72,484,l)
);
}
);
width = 299;
}
);
unicode = 779;
},
{
glyphname = circumflexcomb;
layers = (
{
anchors = (
{
name = _top;
pos = (121,674);
},
{
name = top;
pos = (121,896);
}
);
layerId = "C1068CC4-E81B-47E6-9D26-F0E70787A68A";
shapes = (
{
closed = 1;
nodes = (
(14,684,l),
(128,715,l),
(296,669,l),
(322,765,l),
(188,827,l),
(0,739,l)
);
},
{
closed = 1;
nodes = (
(169,786,l),
(274,737,l),
(270,722,l),
(168,763,l),
(46,721,l),
(43,734,l)
);
}
);
width = 322;
}
);
unicode = 770;
},
{
glyphname = caroncomb;
layers = (
{
anchors = (
{
name = _top;
pos = (160,669);
},
{
name = top;
pos = (159.5,823);
}
);
layerId = "C1068CC4-E81B-47E6-9D26-F0E70787A68A";
shapes = (
{
closed = 1;
nodes = (
(269,777,l),
(274,762,l),
(169,710,l),
(43,762,l),
(46,775,l),
(168,733,l)
);
},
{
closed = 1;
nodes = (
(188,669,l),
(319,756,l),
(293,823,l),
(164,771,l),
(14,812,l),
(0,757,l)
);
}
);
width = 319;
}
);
unicode = 780;
},
{
glyphname = brevecomb;
layers = (
{
anchors = (
{
name = _top;
pos = (107,500);
},
{
name = top;
pos = (107,678);
}
);
layerId = "C1068CC4-E81B-47E6-9D26-F0E70787A68A";
shapes = (
{
closed = 1;
nodes = (
(248,579,o),
(240,577,o),
(233,577,cs),
(168,577,o),
(110,609,o),
(75,658,c),
(0,633,l),
(26,556,o),
(97,500,o),
(183,500,cs),
(215,500,o),
(261,518,o),
(288,532,c),
(256,579,l)
);
},
{
closed = 1;
nodes = (
(249,535,l),
(233,530,o),
(217,527,o),
(203,527,cs),
(136,527,o),
(79,561,o),
(44,612,c),
(63,618,l),
(95,574,o),
(146,547,o),
(203,547,cs),
(212,547,o),
(224,549,o),
(237,552,c)
);
}
);
width = 274;
}
);
unicode = 774;
},
{
glyphname = ringcomb;
layers = (
{
anchors = (
{
name = _top;
pos = (130,701);
},
{
name = top;
pos = (130,954);
}
);
layerId = "C1068CC4-E81B-47E6-9D26-F0E70787A68A";
shapes = (
{
closed = 1;
nodes = (
(61,869,l),
(81,869,l),
(81,781,l),
(159,744,l),
(155,730,l),
(61,768,l)
);
},
{
closed = 1;
nodes = (
(199,765,l),
(179,765,l),
(179,853,l),
(101,890,l),
(105,904,l),
(199,866,l)
);
},
{
closed = 1;
nodes = (
(177,701,l),
(187,737,l),
(222,737,l),
(222,895,l),
(83,933,l),
(73,897,l),
(38,897,l),
(38,739,l)
);
},
{
closed = 1;
nodes = (
(103,856,l),
(157,831,l),
(157,778,l),
(103,803,l)
);
}
);
width = 260;
}
);
unicode = 778;
},
{
glyphname = tildecomb;
layers = (
{
anchors = (
{
name = _top;
pos = (153,664);
},
{
name = top;
pos = (153,829);
}
);
layerId = "C1068CC4-E81B-47E6-9D26-F0E70787A68A";
shapes = (
{
closed = 1;
nodes = (
(39,662,l),
(95,702,l),
(235,664,l),
(345,774,l),
(306,829,l),
(227,772,l),
(110,827,l),
(0,717,l)
);
},
{
closed = 1;
nodes = (
(105,779,l),
(222,725,l),
(303,789,l),
(309,781,l),
(228,700,l),
(109,755,l),
(42,702,l),
(36,710,l)
);
}
);
width = 345;
}
);
unicode = 771;
},
{
glyphname = macroncomb;
layers = (
{
anchors = (
{
name = _top;
pos = (162,550);
},
{
name = top;
pos = (162,697);
}
);
layerId = "C1068CC4-E81B-47E6-9D26-F0E70787A68A";
shapes = (
{
closed = 1;
nodes = (
(-107,571,l),
(364,599,l),
(326,543,l),
(313,783,l),
(368,700,l),
(-133,634,l),
(-6,764,l),
(7,524,l)
);
},
{
closed = 1;
nodes = (
(62,608,l),
(61,628,l),
(260,650,l),
(261,629,l)
);
}
);
width = 323;
}
);
unicode = 772;
},
{
glyphname = commaturnedabovecomb;
layers = (
{
anchors = (
{
name = _top;
pos = (82.5,500);
},
{
name = top;
pos = (82.5,723);
}
);
layerId = "C1068CC4-E81B-47E6-9D26-F0E70787A68A";
shapes = (
{
closed = 1;
nodes = (
(38,528,l),
(38,500,l),
(80,500,l),
(165,500,l),
(165,592,l),
(121,592,l),
(164,690,l),
(114,724,l),
(-20,522,l),
(-50,586,l)
);
},
{
closed = 1;
nodes = (
(115,680,l),
(126,671,l),
(72,556,l),
(145,556,l),
(145,536,l),
(58,536,l),
(58,556,l),
(52,561,l)
);
}
);
width = 165;
}
);
unicode = 786;
},
{
glyphname = commaaccentcomb;
layers = (
{
anchors = (
{
name = _bottom;
pos = (287.5,0);
},
{
name = bottom;
pos = (287.5,-266);
}
);
layerId = "C1068CC4-E81B-47E6-9D26-F0E70787A68A";
shapes = (
{
closed = 1;
nodes = (
(316,-110,l),
(254,-222,l),
(243,-213,l),
(303,-91,l),
(292,-90,l)
);
},
{
closed = 1;
nodes = (
(240,-286,l),
(392,-66,l),
(420,-131,l),
(268,-26,l),
(305,-14,l),
(191,-259,l),
(179,-213,l),
(276,-281,l)
);
}
);
width = 600;
}
);
unicode = 806;
},
{
glyphname = cedillacomb;
layers = (
{
anchors = (
{
name = _bottom;
pos = (45,-12);
},
{
name = bottom;
pos = (92,-269);
}
);
layerId = "C1068CC4-E81B-47E6-9D26-F0E70787A68A";
shapes = (
{
closed = 1;
nodes = (
(38,-208,l),
(43,-189,l),
(123,-226,l),
(120,-235,l)
);
},
{
closed = 1;
nodes = (
(139,-269,l),
(149,-234,l),
(184,-234,l),
(184,-76,l),
(63,-43,l),
(63,0,l),
(28,0,l),
(28,-98,l),
(119,-140,l),
(119,-192,l),
(23,-147,l),
(0,-231,l)
);
},
{
closed = 1;
nodes = (
(64,-71,l),
(162,-103,l),
(162,-212,l),
(142,-212,l),
(142,-121,l),
(60,-83,l)
);
}
);
width = 184;
}
);
unicode = 807;
},
{
glyphname = ogonekcomb;
layers = (
{
anchors = (
{
name = _ogonek;
pos = (56,26);
}
);
layerId = "C1068CC4-E81B-47E6-9D26-F0E70787A68A";
shapes = (
{
closed = 1;
nodes = (
(178,-146,o),
(170,-147,o),
(162,-147,cs),
(111,-147,o),
(65,-123,o),
(36,-85,c),
(56,-79,l),
(82,-109,o),
(120,-127,o),
(162,-127,cs),
(174,-127,o),
(186,-125,o),
(197,-122,c),
(177,-117,l),
(186,-145,l)
);
},
{
closed = 1;
nodes = (
(21,-126,o),
(81,-171,o),
(151,-171,cs),
(178,-171,o),
(203,-164,o),
(225,-152,c),
(210,-107,l),
(204,-108,o),
(197,-108,o),
(191,-108,cs),
(138,-108,o),
(91,-82,o),
(62,-43,c),
(91,3,l),
(56,26,l),
(0,-63,l)
);
}
);
width = 225;
}
);
unicode = 808;
},
